<svg width="137" height="137" viewBox="0 0 137 137" fill="none" xmlns="http://www.w3.org/2000/svg">
<path opacity="0.15" d="M137 68.5C137 106.332 106.332 137 68.5 137C30.6685 137 0 106.332 0 68.5C0 30.6685 30.6685 0 68.5 0C106.332 0 137 30.6685 137 68.5ZM3.96786 68.5C3.96786 104.14 32.8599 133.032 68.5 133.032C104.14 133.032 133.032 104.14 133.032 68.5C133.032 32.8599 104.14 3.96786 68.5 3.96786C32.8599 3.96786 3.96786 32.8599 3.96786 68.5Z" fill="#161616"/>
<path d="M68.5 137C50.3327 137 32.9094 129.783 20.0632 116.937C7.21695 104.091 3.82605e-06 86.6673 0 68.5C-3.82605e-06 50.3327 7.21693 32.9094 20.0632 20.0632C32.9094 7.21696 50.3326 8.44622e-06 68.5 0V4.00308C51.3943 4.00309 34.9893 10.7983 22.8938 22.8938C10.7983 34.9893 4.00308 51.3944 4.00308 68.5C4.00309 85.6057 10.7983 102.011 22.8938 114.106C34.9893 126.202 51.3944 132.997 68.5 132.997V137Z" fill="#F5DF4D"/>
<circle opacity="0.15" cx="69" cy="69" r="46" fill="#161616"/>
<path opacity="0.5" d="M64.78 64.24C63.62 64.24 62.5867 63.9533 61.68 63.38C60.7733 62.8067 60.06 61.98 59.54 60.9C59.0333 59.8067 58.78 58.5067 58.78 57C58.78 55.4933 59.0333 54.2 59.54 53.12C60.06 52.0267 60.7733 51.1933 61.68 50.62C62.5867 50.0467 63.62 49.76 64.78 49.76C65.94 49.76 66.9733 50.0467 67.88 50.62C68.7867 51.1933 69.4933 52.0267 70 53.12C70.52 54.2 70.78 55.4933 70.78 57C70.78 58.5067 70.52 59.8067 70 60.9C69.4933 61.98 68.7867 62.8067 67.88 63.38C66.9733 63.9533 65.94 64.24 64.78 64.24ZM64.78 61.5C65.6333 61.5 66.3 61.1333 66.78 60.4C67.2733 59.6667 67.52 58.5333 67.52 57C67.52 55.4667 67.2733 54.3333 66.78 53.6C66.3 52.8667 65.6333 52.5 64.78 52.5C63.94 52.5 63.2733 52.8667 62.78 53.6C62.3 54.3333 62.06 55.4667 62.06 57C62.06 58.5333 62.3 59.6667 62.78 60.4C63.2733 61.1333 63.94 61.5 64.78 61.5ZM82.697 61.36V64H72.117V61.9L77.517 56.8C78.0904 56.2533 78.477 55.7867 78.677 55.4C78.877 55 78.977 54.6067 78.977 54.22C78.977 53.66 78.7837 53.2333 78.397 52.94C78.0237 52.6333 77.4704 52.48 76.737 52.48C76.1237 52.48 75.5704 52.6 75.077 52.84C74.5837 53.0667 74.1704 53.4133 73.837 53.88L71.477 52.36C72.0237 51.5467 72.777 50.9133 73.737 50.46C74.697 49.9933 75.797 49.76 77.037 49.76C78.077 49.76 78.9837 49.9333 79.757 50.28C80.5437 50.6133 81.1504 51.0933 81.577 51.72C82.017 52.3333 82.237 53.06 82.237 53.9C82.237 54.66 82.077 55.3733 81.757 56.04C81.437 56.7067 80.817 57.4667 79.897 58.32L76.677 61.36H82.697Z" fill="#161616"/>
<path d="M68.92 77.24V88H52.5V77.24H55.6V85.44H59.18V77.24H62.28V85.44H65.82V77.24H68.92ZM76.0941 77.08C77.7607 77.08 79.0407 77.48 79.9341 78.28C80.8274 79.0667 81.2741 80.26 81.2741 81.86V88H78.3541V86.66C77.7674 87.66 76.6741 88.16 75.0741 88.16C74.2474 88.16 73.5274 88.02 72.9141 87.74C72.3141 87.46 71.8541 87.0733 71.5341 86.58C71.2141 86.0867 71.0541 85.5267 71.0541 84.9C71.0541 83.9 71.4274 83.1133 72.1741 82.54C72.9341 81.9667 74.1007 81.68 75.6741 81.68H78.1541C78.1541 81 77.9474 80.48 77.5341 80.12C77.1207 79.7467 76.5007 79.56 75.6741 79.56C75.1007 79.56 74.5341 79.6533 73.9741 79.84C73.4274 80.0133 72.9607 80.2533 72.5741 80.56L71.4541 78.38C72.0407 77.9667 72.7407 77.6467 73.5541 77.42C74.3807 77.1933 75.2274 77.08 76.0941 77.08ZM75.8541 86.06C76.3874 86.06 76.8607 85.94 77.2741 85.7C77.6874 85.4467 77.9807 85.08 78.1541 84.6V83.5H76.0141C74.7341 83.5 74.0941 83.92 74.0941 84.76C74.0941 85.16 74.2474 85.48 74.5541 85.72C74.8741 85.9467 75.3074 86.06 75.8541 86.06ZM92.6044 79.8H87.0844V88H83.9844V77.24H92.6044V79.8Z" fill="#161616"/>
</svg>
