<svg width="137" height="137" viewBox="0 0 137 137" fill="none" xmlns="http://www.w3.org/2000/svg">
<path opacity="0.15" d="M137 68.5C137 106.332 106.332 137 68.5 137C30.6685 137 0 106.332 0 68.5C0 30.6685 30.6685 0 68.5 0C106.332 0 137 30.6685 137 68.5ZM3.96786 68.5C3.96786 104.14 32.8599 133.032 68.5 133.032C104.14 133.032 133.032 104.14 133.032 68.5C133.032 32.8599 104.14 3.96786 68.5 3.96786C32.8599 3.96786 3.96786 32.8599 3.96786 68.5Z" fill="#161616"/>
<path d="M124.688 29.3191C117.683 19.2735 108.113 11.2896 96.9746 6.19873C85.8361 1.1079 73.5364 -0.903662 61.3564 0.373509C49.1764 1.65068 37.5615 6.16988 27.7213 13.4605C17.8811 20.7511 10.1753 30.5465 5.40654 41.8267C0.637752 53.1069 -1.01969 65.4592 0.606811 77.5975C2.23331 89.7358 7.08427 101.216 14.6545 110.843C22.2248 120.47 32.2375 127.891 43.65 132.334C55.0625 136.776 67.4574 138.078 79.5439 136.104L78.8985 132.153C67.5183 134.012 55.8478 132.786 45.1022 128.603C34.3567 124.42 24.9291 117.433 17.8012 108.368C10.6734 99.3042 6.10588 88.4948 4.57443 77.0659C3.04298 65.6369 4.60356 54.0064 9.09367 43.3855C13.5838 32.7645 20.8392 23.5415 30.1044 16.677C39.3695 9.8124 50.3056 5.5573 61.7738 4.35476C73.2421 3.15223 84.8229 5.04624 95.3105 9.83956C105.798 14.6329 114.809 22.1502 121.405 31.6088L124.688 29.3191Z" fill="#F5DF4D"/>
<circle opacity="0.15" cx="69" cy="69" r="46" fill="#161616"/>
<path opacity="0.5" d="M64.78 64.24C63.62 64.24 62.5867 63.9533 61.68 63.38C60.7733 62.8067 60.06 61.98 59.54 60.9C59.0333 59.8067 58.78 58.5067 58.78 57C58.78 55.4933 59.0333 54.2 59.54 53.12C60.06 52.0267 60.7733 51.1933 61.68 50.62C62.5867 50.0467 63.62 49.76 64.78 49.76C65.94 49.76 66.9733 50.0467 67.88 50.62C68.7867 51.1933 69.4933 52.0267 70 53.12C70.52 54.2 70.78 55.4933 70.78 57C70.78 58.5067 70.52 59.8067 70 60.9C69.4933 61.98 68.7867 62.8067 67.88 63.38C66.9733 63.9533 65.94 64.24 64.78 64.24ZM64.78 61.5C65.6333 61.5 66.3 61.1333 66.78 60.4C67.2733 59.6667 67.52 58.5333 67.52 57C67.52 55.4667 67.2733 54.3333 66.78 53.6C66.3 52.8667 65.6333 52.5 64.78 52.5C63.94 52.5 63.2733 52.8667 62.78 53.6C62.3 54.3333 62.06 55.4667 62.06 57C62.06 58.5333 62.3 59.6667 62.78 60.4C63.2733 61.1333 63.94 61.5 64.78 61.5ZM78.6989 55.7C79.9256 55.9 80.8656 56.36 81.5189 57.08C82.1722 57.7867 82.4989 58.6667 82.4989 59.72C82.4989 60.5333 82.2856 61.2867 81.8589 61.98C81.4322 62.66 80.7789 63.2067 79.8989 63.62C79.0322 64.0333 77.9656 64.24 76.6989 64.24C75.7122 64.24 74.7389 64.1133 73.7789 63.86C72.8322 63.5933 72.0256 63.22 71.3589 62.74L72.6189 60.26C73.1522 60.66 73.7656 60.9733 74.4589 61.2C75.1656 61.4133 75.8856 61.52 76.6189 61.52C77.4322 61.52 78.0722 61.3667 78.5389 61.06C79.0056 60.74 79.2389 60.2933 79.2389 59.72C79.2389 58.5733 78.3656 58 76.6189 58H75.1389V55.86L78.0189 52.6H72.0589V50H81.8589V52.1L78.6989 55.7Z" fill="#161616"/>
<path d="M68.92 77.24V88H52.5V77.24H55.6V85.44H59.18V77.24H62.28V85.44H65.82V77.24H68.92ZM76.0941 77.08C77.7607 77.08 79.0407 77.48 79.9341 78.28C80.8274 79.0667 81.2741 80.26 81.2741 81.86V88H78.3541V86.66C77.7674 87.66 76.6741 88.16 75.0741 88.16C74.2474 88.16 73.5274 88.02 72.9141 87.74C72.3141 87.46 71.8541 87.0733 71.5341 86.58C71.2141 86.0867 71.0541 85.5267 71.0541 84.9C71.0541 83.9 71.4274 83.1133 72.1741 82.54C72.9341 81.9667 74.1007 81.68 75.6741 81.68H78.1541C78.1541 81 77.9474 80.48 77.5341 80.12C77.1207 79.7467 76.5007 79.56 75.6741 79.56C75.1007 79.56 74.5341 79.6533 73.9741 79.84C73.4274 80.0133 72.9607 80.2533 72.5741 80.56L71.4541 78.38C72.0407 77.9667 72.7407 77.6467 73.5541 77.42C74.3807 77.1933 75.2274 77.08 76.0941 77.08ZM75.8541 86.06C76.3874 86.06 76.8607 85.94 77.2741 85.7C77.6874 85.4467 77.9807 85.08 78.1541 84.6V83.5H76.0141C74.7341 83.5 74.0941 83.92 74.0941 84.76C74.0941 85.16 74.2474 85.48 74.5541 85.72C74.8741 85.9467 75.3074 86.06 75.8541 86.06ZM92.6044 79.8H87.0844V88H83.9844V77.24H92.6044V79.8Z" fill="#161616"/>
</svg>
