<svg width="312" height="20" viewBox="0 0 312 20" fill="none" xmlns="http://www.w3.org/2000/svg">
<path d="M311.354 10.3536C311.549 10.1583 311.549 9.84171 311.354 9.64645L308.172 6.46447C307.976 6.2692 307.66 6.2692 307.464 6.46447C307.269 6.65973 307.269 6.97631 307.464 7.17157L310.293 10L307.464 12.8284C307.269 13.0237 307.269 13.3403 307.464 13.5355C307.66 13.7308 307.976 13.7308 308.172 13.5355L311.354 10.3536ZM210 10.5H311V9.5H210V10.5Z" fill="#161616"/>
<path d="M11.392 4.8V16H9.824V6.192H3.328V16H1.744V4.8H11.392ZM23.0126 14.608V16H14.8846V4.8H22.7886V6.192H16.4846V9.632H22.1006V10.992H16.4846V14.608H23.0126ZM29.8933 4.8C31.3439 4.8 32.4853 5.14667 33.3173 5.84C34.1493 6.53333 34.5653 7.488 34.5653 8.704C34.5653 9.92 34.1493 10.8747 33.3173 11.568C32.4853 12.2613 31.3439 12.608 29.8933 12.608H27.1253V16H25.5253V4.8H29.8933ZM29.8453 11.216C30.8586 11.216 31.6319 11.0027 32.1653 10.576C32.6986 10.1387 32.9653 9.51467 32.9653 8.704C32.9653 7.89333 32.6986 7.27467 32.1653 6.848C31.6319 6.41067 30.8586 6.192 29.8453 6.192H27.1253V11.216H29.8453ZM44.9189 14.608V16H36.7909V4.8H44.6949V6.192H38.3909V9.632H44.0069V10.992H38.3909V14.608H44.9189ZM47.4315 4.8H49.0155V13.44L55.6395 4.8H57.1115V16H55.5435V7.376L48.9035 16H47.4315V4.8ZM52.2475 4.016C51.3728 4.016 50.6955 3.82933 50.2155 3.456C49.7462 3.072 49.5062 2.528 49.4955 1.824H50.6315C50.6422 2.24 50.7862 2.56533 51.0635 2.8C51.3515 3.024 51.7462 3.136 52.2475 3.136C52.7275 3.136 53.1115 3.024 53.3995 2.8C53.6982 2.56533 53.8528 2.24 53.8635 1.824H54.9835C54.9728 2.51733 54.7275 3.056 54.2475 3.44C53.7782 3.824 53.1115 4.016 52.2475 4.016ZM68.2994 6.192H64.4594V16H62.8914V6.192H59.0674V4.8H68.2994V6.192ZM70.244 4.8H71.828V13.44L78.452 4.8H79.924V16H78.356V7.376L71.716 16H70.244V4.8ZM94.6888 10.192C95.4461 10.3733 96.0168 10.6987 96.4008 11.168C96.7954 11.6267 96.9928 12.2187 96.9928 12.944C96.9928 13.9147 96.6354 14.6667 95.9208 15.2C95.2168 15.7333 94.1874 16 92.8328 16H87.7128V4.8H92.5288C93.7554 4.8 94.7101 5.05067 95.3928 5.552C96.0861 6.04267 96.4328 6.752 96.4328 7.68C96.4328 8.288 96.2781 8.80533 95.9688 9.232C95.6701 9.65867 95.2434 9.97867 94.6888 10.192ZM89.2968 9.728H92.4168C93.1954 9.728 93.7874 9.57333 94.1927 9.264C94.6088 8.95467 94.8168 8.50133 94.8168 7.904C94.8168 7.30667 94.6088 6.85333 94.1927 6.544C93.7768 6.224 93.1848 6.064 92.4168 6.064H89.2968V9.728ZM92.8008 14.736C94.5181 14.736 95.3767 14.096 95.3767 12.816C95.3767 12.176 95.1581 11.7067 94.7208 11.408C94.2941 11.0987 93.6541 10.944 92.8008 10.944H89.2968V14.736H92.8008ZM107.867 11.072H105.531V16H103.963V4.8H105.531V9.664H107.899L111.419 4.8H113.131L109.131 10.224L113.323 16H111.499L107.867 11.072ZM122.087 13.2H116.135L114.903 16H113.255L118.327 4.8H119.911L124.999 16H123.319L122.087 13.2ZM121.527 11.92L119.111 6.432L116.695 11.92H121.527ZM134.065 6.192H130.225V16H128.657V6.192H124.833V4.8H134.065V6.192ZM142.727 13.2H136.775L135.543 16H133.895L138.967 4.8H140.551L145.639 16H143.959L142.727 13.2ZM142.167 11.92L139.751 6.432L137.335 11.92H142.167ZM156.771 4.8V16H155.203V6.192H150.243L150.131 9.472C150.078 11.0187 149.95 12.272 149.747 13.232C149.555 14.192 149.246 14.9173 148.819 15.408C148.392 15.888 147.816 16.128 147.091 16.128C146.76 16.128 146.424 16.0853 146.083 16L146.195 14.576C146.366 14.6187 146.536 14.64 146.707 14.64C147.166 14.64 147.534 14.4587 147.811 14.096C148.088 13.7227 148.296 13.168 148.435 12.432C148.574 11.696 148.664 10.7253 148.707 9.52L148.883 4.8H156.771ZM165.3 16.128C164.169 16.128 163.15 15.8827 162.244 15.392C161.337 14.8907 160.622 14.2027 160.1 13.328C159.588 12.4533 159.332 11.4773 159.332 10.4C159.332 9.32267 159.588 8.34667 160.1 7.472C160.622 6.59733 161.337 5.91467 162.244 5.424C163.15 4.92267 164.169 4.672 165.3 4.672C166.42 4.672 167.433 4.92267 168.34 5.424C169.246 5.91467 169.956 6.59733 170.468 7.472C170.98 8.336 171.236 9.312 171.236 10.4C171.236 11.488 170.98 12.4693 170.468 13.344C169.956 14.208 169.246 14.8907 168.34 15.392C167.433 15.8827 166.42 16.128 165.3 16.128ZM165.3 14.704C166.121 14.704 166.857 14.5173 167.508 14.144C168.169 13.7707 168.686 13.2587 169.06 12.608C169.444 11.9467 169.636 11.2107 169.636 10.4C169.636 9.58933 169.444 8.85867 169.06 8.208C168.686 7.54667 168.169 7.02933 167.508 6.656C166.857 6.28267 166.121 6.096 165.3 6.096C164.478 6.096 163.732 6.28267 163.06 6.656C162.398 7.02933 161.876 7.54667 161.492 8.208C161.118 8.85867 160.932 9.58933 160.932 10.4C160.932 11.2107 161.118 11.9467 161.492 12.608C161.876 13.2587 162.398 13.7707 163.06 14.144C163.732 14.5173 164.478 14.704 165.3 14.704ZM181.15 6.192H175.39L175.406 16H173.822V4.8H181.166L181.15 6.192Z" fill="#161616"/>
</svg>
