<svg width="333" height="20" viewBox="0 0 333 20" fill="none" xmlns="http://www.w3.org/2000/svg">
<path d="M332.354 10.3536C332.549 10.1583 332.549 9.84171 332.354 9.64645L329.172 6.46447C328.976 6.2692 328.66 6.2692 328.464 6.46447C328.269 6.65973 328.269 6.97631 328.464 7.17157L331.293 10L328.464 12.8284C328.269 13.0237 328.269 13.3403 328.464 13.5355C328.66 13.7308 328.976 13.7308 329.172 13.5355L332.354 10.3536ZM231 10.5H332V9.5H231V10.5Z" fill="#161616"/>
<path d="M7.73713 16.096C6.62779 16.096 5.62513 15.8507 4.72913 15.36C3.84379 14.8693 3.14513 14.192 2.63313 13.328C2.13179 12.4533 1.88113 11.4773 1.88113 10.4C1.88113 9.32267 2.13179 8.352 2.63313 7.488C3.14513 6.61333 3.84913 5.93067 4.74513 5.44C5.64113 4.94933 6.64379 4.704 7.75313 4.704C8.58513 4.704 9.35313 4.84267 10.0571 5.12C10.7611 5.39733 11.3585 5.80267 11.8491 6.336L11.0971 7.088C10.2225 6.20267 9.11846 5.76 7.78513 5.76C6.89979 5.76 6.09446 5.96267 5.36913 6.368C4.64379 6.77333 4.07313 7.328 3.65713 8.032C3.25179 8.736 3.04913 9.52533 3.04913 10.4C3.04913 11.2747 3.25179 12.064 3.65713 12.768C4.07313 13.472 4.64379 14.0267 5.36913 14.432C6.09446 14.8373 6.89979 15.04 7.78513 15.04C9.12913 15.04 10.2331 14.592 11.0971 13.696L11.8491 14.448C11.3585 14.9813 10.7558 15.392 10.0411 15.68C9.33713 15.9573 8.56913 16.096 7.73713 16.096ZM25.9263 4.8V16H24.7903V7.04L20.3903 14.576H19.8303L15.4303 7.088V16H14.2943V4.8H15.2703L20.1343 13.104L24.9503 4.8H25.9263ZM34.6125 16.096C33.5032 16.096 32.4952 15.8507 31.5885 15.36C30.6925 14.8587 29.9885 14.176 29.4765 13.312C28.9752 12.448 28.7245 11.4773 28.7245 10.4C28.7245 9.32267 28.9752 8.352 29.4765 7.488C29.9885 6.624 30.6925 5.94667 31.5885 5.456C32.4952 4.95467 33.5032 4.704 34.6125 4.704C35.7218 4.704 36.7192 4.94933 37.6045 5.44C38.5005 5.93067 39.2045 6.61333 39.7165 7.488C40.2285 8.352 40.4845 9.32267 40.4845 10.4C40.4845 11.4773 40.2285 12.4533 39.7165 13.328C39.2045 14.192 38.5005 14.8693 37.6045 15.36C36.7192 15.8507 35.7218 16.096 34.6125 16.096ZM34.6125 15.04C35.4978 15.04 36.2978 14.8427 37.0125 14.448C37.7272 14.0427 38.2872 13.488 38.6925 12.784C39.0978 12.0693 39.3005 11.2747 39.3005 10.4C39.3005 9.52533 39.0978 8.736 38.6925 8.032C38.2872 7.31733 37.7272 6.76267 37.0125 6.368C36.2978 5.96267 35.4978 5.76 34.6125 5.76C33.7272 5.76 32.9218 5.96267 32.1965 6.368C31.4818 6.76267 30.9165 7.31733 30.5005 8.032C30.0952 8.736 29.8925 9.52533 29.8925 10.4C29.8925 11.2747 30.0952 12.0693 30.5005 12.784C30.9165 13.488 31.4818 14.0427 32.1965 14.448C32.9218 14.8427 33.7272 15.04 34.6125 15.04ZM50.4816 5.824H46.5456V16H45.3776V5.824H41.4416V4.8H50.4816V5.824ZM56.7519 4.8C58.1812 4.8 59.3012 5.14133 60.1119 5.824C60.9225 6.50667 61.3279 7.44533 61.3279 8.64C61.3279 9.83467 60.9225 10.7733 60.1119 11.456C59.3012 12.128 58.1812 12.464 56.7519 12.464H53.7439V16H52.5599V4.8H56.7519ZM56.7199 11.424C57.8292 11.424 58.6772 11.184 59.2639 10.704C59.8505 10.2133 60.1439 9.52533 60.1439 8.64C60.1439 7.73333 59.8505 7.04 59.2639 6.56C58.6772 6.06933 57.8292 5.824 56.7199 5.824H53.7439V11.424H56.7199ZM71.683 14.976V16H63.763V4.8H71.443V5.824H64.947V9.808H70.739V10.816H64.947V14.976H71.683ZM81.6379 5.824H77.7019V16H76.5339V5.824H72.5979V4.8H81.6379V5.824ZM88.4041 8.8C89.7268 8.8 90.7348 9.09867 91.4281 9.696C92.1321 10.2933 92.4841 11.168 92.4841 12.32C92.4841 13.5253 92.1108 14.4427 91.3641 15.072C90.6281 15.6907 89.5615 16 88.1641 16H83.7161V4.8H84.8841V8.8H88.4041ZM88.1321 15.056C89.1668 15.056 89.9508 14.8267 90.4841 14.368C91.0281 13.9093 91.3001 13.232 91.3001 12.336C91.3001 10.6187 90.2441 9.76 88.1321 9.76H84.8841V15.056H88.1321ZM105.903 10.224C106.682 10.384 107.274 10.6987 107.679 11.168C108.084 11.6267 108.287 12.2293 108.287 12.976C108.287 13.9467 107.94 14.6933 107.247 15.216C106.564 15.7387 105.556 16 104.223 16H99.263V4.8H103.919C105.114 4.8 106.047 5.04533 106.719 5.536C107.391 6.02667 107.727 6.736 107.727 7.664C107.727 8.29333 107.567 8.82667 107.247 9.264C106.927 9.69067 106.479 10.0107 105.903 10.224ZM100.431 9.872H103.855C104.719 9.872 105.38 9.696 105.839 9.344C106.308 8.992 106.543 8.48 106.543 7.808C106.543 7.136 106.308 6.624 105.839 6.272C105.38 5.92 104.719 5.744 103.855 5.744H100.431V9.872ZM104.223 15.056C106.154 15.056 107.119 14.336 107.119 12.896C107.119 11.488 106.154 10.784 104.223 10.784H100.431V15.056H104.223ZM116.143 16.096C115.034 16.096 114.031 15.8507 113.135 15.36C112.25 14.8693 111.551 14.192 111.039 13.328C110.538 12.4533 110.287 11.4773 110.287 10.4C110.287 9.32267 110.538 8.352 111.039 7.488C111.551 6.61333 112.255 5.93067 113.151 5.44C114.047 4.94933 115.05 4.704 116.159 4.704C116.991 4.704 117.759 4.84267 118.463 5.12C119.167 5.39733 119.765 5.80267 120.255 6.336L119.503 7.088C118.629 6.20267 117.525 5.76 116.191 5.76C115.306 5.76 114.501 5.96267 113.775 6.368C113.05 6.77333 112.479 7.328 112.063 8.032C111.658 8.736 111.455 9.52533 111.455 10.4C111.455 11.2747 111.658 12.064 112.063 12.768C112.479 13.472 113.05 14.0267 113.775 14.432C114.501 14.8373 115.306 15.04 116.191 15.04C117.535 15.04 118.639 14.592 119.503 13.696L120.255 14.448C119.765 14.9813 119.162 15.392 118.447 15.68C117.743 15.9573 116.975 16.096 116.143 16.096ZM130.621 14.976V16H122.701V4.8H130.381V5.824H123.885V9.808H129.677V10.816H123.885V14.976H130.621ZM142.331 16.096C141.222 16.096 140.219 15.8507 139.323 15.36C138.438 14.8693 137.739 14.192 137.227 13.328C136.726 12.4533 136.475 11.4773 136.475 10.4C136.475 9.32267 136.726 8.352 137.227 7.488C137.739 6.61333 138.443 5.93067 139.339 5.44C140.235 4.94933 141.238 4.704 142.347 4.704C143.179 4.704 143.947 4.84267 144.651 5.12C145.355 5.39733 145.952 5.80267 146.443 6.336L145.691 7.088C144.816 6.20267 143.712 5.76 142.379 5.76C141.494 5.76 140.688 5.96267 139.963 6.368C139.238 6.77333 138.667 7.328 138.251 8.032C137.846 8.736 137.643 9.52533 137.643 10.4C137.643 11.2747 137.846 12.064 138.251 12.768C138.667 13.472 139.238 14.0267 139.963 14.432C140.688 14.8373 141.494 15.04 142.379 15.04C143.723 15.04 144.827 14.592 145.691 13.696L146.443 14.448C145.952 14.9813 145.35 15.392 144.635 15.68C143.931 15.9573 143.163 16.096 142.331 16.096ZM156.075 5.824H152.139V16H150.971V5.824H147.035V4.8H156.075V5.824ZM164.759 13.008H158.519L157.175 16H155.943L161.063 4.8H162.231L167.351 16H166.103L164.759 13.008ZM164.327 12.048L161.639 6.032L158.951 12.048H164.327ZM176.263 5.824H172.327V16H171.159V5.824H167.223V4.8H176.263V5.824ZM183.029 8.8C184.352 8.8 185.36 9.09867 186.053 9.696C186.757 10.2933 187.109 11.168 187.109 12.32C187.109 13.5253 186.736 14.4427 185.989 15.072C185.253 15.6907 184.186 16 182.789 16H178.341V4.8H179.509V8.8H183.029ZM182.757 15.056C183.792 15.056 184.576 14.8267 185.109 14.368C185.653 13.9093 185.925 13.232 185.925 12.336C185.925 10.6187 184.869 9.76 182.757 9.76H179.509V15.056H182.757ZM189.701 4.8H190.869V14.08L198.037 4.8H199.109V16H197.941V6.736L190.773 16H189.701V4.8Z" fill="#161616"/>
</svg>
