<svg width="768" height="278" fill="none" xmlns="http://www.w3.org/2000/svg"><path d="M249.595 216.948h-43.843v56.444h-60.764v-56.444H0v-41.854L126.913 4.608h65.379L74.609 166.262h72.302v-50.301h58.841v50.301h43.843v50.686zM383.604 278c-22.306 0-42.176-5.504-59.61-16.511-17.435-11.007-31.152-26.879-41.151-47.613-9.743-20.991-14.614-45.95-14.614-74.876 0-28.926 4.871-53.757 14.614-74.492 9.999-20.99 23.716-36.99 41.151-47.997C341.428 5.504 361.298 0 383.604 0c22.306 0 42.176 5.504 59.61 16.511 17.435 11.007 31.023 27.006 40.766 47.997 9.999 20.735 14.999 45.566 14.999 74.492 0 28.926-5 53.885-14.999 74.876-9.743 20.734-23.331 36.606-40.766 47.613C425.78 272.496 405.91 278 383.604 278zm0-52.605c16.409 0 29.228-7.04 38.458-21.119 9.487-14.079 14.23-35.838 14.23-65.276 0-29.438-4.743-51.197-14.23-65.276-9.23-14.08-22.049-21.119-38.458-21.119-16.153 0-28.972 7.04-38.458 21.119-9.23 14.079-13.845 35.838-13.845 65.276 0 29.438 4.615 51.197 13.845 65.276 9.486 14.079 22.305 21.119 38.458 21.119zm383.991-8.447h-43.843v56.444h-60.764v-56.444H518v-41.854L644.913 4.608h65.379L592.609 166.262h72.302v-50.301h58.841v50.301h43.843v50.686z" fill="#161616"/></svg>