<svg width="137" height="137" fill="none" xmlns="http://www.w3.org/2000/svg"><path opacity=".15" d="M137 68.5c0 37.832-30.668 68.5-68.5 68.5C30.669 137 0 106.332 0 68.5 0 30.669 30.669 0 68.5 0 106.332 0 137 30.669 137 68.5zm-133.032 0c0 35.64 28.892 64.532 64.532 64.532s64.532-28.892 64.532-64.532S104.14 3.968 68.5 3.968 3.968 32.86 3.968 68.5z" fill="#161616"/><path d="M68.5 137a68.5 68.5 0 010-137v4.003a64.497 64.497 0 000 128.994V137z" fill="#F5DF4D"/><circle opacity=".15" cx="69" cy="69" r="46" fill="#161616"/><path opacity=".5" d="M64.78 64.24c-1.16 0-2.193-.287-3.1-.86s-1.62-1.4-2.14-2.48c-.507-1.093-.76-2.393-.76-3.9 0-1.507.253-2.8.76-3.88.52-1.093 1.233-1.927 2.14-2.5s1.94-.86 3.1-.86c1.16 0 2.193.287 3.1.86s1.613 1.407 2.12 2.5c.52 1.08.78 2.373.78 3.88 0 1.507-.26 2.807-.78 3.9-.507 1.08-1.213 1.907-2.12 2.48s-1.94.86-3.1.86zm0-2.74c.853 0 1.52-.367 2-1.1.493-.733.74-1.867.74-3.4s-.247-2.667-.74-3.4c-.48-.733-1.147-1.1-2-1.1-.84 0-1.507.367-2 1.1-.48.733-.72 1.867-.72 3.4s.24 2.667.72 3.4c.493.733 1.16 1.1 2 1.1zm17.917-.14V64h-10.58v-2.1l5.4-5.1c.573-.547.96-1.013 1.16-1.4.2-.4.3-.793.3-1.18 0-.56-.193-.987-.58-1.28-.373-.307-.927-.46-1.66-.46-.613 0-1.167.12-1.66.36a3.099 3.099 0 00-1.24 1.04l-2.36-1.52c.547-.813 1.3-1.447 2.26-1.9.96-.467 2.06-.7 3.3-.7 1.04 0 1.947.173 2.72.52.787.333 1.393.813 1.82 1.44.44.613.66 1.34.66 2.18 0 .76-.16 1.473-.48 2.14-.32.667-.94 1.427-1.86 2.28l-3.22 3.04h6.02z" fill="#161616"/><path d="M68.92 77.24V88H52.5V77.24h3.1v8.2h3.58v-8.2h3.1v8.2h3.54v-8.2h3.1zm7.174-.16c1.667 0 2.947.4 3.84 1.2.893.787 1.34 1.98 1.34 3.58V88h-2.92v-1.34c-.587 1-1.68 1.5-3.28 1.5-.827 0-1.547-.14-2.16-.42-.6-.28-1.06-.667-1.38-1.16a3.019 3.019 0 01-.48-1.68c0-1 .373-1.787 1.12-2.36.76-.573 1.927-.86 3.5-.86h2.48c0-.68-.207-1.2-.62-1.56-.413-.373-1.033-.56-1.86-.56-.573 0-1.14.093-1.7.28a4.336 4.336 0 00-1.4.72l-1.12-2.18c.587-.413 1.287-.733 2.1-.96a9.56 9.56 0 012.54-.34zm-.24 8.98c.533 0 1.007-.12 1.42-.36a2.07 2.07 0 00.88-1.1v-1.1h-2.14c-1.28 0-1.92.42-1.92 1.26 0 .4.153.72.46.96.32.227.753.34 1.3.34zm16.75-6.26h-5.52V88h-3.1V77.24h8.62v2.56z" fill="#161616"/></svg>