<svg width="137" height="137" fill="none" xmlns="http://www.w3.org/2000/svg"><path opacity=".15" d="M137 68.5c0 37.832-30.668 68.5-68.5 68.5C30.669 137 0 106.332 0 68.5 0 30.669 30.669 0 68.5 0 106.332 0 137 30.669 137 68.5zm-133.032 0c0 35.64 28.892 64.532 64.532 64.532s64.532-28.892 64.532-64.532S104.14 3.968 68.5 3.968 3.968 32.86 3.968 68.5z" fill="#161616"/><path d="M124.688 29.32a68.501 68.501 0 10-45.144 106.784l-.645-3.951A64.5 64.5 0 014.573 77.066a64.497 64.497 0 01116.831-45.457l3.283-2.29z" fill="#F5DF4D"/><circle opacity=".15" cx="69" cy="69" r="46" fill="#161616"/><path opacity=".5" d="M64.78 64.24c-1.16 0-2.193-.287-3.1-.86s-1.62-1.4-2.14-2.48c-.507-1.093-.76-2.393-.76-3.9 0-1.507.253-2.8.76-3.88.52-1.093 1.233-1.927 2.14-2.5s1.94-.86 3.1-.86c1.16 0 2.193.287 3.1.86s1.613 1.407 2.12 2.5c.52 1.08.78 2.373.78 3.88 0 1.507-.26 2.807-.78 3.9-.507 1.08-1.213 1.907-2.12 2.48s-1.94.86-3.1.86zm0-2.74c.853 0 1.52-.367 2-1.1.493-.733.74-1.867.74-3.4s-.247-2.667-.74-3.4c-.48-.733-1.147-1.1-2-1.1-.84 0-1.507.367-2 1.1-.48.733-.72 1.867-.72 3.4s.24 2.667.72 3.4c.493.733 1.16 1.1 2 1.1zm13.919-5.8c1.227.2 2.167.66 2.82 1.38.653.707.98 1.587.98 2.64a4.23 4.23 0 01-.64 2.26c-.427.68-1.08 1.227-1.96 1.64-.867.413-1.933.62-3.2.62-.987 0-1.96-.127-2.92-.38-.947-.267-1.753-.64-2.42-1.12l1.26-2.48c.533.4 1.147.713 1.84.94a7.45 7.45 0 002.16.32c.813 0 1.453-.153 1.92-.46.467-.32.7-.767.7-1.34 0-1.147-.873-1.72-2.62-1.72h-1.48v-2.14l2.88-3.26h-5.96V50h9.8v2.1l-3.16 3.6z" fill="#161616"/><path d="M68.92 77.24V88H52.5V77.24h3.1v8.2h3.58v-8.2h3.1v8.2h3.54v-8.2h3.1zm7.174-.16c1.667 0 2.947.4 3.84 1.2.893.787 1.34 1.98 1.34 3.58V88h-2.92v-1.34c-.587 1-1.68 1.5-3.28 1.5-.827 0-1.547-.14-2.16-.42-.6-.28-1.06-.667-1.38-1.16a3.019 3.019 0 01-.48-1.68c0-1 .373-1.787 1.12-2.36.76-.573 1.927-.86 3.5-.86h2.48c0-.68-.207-1.2-.62-1.56-.413-.373-1.033-.56-1.86-.56-.573 0-1.14.093-1.7.28a4.336 4.336 0 00-1.4.72l-1.12-2.18c.587-.413 1.287-.733 2.1-.96a9.56 9.56 0 012.54-.34zm-.24 8.98c.533 0 1.007-.12 1.42-.36a2.07 2.07 0 00.88-1.1v-1.1h-2.14c-1.28 0-1.92.42-1.92 1.26 0 .4.153.72.46.96.32.227.753.34 1.3.34zm16.75-6.26h-5.52V88h-3.1V77.24h8.62v2.56z" fill="#161616"/></svg>