<svg width="312" height="20" fill="none" xmlns="http://www.w3.org/2000/svg"><path d="M311.354 10.354a.5.5 0 000-.708l-3.182-3.182a.501.501 0 00-.708.708L310.293 10l-2.829 2.828a.5.5 0 00.708.708l3.182-3.182zM210 10.5h101v-1H210v1zM11.392 4.8V16H9.824V6.192H3.328V16H1.744V4.8h9.648zm11.62 9.808V16h-8.127V4.8h7.904v1.392h-6.304v3.44H22.1v1.36h-5.616v3.616h6.528zM29.894 4.8c1.45 0 2.592.347 3.424 1.04.832.693 1.248 1.648 1.248 2.864s-.416 2.17-1.248 2.864c-.832.693-1.973 1.04-3.424 1.04h-2.768V16h-1.6V4.8h4.368zm-.048 6.416c1.014 0 1.787-.213 2.32-.64.534-.437.8-1.061.8-1.872 0-.81-.266-1.43-.8-1.856-.533-.437-1.306-.656-2.32-.656h-2.72v5.024h2.72zm15.074 3.392V16h-8.13V4.8h7.904v1.392H38.39v3.44h5.616v1.36H38.39v3.616h6.528zM47.432 4.8h1.584v8.64l6.623-8.64h1.472V16h-1.567V7.376L48.904 16H47.43V4.8zm4.816-.784c-.875 0-1.552-.187-2.032-.56-.47-.384-.71-.928-.72-1.632h1.136c.01.416.154.741.431.976.288.224.683.336 1.184.336.48 0 .864-.112 1.153-.336.298-.235.453-.56.464-.976h1.12c-.011.693-.257 1.232-.736 1.616-.47.384-1.136.576-2 .576zm16.051 2.176h-3.84V16h-1.568V6.192h-3.824V4.8H68.3v1.392zM70.244 4.8h1.584v8.64l6.624-8.64h1.472V16h-1.568V7.376L71.716 16h-1.472V4.8zm24.445 5.392c.757.181 1.328.507 1.712.976.394.459.592 1.05.592 1.776 0 .97-.358 1.723-1.072 2.256-.704.533-1.734.8-3.088.8h-5.12V4.8h4.816c1.226 0 2.181.25 2.864.752.693.49 1.04 1.2 1.04 2.128 0 .608-.155 1.125-.464 1.552-.299.427-.726.747-1.28.96zm-5.392-.464h3.12c.778 0 1.37-.155 1.776-.464.416-.31.624-.763.624-1.36 0-.597-.208-1.05-.624-1.36-.416-.32-1.008-.48-1.776-.48h-3.12v3.664zm3.504 5.008c1.717 0 2.576-.64 2.576-1.92 0-.64-.219-1.11-.656-1.408-.427-.31-1.067-.464-1.92-.464h-3.504v3.792H92.8zm15.066-3.664h-2.336V16h-1.568V4.8h1.568v4.864h2.368l3.52-4.864h1.712l-4 5.424L113.323 16h-1.824l-3.632-4.928zm14.22 2.128h-5.952l-1.232 2.8h-1.648l5.072-11.2h1.584l5.088 11.2h-1.68l-1.232-2.8zm-.56-1.28l-2.416-5.488-2.416 5.488h4.832zm12.538-5.728h-3.84V16h-1.568V6.192h-3.824V4.8h9.232v1.392zm8.662 7.008h-5.952l-1.232 2.8h-1.648l5.072-11.2h1.584l5.088 11.2h-1.68l-1.232-2.8zm-.56-1.28l-2.416-5.488-2.416 5.488h4.832zm14.604-7.12V16h-1.568V6.192h-4.96l-.112 3.28c-.053 1.547-.181 2.8-.384 3.76-.192.96-.501 1.685-.928 2.176-.427.48-1.003.72-1.728.72-.331 0-.667-.043-1.008-.128l.112-1.424c.171.043.341.064.512.064a1.32 1.32 0 001.104-.544c.277-.373.485-.928.624-1.664.139-.736.229-1.707.272-2.912l.176-4.72h7.888zm8.529 11.328c-1.131 0-2.15-.245-3.056-.736a5.608 5.608 0 01-2.144-2.064c-.512-.875-.768-1.85-.768-2.928 0-1.077.256-2.053.768-2.928a5.492 5.492 0 012.144-2.048c.906-.501 1.925-.752 3.056-.752 1.12 0 2.133.25 3.04.752a5.39 5.39 0 012.128 2.048c.512.864.768 1.84.768 2.928 0 1.088-.256 2.07-.768 2.944a5.54 5.54 0 01-2.128 2.048c-.907.49-1.92.736-3.04.736zm0-1.424c.821 0 1.557-.187 2.208-.56a4.058 4.058 0 001.552-1.536 4.317 4.317 0 00.576-2.208c0-.81-.192-1.541-.576-2.192a4.026 4.026 0 00-1.552-1.552c-.651-.373-1.387-.56-2.208-.56-.822 0-1.568.187-2.24.56a4.129 4.129 0 00-1.568 1.552c-.374.65-.56 1.381-.56 2.192 0 .81.186 1.547.56 2.208.384.65.906 1.163 1.568 1.536.672.373 1.418.56 2.24.56zm15.85-8.512h-5.76l.016 9.808h-1.584V4.8h7.344l-.016 1.392z" fill="#161616"/></svg>