<svg width="333" height="20" fill="none" xmlns="http://www.w3.org/2000/svg"><path d="M332.354 10.354a.5.5 0 000-.708l-3.182-3.182a.501.501 0 00-.708.708L331.293 10l-2.829 2.828a.5.5 0 00.708.708l3.182-3.182zM231 10.5h101v-1H231v1zM7.737 16.096c-1.11 0-2.112-.245-3.008-.736a5.48 5.48 0 01-2.096-2.032c-.501-.875-.752-1.85-.752-2.928 0-1.077.25-2.048.752-2.912A5.415 5.415 0 014.745 5.44c.896-.49 1.899-.736 3.008-.736.832 0 1.6.139 2.304.416a4.775 4.775 0 011.792 1.216l-.752.752c-.874-.885-1.979-1.328-3.312-1.328-.885 0-1.69.203-2.416.608a4.501 4.501 0 00-1.712 1.664c-.405.704-.608 1.493-.608 2.368 0 .875.203 1.664.608 2.368a4.501 4.501 0 001.712 1.664c.725.405 1.53.608 2.416.608 1.344 0 2.448-.448 3.312-1.344l.752.752a4.912 4.912 0 01-1.808 1.232 6.232 6.232 0 01-2.304.416zM25.927 4.8V16H24.79V7.04l-4.4 7.536h-.56l-4.4-7.488V16h-1.136V4.8h.976l4.864 8.304L24.95 4.8h.976zm8.685 11.296c-1.109 0-2.117-.245-3.024-.736a5.566 5.566 0 01-2.111-2.048c-.502-.864-.753-1.835-.753-2.912s.251-2.048.753-2.912a5.45 5.45 0 012.111-2.032c.907-.501 1.915-.752 3.024-.752 1.11 0 2.107.245 2.992.736a5.41 5.41 0 012.113 2.048c.511.864.767 1.835.767 2.912s-.256 2.053-.767 2.928a5.45 5.45 0 01-2.112 2.032c-.886.49-1.883.736-2.992.736zm0-1.056c.886 0 1.686-.197 2.4-.592a4.415 4.415 0 001.68-1.664c.406-.715.608-1.51.608-2.384 0-.875-.202-1.664-.607-2.368a4.27 4.27 0 00-1.68-1.664c-.715-.405-1.515-.608-2.4-.608-.886 0-1.691.203-2.416.608-.715.395-1.28.95-1.697 1.664-.405.704-.608 1.493-.608 2.368 0 .875.203 1.67.608 2.384a4.534 4.534 0 001.697 1.664c.725.395 1.53.592 2.415.592zm15.87-9.216h-3.936V16h-1.168V5.824h-3.936V4.8h9.04v1.024zm6.27-1.024c1.43 0 2.55.341 3.36 1.024s1.216 1.621 1.216 2.816c0 1.195-.406 2.133-1.216 2.816-.81.672-1.93 1.008-3.36 1.008h-3.008V16H52.56V4.8h4.192zm-.032 6.624c1.11 0 1.957-.24 2.544-.72.586-.49.88-1.179.88-2.064 0-.907-.294-1.6-.88-2.08-.587-.49-1.435-.736-2.544-.736h-2.976v5.6h2.976zm14.963 3.552V16h-7.92V4.8h7.68v1.024h-6.496v3.984h5.792v1.008h-5.792v4.16h6.736zm9.955-9.152h-3.936V16h-1.168V5.824h-3.936V4.8h9.04v1.024zM88.404 8.8c1.323 0 2.33.299 3.024.896.704.597 1.056 1.472 1.056 2.624 0 1.205-.373 2.123-1.12 2.752-.736.619-1.803.928-3.2.928h-4.448V4.8h1.168v4h3.52zm-.272 6.256c1.035 0 1.819-.23 2.352-.688.544-.459.816-1.136.816-2.032 0-1.717-1.056-2.576-3.168-2.576h-3.248v5.296h3.248zm17.771-4.832c.779.16 1.371.475 1.776.944.405.459.608 1.061.608 1.808 0 .97-.347 1.717-1.04 2.24-.683.523-1.691.784-3.024.784h-4.96V4.8h4.656c1.195 0 2.128.245 2.8.736.672.49 1.008 1.2 1.008 2.128 0 .63-.16 1.163-.48 1.6-.32.427-.768.747-1.344.96zm-5.472-.352h3.424c.864 0 1.525-.176 1.984-.528.469-.352.704-.864.704-1.536s-.235-1.184-.704-1.536c-.459-.352-1.12-.528-1.984-.528h-3.424v4.128zm3.792 5.184c1.931 0 2.896-.72 2.896-2.16 0-1.408-.965-2.112-2.896-2.112h-3.792v4.272h3.792zm11.92 1.04c-1.109 0-2.112-.245-3.008-.736a5.483 5.483 0 01-2.096-2.032c-.501-.875-.752-1.85-.752-2.928 0-1.077.251-2.048.752-2.912a5.415 5.415 0 012.112-2.048c.896-.49 1.899-.736 3.008-.736.832 0 1.6.139 2.304.416a4.77 4.77 0 011.792 1.216l-.752.752c-.874-.885-1.978-1.328-3.312-1.328a4.87 4.87 0 00-2.416.608 4.504 4.504 0 00-1.712 1.664c-.405.704-.608 1.493-.608 2.368 0 .875.203 1.664.608 2.368a4.503 4.503 0 001.712 1.664 4.87 4.87 0 002.416.608c1.344 0 2.448-.448 3.312-1.344l.752.752a4.904 4.904 0 01-1.808 1.232 6.232 6.232 0 01-2.304.416zm14.478-1.12V16h-7.92V4.8h7.68v1.024h-6.496v3.984h5.792v1.008h-5.792v4.16h6.736zm11.71 1.12c-1.109 0-2.112-.245-3.008-.736a5.483 5.483 0 01-2.096-2.032c-.501-.875-.752-1.85-.752-2.928 0-1.077.251-2.048.752-2.912a5.415 5.415 0 012.112-2.048c.896-.49 1.899-.736 3.008-.736.832 0 1.6.139 2.304.416a4.778 4.778 0 011.792 1.216l-.752.752c-.875-.885-1.979-1.328-3.312-1.328-.885 0-1.691.203-2.416.608a4.504 4.504 0 00-1.712 1.664c-.405.704-.608 1.493-.608 2.368 0 .875.203 1.664.608 2.368a4.503 4.503 0 001.712 1.664c.725.405 1.531.608 2.416.608 1.344 0 2.448-.448 3.312-1.344l.752.752a4.912 4.912 0 01-1.808 1.232 6.232 6.232 0 01-2.304.416zm13.744-10.272h-3.936V16h-1.168V5.824h-3.936V4.8h9.04v1.024zm8.684 7.184h-6.24L157.175 16h-1.232l5.12-11.2h1.168l5.12 11.2h-1.248l-1.344-2.992zm-.432-.96l-2.688-6.016-2.688 6.016h5.376zm11.936-6.224h-3.936V16h-1.168V5.824h-3.936V4.8h9.04v1.024zm6.766 2.976c1.323 0 2.331.299 3.024.896.704.597 1.056 1.472 1.056 2.624 0 1.205-.373 2.123-1.12 2.752-.736.619-1.803.928-3.2.928h-4.448V4.8h1.168v4h3.52zm-.272 6.256c1.035 0 1.819-.23 2.352-.688.544-.459.816-1.136.816-2.032 0-1.717-1.056-2.576-3.168-2.576h-3.248v5.296h3.248zM189.701 4.8h1.168v9.28l7.168-9.28h1.072V16h-1.168V6.736L190.773 16h-1.072V4.8z" fill="#161616"/></svg>