<svg width="291" height="92" viewBox="0 0 291 92" fill="none" xmlns="http://www.w3.org/2000/svg">
<path d="M38.6561 0V89.6003H17.92V16.64H0V0H38.6561Z" fill="#161616"/>
<path d="M84.9412 33.6641C97.5706 33.6641 106.872 36.1814 112.845 41.2161C118.904 46.2508 121.933 52.9922 121.933 61.4402C121.933 66.9015 120.568 71.8935 117.837 76.4162C115.107 80.8536 110.925 84.4376 105.293 87.1682C99.7466 89.8136 92.8773 91.1363 84.6852 91.1363C78.3705 91.1363 72.1412 90.3256 65.9972 88.7043C59.9385 86.9976 54.7758 84.6082 50.5091 81.5362L58.7012 65.6642C62.1145 68.2242 66.0398 70.2295 70.4772 71.6802C74.9145 73.0455 79.4799 73.7282 84.1732 73.7282C89.3786 73.7282 93.4746 72.7042 96.4613 70.6562C99.4479 68.6082 100.941 65.7495 100.941 62.0802C100.941 58.2402 99.3626 55.3388 96.2053 53.3761C93.1333 51.4135 87.7572 50.4321 80.0772 50.4321H57.1652L61.7732 0H116.429V16.64H79.0532L77.6452 33.6641H84.9412Z" fill="#161616"/>
<path d="M153.926 17.6569V34.489H151.654V19.6729H143.59L143.366 23.8329C143.195 27.3316 142.79 30.0196 142.15 31.897C141.51 33.7743 140.368 34.713 138.726 34.713C138.278 34.713 137.734 34.6276 137.094 34.457L137.254 32.505C137.638 32.5903 137.904 32.633 138.054 32.633C138.928 32.633 139.59 32.2276 140.038 31.417C140.486 30.6063 140.784 29.6036 140.934 28.409C141.083 27.2143 141.211 25.6356 141.318 23.6729L141.606 17.6569H153.926Z" fill="#161616"/>
<path d="M175.105 26.777H161.025C161.153 28.5263 161.825 29.945 163.041 31.033C164.257 32.0996 165.793 32.633 167.649 32.633C168.694 32.633 169.654 32.4516 170.529 32.089C171.403 31.705 172.161 31.1503 172.801 30.425L174.081 31.897C173.334 32.793 172.395 33.4756 171.265 33.945C170.155 34.4143 168.929 34.649 167.585 34.649C165.857 34.649 164.321 34.2863 162.977 33.561C161.654 32.8143 160.619 31.7903 159.873 30.489C159.126 29.1876 158.753 27.7156 158.753 26.073C158.753 24.4303 159.105 22.9583 159.809 21.6569C160.534 20.3556 161.515 19.3423 162.753 18.6169C164.011 17.8916 165.419 17.5289 166.977 17.5289C168.534 17.5289 169.931 17.8916 171.169 18.6169C172.406 19.3423 173.377 20.3556 174.081 21.6569C174.785 22.9369 175.137 24.409 175.137 26.073L175.105 26.777ZM166.977 19.4809C165.355 19.4809 163.99 20.0036 162.881 21.0489C161.793 22.0729 161.174 23.4169 161.025 25.081H172.961C172.811 23.4169 172.182 22.0729 171.073 21.0489C169.985 20.0036 168.619 19.4809 166.977 19.4809Z" fill="#161616"/>
<path d="M191.256 19.6729H184.888V34.489H182.616V19.6729H176.248V17.6569H191.256V19.6729Z" fill="#161616"/>
<path d="M140.166 56.7682H142.438V64.2242H153.03V56.7682H155.302V73.6002H153.03V66.1762H142.438V73.6002H140.166V56.7682Z" fill="#161616"/>
<path d="M167.552 56.6402C169.749 56.6402 171.434 57.1948 172.608 58.3042C173.781 59.3922 174.368 61.0135 174.368 63.1682V73.6002H172.192V70.9762C171.68 71.8509 170.922 72.5335 169.92 73.0242C168.938 73.5149 167.765 73.7602 166.4 73.7602C164.522 73.7602 163.029 73.3122 161.92 72.4162C160.81 71.5202 160.256 70.3362 160.256 68.8642C160.256 67.4348 160.768 66.2828 161.792 65.4082C162.837 64.5335 164.49 64.0962 166.752 64.0962H172.096V63.0722C172.096 61.6215 171.69 60.5228 170.88 59.7762C170.069 59.0082 168.885 58.6242 167.328 58.6242C166.261 58.6242 165.237 58.8055 164.256 59.1682C163.274 59.5095 162.432 59.9895 161.728 60.6082L160.704 58.9122C161.557 58.1868 162.581 57.6322 163.776 57.2482C164.97 56.8428 166.229 56.6402 167.552 56.6402ZM166.752 71.9682C168.032 71.9682 169.13 71.6802 170.048 71.1042C170.965 70.5069 171.648 69.6535 172.096 68.5442V65.7922H166.816C163.936 65.7922 162.496 66.7948 162.496 68.8002C162.496 69.7815 162.869 70.5602 163.616 71.1362C164.362 71.6909 165.408 71.9682 166.752 71.9682Z" fill="#161616"/>
<path d="M197.463 56.6402C199.042 56.6402 200.471 57.0028 201.751 57.7282C203.031 58.4322 204.034 59.4348 204.759 60.7362C205.484 62.0375 205.847 63.5202 205.847 65.1842C205.847 66.8695 205.484 68.3629 204.759 69.6642C204.034 70.9655 203.031 71.9789 201.751 72.7042C200.492 73.4082 199.063 73.7602 197.463 73.7602C196.098 73.7602 194.86 73.4829 193.751 72.9282C192.663 72.3522 191.767 71.5202 191.063 70.4322V79.8082H188.791V56.7682H190.967V60.0962C191.65 58.9868 192.546 58.1335 193.655 57.5362C194.786 56.9388 196.055 56.6402 197.463 56.6402ZM197.303 71.7442C198.476 71.7442 199.543 71.4775 200.503 70.9442C201.463 70.3895 202.21 69.6109 202.743 68.6082C203.298 67.6055 203.575 66.4642 203.575 65.1842C203.575 63.9042 203.298 62.7735 202.743 61.7922C202.21 60.7895 201.463 60.0108 200.503 59.4562C199.543 58.9015 198.476 58.6242 197.303 58.6242C196.108 58.6242 195.031 58.9015 194.071 59.4562C193.132 60.0108 192.386 60.7895 191.831 61.7922C191.298 62.7735 191.031 63.9042 191.031 65.1842C191.031 66.4642 191.298 67.6055 191.831 68.6082C192.386 69.6109 193.132 70.3895 194.071 70.9442C195.031 71.4775 196.108 71.7442 197.303 71.7442Z" fill="#161616"/>
<path d="M217.8 62.7202C219.912 62.7415 221.523 63.2108 222.632 64.1282C223.742 65.0455 224.296 66.3682 224.296 68.0962C224.296 69.8882 223.699 71.2642 222.504 72.2242C221.31 73.1842 219.603 73.6535 217.384 73.6322L210.728 73.6002V56.7682H213V62.6562L217.8 62.7202ZM227.113 56.7682H229.385V73.6002H227.113V56.7682ZM217.256 71.9042C218.814 71.9255 219.987 71.6162 220.776 70.9762C221.587 70.3149 221.992 69.3549 221.992 68.0962C221.992 66.8588 221.598 65.9415 220.808 65.3442C220.019 64.7468 218.835 64.4375 217.256 64.4162L213 64.3522V71.8402L217.256 71.9042Z" fill="#161616"/>
<path d="M235.854 56.7682H238.126V64.2242H248.718V56.7682H250.99V73.6002H248.718V66.1762H238.126V73.6002H235.854V56.7682Z" fill="#161616"/>
<path d="M263.559 66.1122H259.719V73.6002H257.447V56.7682H259.719V64.1602H263.591L269.511 56.7682H271.975L265.351 64.9282L272.455 73.6002H269.767L263.559 66.1122Z" fill="#161616"/>
<path d="M290.167 65.8882H276.087C276.215 67.6375 276.887 69.0562 278.103 70.1442C279.319 71.2109 280.855 71.7442 282.711 71.7442C283.757 71.7442 284.717 71.5629 285.591 71.2002C286.466 70.8162 287.223 70.2615 287.863 69.5362L289.143 71.0082C288.397 71.9042 287.458 72.5869 286.327 73.0562C285.218 73.5255 283.991 73.7602 282.647 73.7602C280.919 73.7602 279.383 73.3975 278.039 72.6722C276.717 71.9255 275.682 70.9015 274.935 69.6002C274.189 68.2989 273.815 66.8268 273.815 65.1842C273.815 63.5415 274.167 62.0695 274.871 60.7682C275.597 59.4668 276.578 58.4535 277.815 57.7282C279.074 57.0028 280.482 56.6402 282.039 56.6402C283.597 56.6402 284.994 57.0028 286.231 57.7282C287.469 58.4535 288.439 59.4668 289.143 60.7682C289.847 62.0482 290.199 63.5202 290.199 65.1842L290.167 65.8882ZM282.039 58.5922C280.418 58.5922 279.053 59.1148 277.943 60.1602C276.855 61.1842 276.237 62.5282 276.087 64.1922H288.023C287.874 62.5282 287.245 61.1842 286.135 60.1602C285.047 59.1148 283.682 58.5922 282.039 58.5922Z" fill="#161616"/>
</svg>
