<svg width="384" height="90" viewBox="0 0 384 90" fill="none" xmlns="http://www.w3.org/2000/svg">
<path d="M83.0722 70.7842H68.4802V89.6003H48.2561V70.7842H0V56.8322L42.2401 0H64.0002L24.8321 53.8882H48.8961V37.1201H68.4802V53.8882H83.0722V70.7842Z" fill="#161616"/>
<path d="M110.66 28.5619H104.292V43.3779H102.02V28.5619H95.6523V26.5458H110.66V28.5619Z" fill="#161616"/>
<path d="M120.108 43.5379C118.487 43.5379 117.025 43.1752 115.724 42.4499C114.423 41.7032 113.399 40.6792 112.652 39.3779C111.905 38.0765 111.532 36.6045 111.532 34.9619C111.532 33.3192 111.905 31.8472 112.652 30.5459C113.399 29.2445 114.423 28.2312 115.724 27.5058C117.025 26.7805 118.487 26.4178 120.108 26.4178C121.729 26.4178 123.191 26.7805 124.492 27.5058C125.794 28.2312 126.807 29.2445 127.532 30.5459C128.279 31.8472 128.652 33.3192 128.652 34.9619C128.652 36.6045 128.279 38.0765 127.532 39.3779C126.807 40.6792 125.794 41.7032 124.492 42.4499C123.191 43.1752 121.729 43.5379 120.108 43.5379ZM120.108 41.5219C121.303 41.5219 122.37 41.2552 123.308 40.7219C124.268 40.1672 125.015 39.3886 125.548 38.3859C126.082 37.3832 126.348 36.2419 126.348 34.9619C126.348 33.6819 126.082 32.5405 125.548 31.5379C125.015 30.5352 124.268 29.7672 123.308 29.2339C122.37 28.6792 121.303 28.4019 120.108 28.4019C118.913 28.4019 117.836 28.6792 116.876 29.2339C115.937 29.7672 115.191 30.5352 114.636 31.5379C114.103 32.5405 113.836 33.6819 113.836 34.9619C113.836 36.2419 114.103 37.3832 114.636 38.3859C115.191 39.3886 115.937 40.1672 116.876 40.7219C117.836 41.2552 118.913 41.5219 120.108 41.5219Z" fill="#161616"/>
<path d="M146.212 26.5458V43.3779H143.94V36.3699C141.999 37.2232 140.089 37.6499 138.212 37.6499C136.185 37.6499 134.607 37.1912 133.476 36.2739C132.345 35.3352 131.78 33.9379 131.78 32.0819V26.5458H134.052V31.9539C134.052 33.2125 134.457 34.1725 135.268 34.8339C136.079 35.4739 137.199 35.7939 138.628 35.7939C140.207 35.7939 141.977 35.3779 143.94 34.5459V26.5458H146.212Z" fill="#161616"/>
<path d="M158.776 35.8899H154.936V43.3779H152.664V26.5458H154.936V33.9379H158.808L164.728 26.5458H167.192L160.568 34.7059L167.672 43.3779H164.984L158.776 35.8899Z" fill="#161616"/>
<path d="M171.258 26.5458H173.53V39.9219L184.762 26.5458H186.778V43.3779H184.506V30.0019L173.306 43.3779H171.258V26.5458Z" fill="#161616"/>
<path d="M113.924 65.6571V82.4891H111.652V67.6731H101.092V82.4891H98.8204V65.6571H113.924Z" fill="#161616"/>
<path d="M129.055 65.5291C130.634 65.5291 132.063 65.8917 133.343 66.6171C134.623 67.3211 135.626 68.3237 136.351 69.6251C137.076 70.9264 137.439 72.4091 137.439 74.0731C137.439 75.7584 137.076 77.2518 136.351 78.5531C135.626 79.8544 134.623 80.8678 133.343 81.5931C132.084 82.2971 130.655 82.6491 129.055 82.6491C127.69 82.6491 126.452 82.3718 125.343 81.8171C124.255 81.2411 123.359 80.4091 122.655 79.3211V88.6971H120.383V65.6571H122.559V68.9851C123.242 67.8757 124.138 67.0224 125.247 66.4251C126.378 65.8277 127.647 65.5291 129.055 65.5291ZM128.895 80.6331C130.068 80.6331 131.135 80.3664 132.095 79.8331C133.055 79.2784 133.802 78.4998 134.335 77.4971C134.89 76.4944 135.167 75.3531 135.167 74.0731C135.167 72.7931 134.89 71.6624 134.335 70.6811C133.802 69.6784 133.055 68.8997 132.095 68.3451C131.135 67.7904 130.068 67.5131 128.895 67.5131C127.7 67.5131 126.623 67.7904 125.663 68.3451C124.724 68.8997 123.978 69.6784 123.423 70.6811C122.89 71.6624 122.623 72.7931 122.623 74.0731C122.623 75.3531 122.89 76.4944 123.423 77.4971C123.978 78.4998 124.724 79.2784 125.663 79.8331C126.623 80.3664 127.7 80.6331 128.895 80.6331Z" fill="#161616"/>
<path d="M149.264 82.6491C147.643 82.6491 146.182 82.2865 144.88 81.5611C143.579 80.8144 142.555 79.7904 141.808 78.4891C141.062 77.1878 140.688 75.7158 140.688 74.0731C140.688 72.4304 141.062 70.9584 141.808 69.6571C142.555 68.3557 143.579 67.3424 144.88 66.6171C146.182 65.8917 147.643 65.5291 149.264 65.5291C150.886 65.5291 152.347 65.8917 153.649 66.6171C154.95 67.3424 155.963 68.3557 156.689 69.6571C157.435 70.9584 157.809 72.4304 157.809 74.0731C157.809 75.7158 157.435 77.1878 156.689 78.4891C155.963 79.7904 154.95 80.8144 153.649 81.5611C152.347 82.2865 150.886 82.6491 149.264 82.6491ZM149.264 80.6331C150.459 80.6331 151.526 80.3664 152.465 79.8331C153.425 79.2784 154.171 78.4998 154.705 77.4971C155.238 76.4944 155.505 75.3531 155.505 74.0731C155.505 72.7931 155.238 71.6518 154.705 70.6491C154.171 69.6464 153.425 68.8784 152.465 68.3451C151.526 67.7904 150.459 67.5131 149.264 67.5131C148.07 67.5131 146.992 67.7904 146.032 68.3451C145.094 68.8784 144.347 69.6464 143.792 70.6491C143.259 71.6518 142.992 72.7931 142.992 74.0731C142.992 75.3531 143.259 76.4944 143.792 77.4971C144.347 78.4998 145.094 79.2784 146.032 79.8331C146.992 80.3664 148.07 80.6331 149.264 80.6331Z" fill="#161616"/>
<path d="M178.987 80.5051V86.5531H176.843V82.4891H161.771V86.5531H159.627V80.5051H160.587C161.717 80.4411 162.485 79.6091 162.891 78.0091C163.296 76.4091 163.573 74.1691 163.723 71.2891L163.947 65.6571H176.363V80.5051H178.987ZM165.803 71.4171C165.696 73.8064 165.493 75.7798 165.195 77.3371C164.896 78.8731 164.363 79.9291 163.595 80.5051H174.091V67.6731H165.995L165.803 71.4171Z" fill="#161616"/>
<path d="M189.206 65.5291C191.404 65.5291 193.089 66.0837 194.262 67.1931C195.436 68.2811 196.022 69.9024 196.022 72.0571V82.4891H193.846V79.8651C193.334 80.7398 192.577 81.4224 191.574 81.9131C190.593 82.4038 189.42 82.6491 188.054 82.6491C186.177 82.6491 184.684 82.2011 183.574 81.3051C182.465 80.4091 181.91 79.2251 181.91 77.7531C181.91 76.3238 182.422 75.1718 183.446 74.2971C184.492 73.4224 186.145 72.9851 188.406 72.9851H193.75V71.9611C193.75 70.5104 193.345 69.4117 192.534 68.6651C191.724 67.8971 190.54 67.5131 188.982 67.5131C187.916 67.5131 186.892 67.6944 185.91 68.0571C184.929 68.3984 184.086 68.8784 183.382 69.4971L182.358 67.8011C183.212 67.0757 184.236 66.5211 185.43 66.1371C186.625 65.7317 187.884 65.5291 189.206 65.5291ZM188.406 80.8571C189.686 80.8571 190.785 80.5691 191.702 79.9931C192.62 79.3958 193.302 78.5424 193.75 77.4331V74.6811H188.47C185.59 74.6811 184.15 75.6838 184.15 77.6891C184.15 78.6704 184.524 79.4491 185.27 80.0251C186.017 80.5798 187.062 80.8571 188.406 80.8571Z" fill="#161616"/>
<path d="M216.823 75.0011H213.175V82.4891H210.903V75.0011H207.255L202.103 82.4891H199.383L205.431 73.8171L199.863 65.6571H202.327L207.255 73.0491H210.903V65.6571H213.175V73.0491H216.823L221.783 65.6571H224.247L218.679 73.8491L224.727 82.4891H222.007L216.823 75.0011Z" fill="#161616"/>
<path d="M243.827 82.6491C242.206 82.6491 240.745 82.2865 239.443 81.5611C238.142 80.8144 237.118 79.7904 236.371 78.4891C235.625 77.1878 235.251 75.7158 235.251 74.0731C235.251 72.4304 235.625 70.9584 236.371 69.6571C237.118 68.3557 238.142 67.3424 239.443 66.6171C240.745 65.8917 242.206 65.5291 243.827 65.5291C245.449 65.5291 246.91 65.8917 248.211 66.6171C249.513 67.3424 250.526 68.3557 251.251 69.6571C251.998 70.9584 252.371 72.4304 252.371 74.0731C252.371 75.7158 251.998 77.1878 251.251 78.4891C250.526 79.7904 249.513 80.8144 248.211 81.5611C246.91 82.2865 245.449 82.6491 243.827 82.6491ZM243.827 80.6331C245.022 80.6331 246.089 80.3664 247.027 79.8331C247.987 79.2784 248.734 78.4998 249.267 77.4971C249.801 76.4944 250.067 75.3531 250.067 74.0731C250.067 72.7931 249.801 71.6518 249.267 70.6491C248.734 69.6464 247.987 68.8784 247.027 68.3451C246.089 67.7904 245.022 67.5131 243.827 67.5131C242.633 67.5131 241.555 67.7904 240.595 68.3451C239.657 68.8784 238.91 69.6464 238.355 70.6491C237.822 71.6518 237.555 72.7931 237.555 74.0731C237.555 75.3531 237.822 76.4944 238.355 77.4971C238.91 78.4998 239.657 79.2784 240.595 79.8331C241.555 80.3664 242.633 80.6331 243.827 80.6331Z" fill="#161616"/>
<path d="M277.547 74.0411C277.547 76.6651 276.683 78.7238 274.955 80.2171C273.227 81.7104 270.784 82.5211 267.627 82.6491V88.6971H265.419V82.6811C262.283 82.5531 259.851 81.7425 258.123 80.2491C256.416 78.7344 255.563 76.6651 255.563 74.0411C255.563 71.4384 256.416 69.4011 258.123 67.9291C259.851 66.4571 262.283 65.6571 265.419 65.5291V58.745H267.627V65.5291C270.784 65.6784 273.227 66.4891 274.955 67.9611C276.683 69.4331 277.547 71.4598 277.547 74.0411ZM257.803 74.0411C257.803 76.0464 258.443 77.6144 259.723 78.7451C261.024 79.8758 262.923 80.5158 265.419 80.6651V67.5451C262.944 67.6731 261.056 68.3024 259.755 69.4331C258.454 70.5424 257.803 72.0784 257.803 74.0411ZM267.627 80.6651C270.123 80.5371 272.022 79.9078 273.323 78.7771C274.646 77.6464 275.307 76.0678 275.307 74.0411C275.307 72.0571 274.646 70.5104 273.323 69.4011C272.022 68.2917 270.123 67.6731 267.627 67.5451V80.6651Z" fill="#161616"/>
<path d="M302.672 74.0411C302.672 76.6651 301.808 78.7238 300.08 80.2171C298.352 81.7104 295.909 82.5211 292.752 82.6491V88.6971H290.544V82.6811C287.408 82.5531 284.976 81.7425 283.248 80.2491C281.541 78.7344 280.688 76.6651 280.688 74.0411C280.688 71.4384 281.541 69.4011 283.248 67.9291C284.976 66.4571 287.408 65.6571 290.544 65.5291V58.745H292.752V65.5291C295.909 65.6784 298.352 66.4891 300.08 67.9611C301.808 69.4331 302.672 71.4598 302.672 74.0411ZM282.928 74.0411C282.928 76.0464 283.568 77.6144 284.848 78.7451C286.149 79.8758 288.048 80.5158 290.544 80.6651V67.5451C288.069 67.6731 286.181 68.3024 284.88 69.4331C283.579 70.5424 282.928 72.0784 282.928 74.0411ZM292.752 80.6651C295.248 80.5371 297.147 79.9078 298.448 78.7771C299.771 77.6464 300.432 76.0678 300.432 74.0411C300.432 72.0571 299.771 70.5104 298.448 69.4011C297.147 68.2917 295.248 67.6731 292.752 67.5451V80.6651Z" fill="#161616"/>
<path d="M321.143 65.6571V82.4891H318.871V67.6731H310.807L310.583 71.8331C310.413 75.3318 310.007 78.0198 309.367 79.8971C308.727 81.7744 307.586 82.7131 305.943 82.7131C305.495 82.7131 304.951 82.6278 304.311 82.4571L304.471 80.5051C304.855 80.5904 305.122 80.6331 305.271 80.6331C306.146 80.6331 306.807 80.2278 307.255 79.4171C307.703 78.6064 308.002 77.6038 308.151 76.4091C308.301 75.2144 308.429 73.6358 308.535 71.6731L308.823 65.6571H321.143Z" fill="#161616"/>
<path d="M333.394 65.5291C335.592 65.5291 337.277 66.0837 338.45 67.1931C339.624 68.2811 340.21 69.9024 340.21 72.0571V82.4891H338.034V79.8651C337.522 80.7398 336.765 81.4224 335.762 81.9131C334.781 82.4038 333.608 82.6491 332.242 82.6491C330.365 82.6491 328.872 82.2011 327.762 81.3051C326.653 80.4091 326.098 79.2251 326.098 77.7531C326.098 76.3238 326.61 75.1718 327.634 74.2971C328.68 73.4224 330.333 72.9851 332.594 72.9851H337.938V71.9611C337.938 70.5104 337.533 69.4117 336.722 68.6651C335.912 67.8971 334.728 67.5131 333.17 67.5131C332.104 67.5131 331.08 67.6944 330.098 68.0571C329.117 68.3984 328.274 68.8784 327.57 69.4971L326.546 67.8011C327.4 67.0757 328.424 66.5211 329.618 66.1371C330.813 65.7317 332.072 65.5291 333.394 65.5291ZM332.594 80.8571C333.874 80.8571 334.973 80.5691 335.89 79.9931C336.808 79.3958 337.49 78.5424 337.938 77.4331V74.6811H332.658C329.778 74.6811 328.338 75.6838 328.338 77.6891C328.338 78.6704 328.712 79.4491 329.458 80.0251C330.205 80.5798 331.25 80.8571 332.594 80.8571Z" fill="#161616"/>
<path d="M346.259 65.6571H348.531V79.0331L359.763 65.6571H361.779V82.4891H359.507V69.1131L348.307 82.4891H346.259V65.6571ZM353.907 63.2251C352.456 63.2251 351.304 62.8624 350.451 62.1371C349.597 61.4117 349.16 60.3877 349.139 59.0651H350.771C350.792 59.8971 351.091 60.5691 351.667 61.0811C352.243 61.5717 352.989 61.8171 353.907 61.8171C354.824 61.8171 355.571 61.5717 356.147 61.0811C356.744 60.5691 357.053 59.8971 357.075 59.0651H358.707C358.685 60.3877 358.237 61.4117 357.363 62.1371C356.509 62.8624 355.357 63.2251 353.907 63.2251Z" fill="#161616"/>
<path d="M368.29 65.6571H370.562V73.1131H381.154V65.6571H383.426V82.4891H381.154V75.0651H370.562V82.4891H368.29V65.6571Z" fill="#161616"/>
</svg>
