<svg width="427" height="101" viewBox="0 0 427 101" fill="none" xmlns="http://www.w3.org/2000/svg">
<path d="M127.84 80.5121H113.248V99.3282H93.0237V80.5121H44.7676V66.5601L87.0077 9.72789H108.768L69.5996 63.616H93.6637V46.848H113.248V63.616H127.84V80.5121Z" fill="#161616"/>
<path d="M172.442 100.864C165.018 100.864 158.405 99.0295 152.602 95.3601C146.799 91.6908 142.234 86.4001 138.906 79.4881C135.663 72.4907 134.042 64.1707 134.042 54.528C134.042 44.8853 135.663 36.608 138.906 29.6959C142.234 22.6986 146.799 17.3652 152.602 13.6959C158.405 10.0266 165.018 8.19189 172.442 8.19189C179.866 8.19189 186.479 10.0266 192.282 13.6959C198.085 17.3652 202.607 22.6986 205.85 29.6959C209.178 36.608 210.842 44.8853 210.842 54.528C210.842 64.1707 209.178 72.4907 205.85 79.4881C202.607 86.4001 198.085 91.6908 192.282 95.3601C186.479 99.0295 179.866 100.864 172.442 100.864ZM172.442 83.3281C177.903 83.3281 182.17 80.9814 185.242 76.2881C188.399 71.5947 189.978 64.3414 189.978 54.528C189.978 44.7147 188.399 37.4613 185.242 32.768C182.17 28.0746 177.903 25.7279 172.442 25.7279C167.066 25.7279 162.799 28.0746 159.642 32.768C156.57 37.4613 155.034 44.7147 155.034 54.528C155.034 64.3414 156.57 71.5947 159.642 76.2881C162.799 80.9814 167.066 83.3281 172.442 83.3281Z" fill="#161616"/>
<path d="M259.317 100.864C251.893 100.864 245.28 99.0295 239.477 95.3601C233.674 91.6908 229.109 86.4001 225.781 79.4881C222.538 72.4907 220.917 64.1707 220.917 54.528C220.917 44.8853 222.538 36.608 225.781 29.6959C229.109 22.6986 233.674 17.3652 239.477 13.6959C245.28 10.0266 251.893 8.19189 259.317 8.19189C266.741 8.19189 273.355 10.0266 279.157 13.6959C284.96 17.3652 289.483 22.6986 292.725 29.6959C296.053 36.608 297.717 44.8853 297.717 54.528C297.717 64.1707 296.053 72.4907 292.725 79.4881C289.483 86.4001 284.96 91.6908 279.157 95.3601C273.355 99.0295 266.741 100.864 259.317 100.864ZM259.317 83.3281C264.779 83.3281 269.045 80.9814 272.117 76.2881C275.275 71.5947 276.853 64.3414 276.853 54.528C276.853 44.7147 275.275 37.4613 272.117 32.768C269.045 28.0746 264.779 25.7279 259.317 25.7279C253.941 25.7279 249.674 28.0746 246.517 32.768C243.445 37.4613 241.909 44.7147 241.909 54.528C241.909 64.3414 243.445 71.5947 246.517 76.2881C249.674 80.9814 253.941 83.3281 259.317 83.3281Z" fill="#161616"/>
<path d="M334.574 81.9911C334.574 84.6151 333.71 86.6738 331.982 88.1671C330.254 89.6605 327.811 90.4711 324.654 90.5991V96.6472H322.446V90.6311C319.31 90.5031 316.878 89.6925 315.15 88.1991C313.443 86.6845 312.59 84.6151 312.59 81.9911C312.59 79.3884 313.443 77.3511 315.15 75.8791C316.878 74.4071 319.31 73.6071 322.446 73.4791V66.6951H324.654V73.4791C327.811 73.6284 330.254 74.4391 331.982 75.9111C333.71 77.3831 334.574 79.4098 334.574 81.9911ZM314.83 81.9911C314.83 83.9965 315.47 85.5645 316.75 86.6951C318.051 87.8258 319.95 88.4658 322.446 88.6151V75.4951C319.971 75.6231 318.083 76.2524 316.782 77.3831C315.481 78.4924 314.83 80.0284 314.83 81.9911ZM324.654 88.6151C327.15 88.4871 329.049 87.8578 330.35 86.7271C331.673 85.5965 332.334 84.0178 332.334 81.9911C332.334 80.0071 331.673 78.4604 330.35 77.3511C329.049 76.2418 327.15 75.6231 324.654 75.4951V88.6151Z" fill="#161616"/>
<path d="M345.077 73.4791C347.275 73.4791 348.96 74.0338 350.133 75.1431C351.307 76.2311 351.893 77.8524 351.893 80.0071V90.4391H349.717V87.8151C349.205 88.6898 348.448 89.3725 347.445 89.8631C346.464 90.3538 345.291 90.5991 343.925 90.5991C342.048 90.5991 340.555 90.1511 339.445 89.2551C338.336 88.3591 337.781 87.1751 337.781 85.7031C337.781 84.2738 338.293 83.1218 339.317 82.2471C340.363 81.3724 342.016 80.9351 344.277 80.9351H349.621V79.9111C349.621 78.4604 349.216 77.3618 348.405 76.6151C347.595 75.8471 346.411 75.4631 344.853 75.4631C343.787 75.4631 342.763 75.6444 341.781 76.0071C340.8 76.3484 339.957 76.8284 339.253 77.4471L338.229 75.7511C339.083 75.0258 340.107 74.4711 341.301 74.0871C342.496 73.6818 343.755 73.4791 345.077 73.4791ZM344.277 88.8071C345.557 88.8071 346.656 88.5191 347.573 87.9431C348.491 87.3458 349.173 86.4925 349.621 85.3831V82.6311H344.341C341.461 82.6311 340.021 83.6338 340.021 85.6391C340.021 86.6205 340.395 87.3991 341.141 87.9751C341.888 88.5298 342.933 88.8071 344.277 88.8071Z" fill="#161616"/>
<path d="M364.053 82.9511H360.213V90.4391H357.941V73.6071H360.213V80.9991H364.085L370.006 73.6071H372.47L365.845 81.7671L372.95 90.4391H370.262L364.053 82.9511Z" fill="#161616"/>
<path d="M388.032 75.6231H381.664V90.4391H379.392V75.6231H373.024V73.6071H388.032V75.6231Z" fill="#161616"/>
<path d="M405.683 73.6071L397.267 92.4551C396.584 94.0338 395.795 95.1538 394.899 95.8152C394.003 96.4765 392.926 96.8072 391.667 96.8072C390.856 96.8072 390.099 96.6792 389.395 96.4232C388.691 96.1672 388.083 95.7832 387.571 95.2712L388.627 93.5751C389.48 94.4285 390.504 94.8552 391.699 94.8552C392.467 94.8552 393.118 94.6418 393.651 94.2151C394.206 93.7885 394.718 93.0631 395.187 92.0391L395.923 90.4071L388.403 73.6071H390.771L397.107 87.9111L403.443 73.6071H405.683Z" fill="#161616"/>
<path d="M417.895 73.4791C419.474 73.4791 420.903 73.8418 422.183 74.5671C423.463 75.2711 424.466 76.2738 425.191 77.5751C425.916 78.8764 426.279 80.3591 426.279 82.0231C426.279 83.7085 425.916 85.2018 425.191 86.5031C424.466 87.8045 423.463 88.8178 422.183 89.5431C420.924 90.2471 419.495 90.5991 417.895 90.5991C416.53 90.5991 415.292 90.3218 414.183 89.7671C413.095 89.1911 412.199 88.3591 411.495 87.2711V96.6472H409.223V73.6071H411.399V76.9351C412.082 75.8258 412.978 74.9724 414.087 74.3751C415.218 73.7778 416.487 73.4791 417.895 73.4791ZM417.735 88.5831C418.908 88.5831 419.975 88.3165 420.935 87.7831C421.895 87.2285 422.642 86.4498 423.175 85.4471C423.73 84.4445 424.007 83.3031 424.007 82.0231C424.007 80.7431 423.73 79.6124 423.175 78.6311C422.642 77.6284 421.895 76.8498 420.935 76.2951C419.975 75.7404 418.908 75.4631 417.735 75.4631C416.54 75.4631 415.463 75.7404 414.503 76.2951C413.564 76.8498 412.818 77.6284 412.263 78.6311C411.73 79.6124 411.463 80.7431 411.463 82.0231C411.463 83.3031 411.73 84.4445 412.263 85.4471C412.818 86.4498 413.564 87.2285 414.503 87.7831C415.463 88.3165 416.54 88.5831 417.735 88.5831Z" fill="#161616"/>
<path d="M8.38402 87.936C8.38402 86.3786 8.73603 84.9919 9.44003 83.7759C10.1227 82.5386 11.0934 81.5786 12.352 80.8959C13.5894 80.2133 15.008 79.8719 16.608 79.8719C18.2507 79.8719 19.7121 80.2346 20.9921 80.9599C22.2507 81.6639 23.2321 82.6559 23.9361 83.9359C24.6401 85.2159 24.9921 86.6879 24.9921 88.352C24.9921 91.1466 24.0107 93.312 22.0481 94.848C20.0854 96.384 17.3761 97.152 13.92 97.152C10.3147 97.152 7.55202 96.4693 5.63202 95.104C3.71201 93.7173 2.41067 91.5626 1.72801 88.64L0 81.0879L2.08001 80.7039L3.71201 87.808C4.24535 90.2186 5.19468 91.9893 6.56002 93.12C7.90402 94.2506 9.8987 94.8693 12.544 94.976C11.2427 94.2933 10.2294 93.344 9.50403 92.128C8.75736 90.912 8.38402 89.5146 8.38402 87.936ZM23.1041 88.288C23.1041 87.1146 22.8374 86.0693 22.3041 85.1519C21.7494 84.2133 20.9814 83.4879 20.0001 82.9759C19.0187 82.4426 17.9094 82.1759 16.672 82.1759C15.4347 82.1759 14.3467 82.4319 13.408 82.9439C12.4694 83.4559 11.744 84.1813 11.232 85.1199C10.6987 86.0373 10.432 87.0933 10.432 88.288C10.432 89.4826 10.6987 90.5493 11.232 91.488C11.744 92.4053 12.4694 93.1306 13.408 93.664C14.3467 94.176 15.4347 94.432 16.672 94.432C17.9094 94.432 19.0187 94.176 20.0001 93.664C20.9814 93.1306 21.7494 92.3946 22.3041 91.456C22.8374 90.5173 23.1041 89.4613 23.1041 88.288Z" fill="#161616"/>
<path d="M24.9601 68.0581C24.9601 69.6795 24.5974 71.1408 23.8721 72.4422C23.1254 73.7435 22.1014 74.7675 20.8001 75.5142C19.4987 76.2608 18.0267 76.6342 16.384 76.6342C14.7414 76.6342 13.2694 76.2608 11.968 75.5142C10.6667 74.7675 9.65336 73.7435 8.92803 72.4422C8.20269 71.1408 7.84002 69.6795 7.84002 68.0581C7.84002 66.4368 8.20269 64.9755 8.92803 63.6741C9.65336 62.3728 10.6667 61.3595 11.968 60.6341C13.2694 59.8875 14.7414 59.5141 16.384 59.5141C18.0267 59.5141 19.4987 59.8875 20.8001 60.6341C22.1014 61.3595 23.1254 62.3728 23.8721 63.6741C24.5974 64.9755 24.9601 66.4368 24.9601 68.0581ZM22.9441 68.0581C22.9441 66.8635 22.6774 65.7968 22.1441 64.8581C21.5894 63.8981 20.8107 63.1515 19.8081 62.6181C18.8054 62.0848 17.6641 61.8181 16.384 61.8181C15.104 61.8181 13.9627 62.0848 12.96 62.6181C11.9574 63.1515 11.1894 63.8981 10.656 64.8581C10.1014 65.7968 9.82403 66.8635 9.82403 68.0581C9.82403 69.2528 10.1014 70.3302 10.656 71.2902C11.1894 72.2288 11.9574 72.9755 12.96 73.5302C13.9627 74.0635 15.104 74.3302 16.384 74.3302C17.6641 74.3302 18.8054 74.0635 19.8081 73.5302C20.8107 72.9755 21.5894 72.2288 22.1441 71.2902C22.6774 70.3302 22.9441 69.2528 22.9441 68.0581Z" fill="#161616"/>
<path d="M7.96802 40.9921H24.8001V43.2641H9.98403V51.3281L14.144 51.5521C17.6427 51.7228 20.3307 52.1281 22.2081 52.7681C24.0854 53.4081 25.0241 54.5494 25.0241 56.1921C25.0241 56.6401 24.9387 57.1841 24.7681 57.8241L22.8161 57.6641C22.9014 57.2801 22.9441 57.0135 22.9441 56.8641C22.9441 55.9895 22.5387 55.3281 21.7281 54.8801C20.9174 54.4321 19.9147 54.1334 18.7201 53.9841C17.5254 53.8348 15.9467 53.7068 13.984 53.6001L7.96802 53.3121L7.96802 40.9921Z" fill="#161616"/>
<path d="M17.088 19.8133V33.8933C18.8374 33.7653 20.2561 33.0933 21.3441 31.8773C22.4107 30.6613 22.9441 29.1253 22.9441 27.2693C22.9441 26.2239 22.7627 25.2639 22.4001 24.3893C22.0161 23.5146 21.4614 22.7573 20.7361 22.1173L22.2081 20.8373C23.1041 21.5839 23.7867 22.5226 24.2561 23.6533C24.7254 24.7626 24.9601 25.9893 24.9601 27.3333C24.9601 29.0613 24.5974 30.5973 23.8721 31.9413C23.1254 33.264 22.1014 34.2986 20.8001 35.0453C19.4987 35.792 18.0267 36.1653 16.384 36.1653C14.7414 36.1653 13.2694 35.8133 11.968 35.1093C10.6667 34.384 9.65336 33.4026 8.92803 32.1653C8.20269 30.9066 7.84002 29.4986 7.84002 27.9413C7.84002 26.3839 8.20269 24.9866 8.92803 23.7493C9.65336 22.5119 10.6667 21.5413 11.968 20.8373C13.248 20.1333 14.72 19.7813 16.384 19.7813L17.088 19.8133ZM9.79203 27.9413C9.79203 29.5626 10.3147 30.928 11.36 32.0373C12.384 33.1253 13.728 33.744 15.392 33.8933L15.392 21.9573C13.728 22.1066 12.384 22.7359 11.36 23.8453C10.3147 24.9333 9.79203 26.2986 9.79203 27.9413Z" fill="#161616"/>
<path d="M17.088 0.0319595L17.088 14.112C18.8374 13.984 20.2561 13.312 21.3441 12.096C22.4107 10.88 22.9441 9.34399 22.9441 7.48798C22.9441 6.44264 22.7627 5.48264 22.4001 4.60796C22.0161 3.7333 21.4614 2.97596 20.7361 2.33596L22.2081 1.05596C23.1041 1.80263 23.7867 2.7413 24.2561 3.87197C24.7254 4.98131 24.9601 6.20798 24.9601 7.55198C24.9601 9.27998 24.5974 10.816 23.8721 12.16C23.1254 13.4827 22.1014 14.5173 20.8001 15.264C19.4987 16.0107 18.0267 16.384 16.384 16.384C14.7414 16.384 13.2694 16.032 11.968 15.328C10.6667 14.6027 9.65336 13.6213 8.92803 12.384C8.20269 11.1253 7.84002 9.71732 7.84002 8.15998C7.84002 6.60264 8.20269 5.20531 8.92803 3.96797C9.65336 2.73064 10.6667 1.75996 11.968 1.05596C13.248 0.351959 14.72 -4.57764e-05 16.384 -4.57764e-05L17.088 0.0319595ZM9.79203 8.15998C9.79203 9.78132 10.3147 11.1467 11.36 12.256C12.384 13.344 13.728 13.9627 15.392 14.112V2.17596C13.728 2.32529 12.384 2.95463 11.36 4.06396C10.3147 5.15197 9.79203 6.51731 9.79203 8.15998Z" fill="#161616"/>
</svg>
