<svg width="24" height="24" viewBox="0 0 24 24" fill="none" xmlns="http://www.w3.org/2000/svg">
<path d="M21.7308 9.18281C21.6699 8.70469 21.2621 8.34844 20.7839 8.34844H18.4542V6.975C18.4542 3.4125 15.5574 0.515625 11.9949 0.515625C8.43237 0.515625 5.5355 3.41719 5.5355 6.97969V8.35312H3.20581C2.72768 8.35312 2.31987 8.70938 2.25893 9.1875L0.524557 22.4016C0.468307 23.2828 1.19956 23.4844 1.47143 23.4844H22.5183C22.523 23.4844 22.523 23.4844 22.5277 23.4844C23.0574 23.4844 23.4839 23.0578 23.4839 22.5281C23.4839 22.4344 21.7308 9.18281 21.7308 9.18281ZM7.45268 6.97969C7.45268 4.47187 9.49174 2.4375 11.9949 2.4375C14.5027 2.4375 16.5371 4.47656 16.5371 6.97969V8.35312H7.45268V6.97969ZM2.56362 21.5672L4.04487 10.2656H5.5355V11.1891C5.5355 11.7188 5.96206 12.1453 6.49174 12.1453C7.02143 12.1453 7.448 11.7188 7.448 11.1891V10.2656H16.5371V11.1891C16.5371 11.7188 16.9636 12.1453 17.4933 12.1453C18.023 12.1453 18.4496 11.7188 18.4496 11.1891V10.2656H19.9402L21.4214 21.5672H2.56362Z" fill="#161616"/>
</svg>
