<svg width="20" height="20" viewBox="0 0 20 20" fill="none" xmlns="http://www.w3.org/2000/svg">
<path d="M10.7203 0.029999C9.28973 -0.0741358 7.85354 0.130965 6.50934 0.63136C5.16513 1.13175 3.94442 1.91571 2.9302 2.92993C1.91598 3.94415 1.13203 5.16486 0.631634 6.50906C0.13124 7.85327 -0.0738612 9.28946 0.0302736 10.72C0.390274 16.01 5.01027 20 10.3103 20H14.0003C14.5503 20 15.0003 19.55 15.0003 19C15.0003 18.45 14.5503 18 14.0003 18H10.3303C6.60027 18 3.18027 15.58 2.25027 11.97C0.760274 6.17 6.16027 0.759999 11.9603 2.26C15.5803 3.18 18.0003 6.6 18.0003 10.33V11.43C18.0003 12.22 17.2903 13 16.5003 13C15.7103 13 15.0003 12.22 15.0003 11.43V10.18C15.0003 7.67 13.2203 5.41 10.7403 5.06C9.95123 4.94267 9.14558 5.01553 8.39039 5.27252C7.63519 5.5295 6.95232 5.96317 6.39861 6.53742C5.84491 7.11167 5.43639 7.80988 5.20708 8.57393C4.97777 9.33798 4.93429 10.1458 5.08027 10.93C5.25566 11.875 5.6999 12.7493 6.35972 13.4481C7.01953 14.147 7.86692 14.6407 8.80027 14.87C10.6403 15.3 12.3903 14.71 13.5403 13.54C14.4303 14.76 16.2103 15.4 17.8403 14.75C19.1803 14.22 20.0003 12.85 20.0003 11.41V10.32C20.0003 5.01 16.0103 0.389999 10.7203 0.029999ZM10.0003 13C8.34027 13 7.00027 11.66 7.00027 10C7.00027 8.34 8.34027 7 10.0003 7C11.6603 7 13.0003 8.34 13.0003 10C13.0003 11.66 11.6603 13 10.0003 13Z" fill="#161616"/>
</svg>
