<svg width="33" height="39" viewBox="0 0 33 39" fill="none" xmlns="http://www.w3.org/2000/svg">
<g clip-path="url(#clip0)">
<path d="M31.5391 8.66406C31.9401 9.0651 32.2839 9.60938 32.5703 10.2969C32.8568 10.9844 33 11.6146 33 12.1875V36.9375C33 37.5104 32.7995 37.9974 32.3984 38.3984C31.9974 38.7995 31.5104 39 30.9375 39H2.0625C1.48958 39 1.0026 38.7995 0.601562 38.3984C0.200521 37.9974 0 37.5104 0 36.9375V2.5625C0 1.98958 0.200521 1.5026 0.601562 1.10156C1.0026 0.700521 1.48958 0.5 2.0625 0.5H21.3125C21.8854 0.5 22.5156 0.643229 23.2031 0.929688C23.8906 1.21615 24.4349 1.5599 24.8359 1.96094L31.5391 8.66406ZM22 3.42188V11.5H30.0781C29.9349 11.0846 29.7773 10.791 29.6055 10.6191L22.8809 3.89453C22.709 3.72266 22.4154 3.5651 22 3.42188ZM30.25 36.25V14.25H21.3125C20.7396 14.25 20.2526 14.0495 19.8516 13.6484C19.4505 13.2474 19.25 12.7604 19.25 12.1875V3.25H2.75V36.25H30.25ZM9.2168 31.2227V33.5H15.2539V31.2227H13.6426L15.8555 27.7637C15.9271 27.6634 15.9987 27.5452 16.0703 27.4092C16.1419 27.2731 16.1956 27.1764 16.2314 27.1191C16.2673 27.0618 16.2923 27.0332 16.3066 27.0332H16.3496C16.3639 27.0905 16.3997 27.1621 16.457 27.248C16.4857 27.3053 16.5179 27.359 16.5537 27.4092C16.5895 27.4593 16.6325 27.5166 16.6826 27.5811C16.7327 27.6455 16.7793 27.7064 16.8223 27.7637L19.1211 31.2227H17.4883V33.5H23.7402V31.2227H22.2793L18.1543 25.3574L22.3438 19.2988H23.7832V17H17.7891V19.2988H19.3789L17.166 22.7148C17.1087 22.8151 17.0371 22.9333 16.9512 23.0693C16.8652 23.2054 16.8008 23.3021 16.7578 23.3594L16.7148 23.4238H16.6719C16.6576 23.3665 16.6217 23.2949 16.5645 23.209C16.4785 23.0514 16.3568 22.8867 16.1992 22.7148L13.9219 19.2988H15.5547V17H9.32422V19.2988H10.7852L14.8457 25.1426L10.6777 31.2227H9.2168Z" fill="black"/>
</g>
<defs>
<clipPath id="clip0">
<rect width="33" height="38.5" fill="white" transform="translate(0 0.5)"/>
</clipPath>
</defs>
</svg>
