<svg width="24" height="24" viewBox="0 0 24 24" fill="none" xmlns="http://www.w3.org/2000/svg">
<path d="M12.0009 5.99123C8.67568 5.99123 5.99208 8.67482 5.99208 12C5.99208 15.3252 8.67568 18.0088 12.0009 18.0088C15.3261 18.0088 18.0097 15.3252 18.0097 12C18.0097 8.67482 15.3261 5.99123 12.0009 5.99123ZM12.0009 15.9053C9.85048 15.9053 8.0956 14.1504 8.0956 12C8.0956 9.84963 9.85048 8.09474 12.0009 8.09474C14.1513 8.09474 15.9061 9.84963 15.9061 12C15.9061 14.1504 14.1513 15.9053 12.0009 15.9053ZM18.2558 4.34474C17.4794 4.34474 16.8524 4.9717 16.8524 5.74806C16.8524 6.52443 17.4794 7.15138 18.2558 7.15138C19.0321 7.15138 19.6591 6.52736 19.6591 5.74806C19.6593 5.56371 19.6232 5.38113 19.5527 5.21076C19.4823 5.0404 19.3789 4.88561 19.2486 4.75525C19.1182 4.62489 18.9634 4.52154 18.7931 4.45109C18.6227 4.38065 18.4401 4.34451 18.2558 4.34474ZM23.7138 12C23.7138 10.3828 23.7284 8.78029 23.6376 7.16603C23.5468 5.29103 23.119 3.62697 21.7479 2.25588C20.3739 0.881853 18.7128 0.457048 16.8378 0.366228C15.2206 0.275408 13.6181 0.290056 12.0038 0.290056C10.3866 0.290056 8.78407 0.275408 7.16982 0.366228C5.29482 0.457048 3.63075 0.884782 2.25966 2.25588C0.885637 3.6299 0.460832 5.29103 0.370012 7.16603C0.279192 8.78322 0.29384 10.3858 0.29384 12C0.29384 13.6143 0.279192 15.2197 0.370012 16.834C0.460832 18.709 0.888567 20.3731 2.25966 21.7442C3.63368 23.1182 5.29482 23.543 7.16982 23.6338C8.787 23.7246 10.3895 23.71 12.0038 23.71C13.621 23.71 15.2235 23.7246 16.8378 23.6338C18.7128 23.543 20.3768 23.1153 21.7479 21.7442C23.122 20.3701 23.5468 18.709 23.6376 16.834C23.7313 15.2197 23.7138 13.6172 23.7138 12ZM21.1356 18.9082C20.9218 19.4414 20.664 19.8399 20.2509 20.25C19.8378 20.6631 19.4423 20.9209 18.9091 21.1348C17.3681 21.7471 13.7089 21.6094 12.0009 21.6094C10.2929 21.6094 6.63075 21.7471 5.08974 21.1377C4.55654 20.9238 4.1581 20.666 3.74794 20.2529C3.33486 19.8399 3.07704 19.4444 2.86318 18.9112C2.2538 17.3672 2.3915 13.708 2.3915 12C2.3915 10.292 2.2538 6.6299 2.86318 5.08888C3.07704 4.55568 3.33486 4.15724 3.74794 3.74709C4.16103 3.33693 4.55654 3.07619 5.08974 2.86232C6.63075 2.25295 10.2929 2.39064 12.0009 2.39064C13.7089 2.39064 17.371 2.25295 18.912 2.86232C19.4452 3.07619 19.8436 3.334 20.2538 3.74709C20.6669 4.16017 20.9247 4.55568 21.1386 5.08888C21.7479 6.6299 21.6102 10.292 21.6102 12C21.6102 13.708 21.7479 17.3672 21.1356 18.9082Z" fill="#161616"/>
</svg>
