<svg width="30" height="30" viewBox="0 0 30 30" fill="none" xmlns="http://www.w3.org/2000/svg">
<path d="M15.2755 7.489C11.119 7.489 7.76452 10.8435 7.76452 15C7.76452 19.1565 11.119 22.511 15.2755 22.511C19.432 22.511 22.7865 19.1565 22.7865 15C22.7865 10.8435 19.432 7.489 15.2755 7.489ZM15.2755 19.8816C12.5875 19.8816 10.3939 17.688 10.3939 15C10.3939 12.312 12.5875 10.1184 15.2755 10.1184C17.9635 10.1184 20.1571 12.312 20.1571 15C20.1571 17.688 17.9635 19.8816 15.2755 19.8816ZM23.0941 5.4309C22.1236 5.4309 21.34 6.21459 21.34 7.18505C21.34 8.15551 22.1236 8.9392 23.0941 8.9392C24.0646 8.9392 24.8483 8.15917 24.8483 7.18505C24.8485 6.95461 24.8034 6.72638 24.7153 6.51342C24.6273 6.30047 24.4981 6.10698 24.3351 5.94403C24.1722 5.78109 23.9787 5.65189 23.7657 5.56384C23.5528 5.47578 23.3245 5.43061 23.0941 5.4309ZM29.9166 15C29.9166 12.9785 29.9349 10.9753 29.8214 8.95751C29.7079 6.61376 29.1732 4.53368 27.4593 2.81981C25.7418 1.10229 23.6654 0.57128 21.3216 0.457754C19.3002 0.344229 17.297 0.362539 15.2792 0.362539C13.2577 0.362539 11.2545 0.344229 9.23668 0.457754C6.89294 0.57128 4.81286 1.10595 3.09899 2.81981C1.38146 4.53734 0.850454 6.61376 0.736929 8.95751C0.623404 10.979 0.641714 12.9822 0.641714 15C0.641714 17.0178 0.623404 19.0246 0.736929 21.0425C0.850454 23.3862 1.38512 25.4663 3.09899 27.1802C4.81652 28.8977 6.89294 29.4287 9.23668 29.5422C11.2582 29.6558 13.2613 29.6374 15.2792 29.6374C17.3006 29.6374 19.3038 29.6558 21.3216 29.5422C23.6654 29.4287 25.7455 28.894 27.4593 27.1802C29.1769 25.4626 29.7079 23.3862 29.8214 21.0425C29.9386 19.0246 29.9166 17.0215 29.9166 15ZM26.694 23.6352C26.4266 24.3017 26.1044 24.7998 25.588 25.3125C25.0716 25.8288 24.5773 26.1511 23.9108 26.4184C21.9845 27.1838 17.4105 27.0117 15.2755 27.0117C13.1405 27.0117 8.56286 27.1838 6.63659 26.4221C5.97008 26.1548 5.47204 25.8325 4.95934 25.3162C4.44298 24.7998 4.12072 24.3054 3.85338 23.6389C3.09167 21.709 3.26378 17.135 3.26378 15C3.26378 12.865 3.09167 8.28734 3.85338 6.36107C4.12072 5.69457 4.44298 5.19652 4.95934 4.68383C5.4757 4.17113 5.97008 3.84521 6.63659 3.57787C8.56286 2.81615 13.1405 2.98827 15.2755 2.98827C17.4105 2.98827 21.9882 2.81615 23.9144 3.57787C24.5809 3.84521 25.079 4.16747 25.5917 4.68383C26.108 5.20019 26.4303 5.69457 26.6976 6.36107C27.4593 8.28734 27.2872 12.865 27.2872 15C27.2872 17.135 27.4593 21.709 26.694 23.6352Z" fill="white"/>
</svg>
