<svg width="220" height="30" viewBox="0 0 220 30" fill="none" xmlns="http://www.w3.org/2000/svg">
<g opacity="0.95">
<path d="M105.982 29.9968C105.458 29.9968 104.905 29.8806 104.526 29.5902C104.293 29.387 103.973 28.9804 103.973 28.3126V14.4614H106.914V26.8316C106.914 27.0058 106.885 27.2962 107.118 27.4995C107.205 27.5576 107.38 27.6737 107.846 27.6737H116.409V29.9968H105.982Z" fill="#F9FAFA"/>
<path d="M121.186 16.0252C121.739 14.7185 122.351 14.283 123.749 14.283C125.089 14.283 125.759 14.7185 126.312 16.0252L132.195 29.9925H129.108L127.506 26.0724H119.992L118.419 29.9925H115.332L121.186 16.0252ZM120.749 23.9817H126.749L124.215 17.6514C124.128 17.4191 123.982 17.0125 123.778 17.0125C123.574 17.0125 123.429 17.4481 123.341 17.6514L120.749 23.9817Z" fill="white"/>
<path d="M142.68 14.4614C143.525 14.4614 144.69 14.5485 145.506 15.3906C146.379 16.2908 146.496 17.7137 146.496 18.73C146.496 19.5721 146.438 20.4433 145.768 21.2563C145.331 21.779 144.865 22.0113 144.311 22.0694V22.1565C145.04 22.2146 145.651 22.563 146.03 22.9696C146.758 23.7826 146.758 24.8861 146.758 25.7572C146.758 26.7735 146.758 28.0222 145.855 29.0095C144.952 29.9968 143.962 29.9968 143.001 29.9968H135.545C134.759 29.9968 134.06 30.0839 133.419 29.387C133.273 29.2127 132.895 28.6901 132.895 27.8189V16.6974C132.895 16.1166 133.04 15.5068 133.39 15.1003C133.856 14.5485 134.555 14.4614 135.05 14.4614H142.68ZM135.807 20.9659H141.515C142.098 20.9659 142.71 20.9659 143.117 20.4142C143.234 20.269 143.438 19.8915 143.438 18.8462C143.438 18.4106 143.409 17.6556 142.913 17.191C142.477 16.7845 141.952 16.7845 141.457 16.7845H136.652C136.419 16.7845 136.156 16.7554 135.982 16.9587C135.807 17.162 135.778 17.4814 135.778 17.6556L135.807 20.9659ZM135.807 26.5122C135.807 27.0349 135.865 27.2962 135.982 27.4124C136.215 27.6737 136.71 27.6447 136.943 27.6447H141.574C142.04 27.6447 142.855 27.6156 143.292 27.093C143.612 26.6864 143.7 26.0186 143.7 25.5249C143.7 25.0893 143.642 24.3634 143.379 23.9569C143.205 23.7246 142.768 23.318 141.807 23.318H135.836L135.807 26.5122Z" fill="white"/>
<path d="M148.473 27.6737H157.123C158.521 27.6737 158.58 26.5122 158.58 25.9895C158.58 25.3797 158.434 24.6538 157.065 24.2472L150.92 22.3017C150.687 22.2436 149.697 21.8952 149.085 21.1402C148.386 20.2981 148.27 19.0785 148.27 18.2073C148.27 17.2781 148.386 16.1456 149.26 15.3326C150.075 14.5776 151.065 14.4614 151.823 14.4614H160.793V16.7845H152.842C152.434 16.7845 151.968 16.8135 151.619 17.1329C151.24 17.4814 151.211 18.0331 151.211 18.3235C151.211 19.0204 151.415 19.6883 152.667 20.0658L158.376 21.8661C159.424 22.1855 160.123 22.534 160.589 22.9696C161.521 23.8697 161.609 25.2345 161.609 25.9605C161.609 26.9478 161.463 28.0222 160.822 28.8352C160.036 29.8225 159.075 29.9387 158.026 29.9387H148.473V27.6737Z" fill="white"/>
<path d="M167.495 16.0245C168.048 14.7178 168.66 14.2822 170.058 14.2822C171.397 14.2822 172.067 14.7178 172.621 16.0245L178.504 29.9918H175.417L173.815 26.0717H166.301L164.728 29.9918H161.641L167.495 16.0245ZM167.058 23.9809H173.057L170.524 17.6506C170.436 17.4183 170.291 17.0118 170.087 17.0118C169.883 17.0118 169.737 17.4474 169.65 17.6506L167.058 23.9809Z" fill="white"/>
<path d="M181.181 29.9968C180.657 29.9968 180.104 29.8806 179.725 29.5902C179.492 29.387 179.172 28.9804 179.172 28.3126V14.4614H182.113V26.8316C182.113 27.0058 182.084 27.2962 182.317 27.4995C182.405 27.5576 182.579 27.6737 183.045 27.6737H191.608V29.9968H181.181Z" fill="white"/>
<path d="M194.871 29.9965C194.201 29.9965 193.589 29.9965 193.094 29.5029C192.57 28.9802 192.512 28.2833 192.512 27.6735V16.6681C192.512 16.0583 192.716 15.4194 193.036 15.0419C193.56 14.4902 194.317 14.4321 194.9 14.4321H204.89V16.7552H196.473C196.211 16.7552 195.89 16.7842 195.657 16.9875C195.424 17.2198 195.424 17.5102 195.424 17.7425V20.8786H204.686V23.2016H195.453V26.8314C195.453 27.0637 195.541 27.325 195.686 27.4412C195.861 27.6154 196.211 27.6444 196.677 27.6444H205.006V29.9675H194.871V29.9965Z" fill="white"/>
<path d="M206.549 27.6737H215.17C216.568 27.6737 216.627 26.5122 216.627 25.9895C216.627 25.3797 216.481 24.6538 215.112 24.2472L208.967 22.3017C208.734 22.2436 207.744 21.8952 207.132 21.1402C206.433 20.2981 206.316 19.0785 206.316 18.2073C206.316 17.2781 206.433 16.1456 207.307 15.3326C208.122 14.5776 209.112 14.4614 209.87 14.4614H218.84V16.7845H210.86C210.452 16.7845 209.986 16.8135 209.637 17.1329C209.258 17.4814 209.229 18.0331 209.229 18.3235C209.229 19.0204 209.433 19.6883 210.685 20.0658L216.394 21.8661C217.442 22.1855 218.141 22.534 218.607 22.9696C219.539 23.8697 219.626 25.2345 219.626 25.9605C219.626 26.9478 219.481 28.0222 218.84 28.8352C218.054 29.8225 217.093 29.9387 216.044 29.9387H206.462V27.6737H206.549Z" fill="white"/>
<path d="M97.9156 13.4736L92.7897 1.16152C92.615 0.754988 92.4694 0.464608 92.2946 0.319418C92.0907 0.116152 91.7995 0 91.45 0C91.1005 0 90.8093 0.116152 90.6054 0.319418C90.4306 0.464608 90.285 0.754988 90.1103 1.16152L84.9844 13.5027V27.7313C84.9844 28.4863 85.13 29.009 85.4504 29.3574C85.7707 29.7059 86.2367 29.8511 86.8483 29.8511H96.0808C96.6924 29.8511 97.1584 29.6768 97.4788 29.3574C97.7991 29.009 97.9448 28.4863 97.9448 27.7313L97.9156 13.4736ZM96.6633 13.4736V15.6805C96.4594 15.5644 96.2264 15.4773 95.9643 15.4482C95.5274 15.3901 95.1197 15.5063 94.7993 15.7386L92.4111 13.2413C92.4985 13.0671 92.5567 12.8929 92.5859 12.7186C92.7024 11.7894 92.0616 10.9473 91.1296 10.8312C90.1977 10.715 89.353 11.3539 89.2365 12.2831C89.1783 12.8348 89.3822 13.3575 89.7608 13.735L88.6832 15.9709C88.6249 15.9709 88.5667 15.9419 88.5084 15.9419C88.2463 15.9128 87.9551 15.9419 87.7221 16.029L86.3532 13.2123L91.0423 1.39382C91.1588 1.10344 91.3044 0.958254 91.45 0.958254C91.5956 0.958254 91.7121 1.10344 91.8577 1.39382L96.6633 13.4736Z" fill="white"/>
<path d="M96.6649 18.5277V27.8198C96.6649 28.1683 96.6066 28.4006 96.4901 28.5168C96.3737 28.6329 96.1407 28.691 95.8203 28.691H87.0829C86.7625 28.691 86.5295 28.6329 86.413 28.5168C86.2965 28.4006 86.2383 28.1683 86.2383 27.8198V14.927L86.9955 16.495C86.7916 16.7273 86.6752 17.0177 86.6169 17.3662C86.5004 18.2954 87.1411 19.1375 88.0731 19.2536C89.0051 19.3698 89.8497 18.731 89.9662 17.8017C90.0245 17.25 89.8206 16.7273 89.4711 16.3789L90.5487 14.1429C90.607 14.1429 90.6652 14.172 90.7235 14.172C91.1312 14.2301 91.539 14.1139 91.8593 13.9106L94.2767 16.4079C94.1893 16.5531 94.1602 16.7273 94.1311 16.9016C94.0146 17.8308 94.6553 18.6729 95.5873 18.789C95.9659 18.8181 96.3445 18.731 96.6649 18.5277Z" fill="#EA524E"/>
</g>
<path opacity="0.95" d="M5.088 27.072C4.256 27.072 3.504 26.888 2.832 26.52C2.168 26.152 1.644 25.644 1.26 24.996C0.884 24.34 0.696 23.608 0.696 22.8C0.696 21.992 0.884 21.264 1.26 20.616C1.644 19.96 2.172 19.448 2.844 19.08C3.516 18.712 4.268 18.528 5.1 18.528C5.724 18.528 6.3 18.632 6.828 18.84C7.356 19.048 7.804 19.352 8.172 19.752L7.608 20.316C6.952 19.652 6.124 19.32 5.124 19.32C4.46 19.32 3.856 19.472 3.312 19.776C2.768 20.08 2.34 20.496 2.028 21.024C1.724 21.552 1.572 22.144 1.572 22.8C1.572 23.456 1.724 24.048 2.028 24.576C2.34 25.104 2.768 25.52 3.312 25.824C3.856 26.128 4.46 26.28 5.124 26.28C6.132 26.28 6.96 25.944 7.608 25.272L8.172 25.836C7.804 26.236 7.352 26.544 6.816 26.76C6.288 26.968 5.712 27.072 5.088 27.072ZM15.6532 26.256V28.524H14.8492V27H9.19716V28.524H8.39316V26.256H8.75316C9.17716 26.232 9.46516 25.92 9.61716 25.32C9.76916 24.72 9.87316 23.88 9.92916 22.8L10.0132 20.688H14.6692V26.256H15.6532ZM10.7092 22.848C10.6692 23.744 10.5932 24.484 10.4812 25.068C10.3692 25.644 10.1692 26.04 9.88116 26.256H13.8172V21.444H10.7812L10.7092 22.848ZM22.8336 24.108H17.5536C17.6016 24.764 17.8536 25.296 18.3096 25.704C18.7656 26.104 19.3416 26.304 20.0376 26.304C20.4296 26.304 20.7896 26.236 21.1176 26.1C21.4456 25.956 21.7296 25.748 21.9696 25.476L22.4496 26.028C22.1696 26.364 21.8176 26.62 21.3936 26.796C20.9776 26.972 20.5176 27.06 20.0136 27.06C19.3656 27.06 18.7896 26.924 18.2856 26.652C17.7896 26.372 17.4016 25.988 17.1216 25.5C16.8416 25.012 16.7016 24.46 16.7016 23.844C16.7016 23.228 16.8336 22.676 17.0976 22.188C17.3696 21.7 17.7376 21.32 18.2016 21.048C18.6736 20.776 19.2016 20.64 19.7856 20.64C20.3696 20.64 20.8936 20.776 21.3576 21.048C21.8216 21.32 22.1856 21.7 22.4496 22.188C22.7136 22.668 22.8456 23.22 22.8456 23.844L22.8336 24.108ZM19.7856 21.372C19.1776 21.372 18.6656 21.568 18.2496 21.96C17.8416 22.344 17.6096 22.848 17.5536 23.472H22.0296C21.9736 22.848 21.7376 22.344 21.3216 21.96C20.9136 21.568 20.4016 21.372 19.7856 21.372ZM29.7626 20.688V27H28.9106V21.444H25.8866L25.8026 23.004C25.7386 24.316 25.5866 25.324 25.3466 26.028C25.1066 26.732 24.6786 27.084 24.0626 27.084C23.8946 27.084 23.6906 27.052 23.4506 26.988L23.5106 26.256C23.6546 26.288 23.7546 26.304 23.8106 26.304C24.1386 26.304 24.3866 26.152 24.5546 25.848C24.7226 25.544 24.8346 25.168 24.8906 24.72C24.9466 24.272 24.9946 23.68 25.0346 22.944L25.1426 20.688H29.7626ZM34.3567 20.64C35.1807 20.64 35.8127 20.848 36.2527 21.264C36.6927 21.672 36.9127 22.28 36.9127 23.088V27H36.0967V26.016C35.9047 26.344 35.6207 26.6 35.2447 26.784C34.8767 26.968 34.4367 27.06 33.9247 27.06C33.2207 27.06 32.6607 26.892 32.2447 26.556C31.8287 26.22 31.6207 25.776 31.6207 25.224C31.6207 24.688 31.8127 24.256 32.1967 23.928C32.5887 23.6 33.2087 23.436 34.0567 23.436H36.0607V23.052C36.0607 22.508 35.9087 22.096 35.6047 21.816C35.3007 21.528 34.8567 21.384 34.2727 21.384C33.8727 21.384 33.4887 21.452 33.1207 21.588C32.7527 21.716 32.4367 21.896 32.1727 22.128L31.7887 21.492C32.1087 21.22 32.4927 21.012 32.9407 20.868C33.3887 20.716 33.8607 20.64 34.3567 20.64ZM34.0567 26.388C34.5367 26.388 34.9487 26.28 35.2927 26.064C35.6367 25.84 35.8927 25.52 36.0607 25.104V24.072H34.0807C33.0007 24.072 32.4607 24.448 32.4607 25.2C32.4607 25.568 32.6007 25.86 32.8807 26.076C33.1607 26.284 33.5527 26.388 34.0567 26.388ZM39.1808 20.688H40.0328V23.484H44.0048V20.688H44.8568V27H44.0048V24.216H40.0328V27H39.1808V20.688ZM49.8824 27.06C49.2744 27.06 48.7264 26.924 48.2384 26.652C47.7504 26.372 47.3664 25.988 47.0864 25.5C46.8064 25.012 46.6664 24.46 46.6664 23.844C46.6664 23.228 46.8064 22.676 47.0864 22.188C47.3664 21.7 47.7504 21.32 48.2384 21.048C48.7264 20.776 49.2744 20.64 49.8824 20.64C50.4904 20.64 51.0384 20.776 51.5264 21.048C52.0144 21.32 52.3944 21.7 52.6664 22.188C52.9464 22.676 53.0864 23.228 53.0864 23.844C53.0864 24.46 52.9464 25.012 52.6664 25.5C52.3944 25.988 52.0144 26.372 51.5264 26.652C51.0384 26.924 50.4904 27.06 49.8824 27.06ZM49.8824 26.304C50.3304 26.304 50.7304 26.204 51.0824 26.004C51.4424 25.796 51.7224 25.504 51.9224 25.128C52.1224 24.752 52.2224 24.324 52.2224 23.844C52.2224 23.364 52.1224 22.936 51.9224 22.56C51.7224 22.184 51.4424 21.896 51.0824 21.696C50.7304 21.488 50.3304 21.384 49.8824 21.384C49.4344 21.384 49.0304 21.488 48.6704 21.696C48.3184 21.896 48.0384 22.184 47.8304 22.56C47.6304 22.936 47.5304 23.364 47.5304 23.844C47.5304 24.324 47.6304 24.752 47.8304 25.128C48.0384 25.504 48.3184 25.796 48.6704 26.004C49.0304 26.204 49.4344 26.304 49.8824 26.304ZM62.0679 23.736C62.9239 23.936 63.3519 24.452 63.3519 25.284C63.3519 25.836 63.1479 26.26 62.7399 26.556C62.3319 26.852 61.7239 27 60.9159 27H58.0479V20.688H60.8319C61.5519 20.688 62.1159 20.828 62.5239 21.108C62.9319 21.388 63.1359 21.788 63.1359 22.308C63.1359 22.652 63.0399 22.948 62.8479 23.196C62.6639 23.436 62.4039 23.616 62.0679 23.736ZM58.8759 23.496H60.7719C61.2599 23.496 61.6319 23.404 61.8879 23.22C62.1519 23.036 62.2839 22.768 62.2839 22.416C62.2839 22.064 62.1519 21.8 61.8879 21.624C61.6319 21.448 61.2599 21.36 60.7719 21.36H58.8759V23.496ZM60.8799 26.328C61.4239 26.328 61.8319 26.24 62.1039 26.064C62.3759 25.888 62.5119 25.612 62.5119 25.236C62.5119 24.86 62.3879 24.584 62.1399 24.408C61.8919 24.224 61.4999 24.132 60.9639 24.132H58.8759V26.328H60.8799Z" fill="white"/>
</svg>
