<svg width="24" height="24" viewBox="0 0 24 24" fill="none" xmlns="http://www.w3.org/2000/svg">
<path d="M11.9996 11.3625C9.00898 11.3625 6.57617 8.92969 6.57617 5.93906C6.57617 2.94844 9.00898 0.515625 11.9996 0.515625C14.9902 0.515625 17.423 2.94844 17.423 5.93906C17.423 8.92969 14.9902 11.3625 11.9996 11.3625ZM11.9996 2.42812C10.0637 2.42812 8.48867 4.00312 8.48867 5.93906C8.48867 7.875 10.0637 9.45 11.9996 9.45C13.9355 9.45 15.5105 7.875 15.5105 5.93906C15.5105 4.00312 13.9355 2.42812 11.9996 2.42812Z" fill="#161616"/>
<path d="M22.5281 23.4844H1.47187C0.942187 23.4844 0.515625 23.0579 0.515625 22.5282C0.515625 19.4016 1.73438 16.4719 3.94219 14.2782C5.36719 12.8625 7.37812 12.0516 9.45469 12.0516H14.5453C16.6266 12.0516 18.6328 12.8625 20.0578 14.2782C22.2656 16.4719 23.4844 19.4016 23.4844 22.5282C23.4844 23.0579 23.0578 23.4844 22.5281 23.4844ZM2.475 21.5719H21.525C21.3094 19.3219 20.325 17.2407 18.7078 15.6375C17.6391 14.5782 16.1203 13.9688 14.5453 13.9688H9.45469C7.875 13.9688 6.36094 14.5782 5.29219 15.6375C3.675 17.2407 2.69062 19.3219 2.475 21.5719Z" fill="#161616"/>
</svg>
