<svg width="34" height="40" viewBox="0 0 34 40" fill="none" xmlns="http://www.w3.org/2000/svg">
<path fill-rule="evenodd" clip-rule="evenodd" d="M33.0875 10.21L24.0675 1.135L23.105 0.75H1.875L0.5 2.125V17.25H3.25V3.5H19.75V13.125L21.125 14.5H30.75V17.25H33.5V11.2L33.0875 10.21ZM22.5 11.75V3.5L30.75 11.75H22.5ZM1.875 20L0.5 21.375V37.875L1.875 39.25H32.125L33.5 37.875V21.375L32.125 20H1.875ZM30.75 33.75V36.5H3.25V22.75H30.75V33.75ZM8.75 31H7.87V33.75H6V25.5H8.915C10.9775 25.5 12.0225 26.49 12.0225 28.25C12.0278 28.6241 11.9519 28.9948 11.8 29.3367C11.648 29.6785 11.4237 29.9833 11.1425 30.23C10.461 30.7612 9.61342 31.034 8.75 31ZM8.585 27.0125H7.87V29.57H8.585C9.575 29.57 10.07 29.13 10.07 28.2775C10.07 27.425 9.575 27.0125 8.585 27.0125ZM19.75 32.595C20.1561 32.195 20.4737 31.7141 20.6822 31.1835C20.8906 30.6529 20.9853 30.0845 20.96 29.515C20.96 26.765 19.5025 25.5 16.56 25.5H13.645V33.75H16.56C17.1417 33.7782 17.7232 33.6906 18.2708 33.4923C18.8184 33.2941 19.3212 32.9891 19.75 32.595ZM15.4875 32.2375V27.0125H16.395C16.7458 26.9902 17.0974 27.0397 17.4283 27.1579C17.7593 27.2761 18.0627 27.4606 18.32 27.7C18.5531 27.9448 18.7342 28.2342 18.8523 28.5509C18.9705 28.8676 19.0233 29.2049 19.0075 29.5425C19.0487 30.2674 18.8016 30.9791 18.32 31.5225C18.0682 31.7634 17.7704 31.9509 17.4443 32.0738C17.1182 32.1967 16.7706 32.2524 16.4225 32.2375H15.4875ZM27.725 30.56H25.0575V33.75H23.1875V25.5H27.9725V27.0125H25.0575V29.0475H27.725V30.56Z" fill="#161616"/>
</svg>
