<svg width="20" height="20" viewBox="0 0 20 20" fill="none" xmlns="http://www.w3.org/2000/svg">
<path d="M19.7221 16.6308L16.9023 19.428C16.4861 19.8549 15.9344 19.9995 15.3971 20.0001C13.0209 19.929 10.7748 18.7617 8.9307 17.5632C5.90367 15.3611 3.12624 12.6305 1.38307 9.33067C0.714503 7.94695 -0.0699637 6.18144 0.00498633 4.63695C0.0116697 4.05595 0.168236 3.48574 0.57742 3.11124L3.39719 0.292885C3.98272 -0.205165 4.54897 -0.032965 4.92367 0.547168L7.19219 4.84887C7.43095 5.35849 7.29399 5.90452 6.93775 6.26867L5.89889 7.307C5.83475 7.39485 5.79392 7.49485 5.79289 7.60369C6.19125 9.14572 7.3981 10.567 8.46424 11.5451C9.53035 12.5233 10.6763 13.8484 12.1639 14.1621C12.3477 14.2134 12.5729 14.2314 12.7045 14.1092L13.913 12.8801C14.3296 12.5644 14.9311 12.41 15.3758 12.6682H15.397L19.4889 15.0839C20.0896 15.4605 20.1522 16.1881 19.7221 16.6308Z" fill="#161616"/>
</svg>
