<svg width="44" height="58" viewBox="0 0 44 58" fill="none" xmlns="http://www.w3.org/2000/svg">
<path d="M22 58C22 58 43.75 37.3883 43.75 21.75C43.75 15.9815 41.4585 10.4493 37.3796 6.37043C33.3007 2.29151 27.7685 0 22 0C16.2315 0 10.6993 2.29151 6.62043 6.37043C2.54151 10.4493 0.25 15.9815 0.25 21.75C0.25 37.3883 22 58 22 58ZM22 32.625C19.1158 32.625 16.3497 31.4792 14.3102 29.4398C12.2708 27.4003 11.125 24.6342 11.125 21.75C11.125 18.8658 12.2708 16.0997 14.3102 14.0602C16.3497 12.0208 19.1158 10.875 22 10.875C24.8842 10.875 27.6503 12.0208 29.6898 14.0602C31.7292 16.0997 32.875 18.8658 32.875 21.75C32.875 24.6342 31.7292 27.4003 29.6898 29.4398C27.6503 31.4792 24.8842 32.625 22 32.625Z" fill="#F5DF4D"/>
</svg>
