<svg width="224" height="224" viewBox="0 0 224 224" fill="none" xmlns="http://www.w3.org/2000/svg">
<g opacity="0.1" filter="url(#filter0_f)">
<path d="M140 119H181.23C179.929 127.664 176.835 135.961 172.147 143.361C167.458 150.762 161.278 157.103 154 161.98L141.47 170.38L149.17 182L161.7 173.6C172.247 166.571 180.896 157.048 186.879 145.875C192.863 134.702 195.996 122.224 196 109.55V63C196 59.287 194.525 55.726 191.899 53.1005C189.274 50.475 185.713 49 182 49H140C136.287 49 132.726 50.475 130.101 53.1005C127.475 55.726 126 59.287 126 63V105C126 108.713 127.475 112.274 130.101 114.899C132.726 117.525 136.287 119 140 119Z" fill="#222222"/>
<path d="M42 119H83.23C81.929 127.664 78.8355 135.961 74.1469 143.361C69.4583 150.762 63.2777 157.103 56 161.98L43.47 170.38L51.1 182L63.7 173.6C74.2471 166.571 82.896 157.048 88.8795 145.875C94.8629 134.702 97.9958 122.224 98 109.55V63C98 59.287 96.525 55.726 93.8995 53.1005C91.274 50.475 87.713 49 84 49H42C38.287 49 34.726 50.475 32.1005 53.1005C29.475 55.726 28 59.287 28 63V105C28 108.713 29.475 112.274 32.1005 114.899C34.726 117.525 38.287 119 42 119Z" fill="#222222"/>
</g>
<defs>
<filter id="filter0_f" x="-2" y="-2" width="228" height="228" filterUnits="userSpaceOnUse" color-interpolation-filters="sRGB">
<feFlood flood-opacity="0" result="BackgroundImageFix"/>
<feBlend mode="normal" in="SourceGraphic" in2="BackgroundImageFix" result="shape"/>
<feGaussianBlur stdDeviation="1" result="effect1_foregroundBlur"/>
</filter>
</defs>
</svg>
