<svg width="24" height="19" viewBox="0 0 24 19" fill="none" xmlns="http://www.w3.org/2000/svg">
<path fill-rule="evenodd" clip-rule="evenodd" d="M10.874 5C10.9562 4.68038 11 4.3453 11 4C11 3.6547 10.9562 3.31962 10.874 3H24V5H10.874ZM3.12602 5H0V3H3.12602C3.04375 3.31962 3 3.6547 3 4C3 4.3453 3.04375 4.68038 3.12602 5Z" fill="#161616"/>
<path fill-rule="evenodd" clip-rule="evenodd" d="M7 8C9.20914 8 11 6.20914 11 4C11 1.79086 9.20914 0 7 0C4.79086 0 3 1.79086 3 4C3 6.20914 4.79086 8 7 8ZM7 6C8.10457 6 9 5.10457 9 4C9 2.89543 8.10457 2 7 2C5.89543 2 5 2.89543 5 4C5 5.10457 5.89543 6 7 6Z" fill="#161616"/>
<path fill-rule="evenodd" clip-rule="evenodd" d="M13.126 16C13.0438 15.6804 13 15.3453 13 15C13 14.6547 13.0438 14.3196 13.126 14H0V16H13.126ZM20.874 16H24V14H20.874C20.9562 14.3196 21 14.6547 21 15C21 15.3453 20.9562 15.6804 20.874 16Z" fill="#161616"/>
<path fill-rule="evenodd" clip-rule="evenodd" d="M17 19C14.7909 19 13 17.2091 13 15C13 12.7909 14.7909 11 17 11C19.2091 11 21 12.7909 21 15C21 17.2091 19.2091 19 17 19ZM17 17C15.8954 17 15 16.1046 15 15C15 13.8954 15.8954 13 17 13C18.1046 13 19 13.8954 19 15C19 16.1046 18.1046 17 17 17Z" fill="#161616"/>
</svg>
