<svg width="35" height="23" viewBox="0 0 35 23" fill="none" xmlns="http://www.w3.org/2000/svg">
<path d="M0.378906 3.16071C0.378906 2.02232 1.02623 1.40848 2.32087 1.3192L7.30971 1.35268C7.64453 1.35268 7.86775 1.52009 7.97935 1.85491C8.49275 3.52902 9.06752 4.97433 9.70368 6.19085C10.3398 7.40737 11.1713 8.80804 12.1981 10.3929C12.2874 10.5938 12.4325 10.6942 12.6334 10.6942C12.7896 10.6942 12.9124 10.6161 13.0017 10.4598L13.1021 10.0915L13.1356 4.29911C13.1356 3.89732 13.0407 3.62946 12.851 3.49554C12.6613 3.36161 12.3097 3.26116 11.7963 3.1942C11.3945 3.12723 11.1936 2.8817 11.1936 2.45759C11.1936 2.3683 11.2048 2.30134 11.2271 2.2567C11.6959 0.805804 13.0352 0.0803571 15.245 0.0803571L17.12 0.046875C17.9682 0.046875 18.6713 0.258929 19.2294 0.683036C19.7874 1.10714 20.0664 1.77679 20.0664 2.69196V10.2924C20.2227 10.404 20.3677 10.4598 20.5017 10.4598C20.8365 10.4598 21.1267 10.2589 21.3722 9.85714C23.8276 6.41964 25.1557 4.12054 25.3566 2.95982C25.3566 2.9375 25.3789 2.8817 25.4235 2.79241C25.5798 2.45759 25.8365 2.16741 26.1936 1.92188C26.5508 1.67634 26.8633 1.50893 27.1311 1.41964C27.2204 1.375 27.3209 1.35268 27.4325 1.35268H32.6222L32.957 1.38616C33.4035 1.38616 33.7494 1.59821 33.995 2.02232C34.0843 2.15625 34.1456 2.30134 34.1791 2.45759C34.2126 2.61384 34.2349 2.77009 34.2461 2.92634C34.2573 3.08259 34.2628 3.17188 34.2628 3.1942V3.42857C34.1066 4.34375 33.7104 5.32031 33.0742 6.35826C32.4381 7.39621 31.6289 8.51786 30.6468 9.72322C29.6646 10.9286 29.0508 11.721 28.8052 12.1004C28.6044 12.3683 28.5039 12.6138 28.5039 12.8371C28.5039 13.0156 28.5932 13.2165 28.7718 13.4397L33.6602 19.6004C33.928 19.9576 34.0619 20.3482 34.0619 20.7723C34.0619 21.2857 33.861 21.7098 33.4593 22.0446C33.0575 22.3795 32.5776 22.5692 32.0195 22.6138L31.4503 22.6473H26.361C26.3387 22.6473 26.2941 22.6529 26.2271 22.6641C26.1602 22.6752 26.1155 22.6808 26.0932 22.6808C25.6021 22.6808 25.1445 22.4688 24.7204 22.0446C24.5642 21.8661 23.5151 20.5491 21.5731 18.0938C21.4615 17.9375 21.3052 17.7924 21.1044 17.6585C21.0151 18.0156 20.8979 18.529 20.7528 19.1987C20.6077 19.8683 20.5017 20.3482 20.4347 20.6384L20.3343 21.2076C20.111 21.9888 19.6423 22.4576 18.928 22.6138L18.4593 22.6473H15.178C13.3253 22.6473 11.4782 21.7991 9.63672 20.1027C7.7952 18.4063 6.13783 16.2132 4.66462 13.5234C3.19141 10.8337 1.81864 7.70313 0.546317 4.1317C0.43471 3.84152 0.378906 3.51786 0.378906 3.16071ZM20.5017 11.8326C20.0329 11.8326 19.6088 11.7042 19.2294 11.4475C18.8499 11.1908 18.6602 10.8393 18.6602 10.3929V2.69196C18.6602 2.24554 18.5485 1.92746 18.3253 1.73772C18.1021 1.54799 17.7115 1.45313 17.1535 1.45313L15.245 1.52009C14.2852 1.52009 13.5597 1.6875 13.0686 2.02232C14.0508 2.49107 14.5419 3.25 14.5419 4.29911V10.192C14.4972 10.75 14.274 11.2132 13.8722 11.5815C13.4704 11.9498 13.024 12.1339 12.5329 12.1339C11.8633 12.1339 11.3499 11.8103 10.9927 11.1629C9.25167 8.52902 7.95703 6.02902 7.10882 3.66295L6.80748 2.79241L2.35435 2.75893C2.06417 2.75893 1.90234 2.77567 1.86886 2.80915C1.83538 2.84263 1.81864 2.9375 1.81864 3.09375C1.81864 3.29464 1.84096 3.5067 1.8856 3.72991L2.58873 5.60491C4.46373 10.4487 6.50056 14.2656 8.69922 17.0558C10.8979 19.846 13.0575 21.2411 15.178 21.2411H18.5262C18.6602 21.2411 18.7606 21.202 18.8276 21.1239C18.8945 21.0458 18.9503 20.8951 18.995 20.6719L19.0619 20.3371L19.6981 17.3906C19.8767 16.9888 20.0329 16.721 20.1669 16.5871C20.4124 16.3415 20.7026 16.2188 21.0374 16.2188C21.5731 16.2188 22.12 16.5424 22.678 17.1897L25.524 20.8058C25.7026 21.096 25.8923 21.2411 26.0932 21.2411H31.6177C32.2874 21.2411 32.6222 21.0737 32.6222 20.7388C32.6222 20.6272 32.5887 20.5156 32.5218 20.404L27.6669 14.3438C27.2874 13.875 27.0977 13.3728 27.0977 12.8371C27.0977 12.3013 27.2762 11.7879 27.6334 11.2969C27.9235 10.8504 28.4872 10.1083 29.3242 9.07031C30.1613 8.03237 30.8923 7.06138 31.5173 6.15737C32.1423 5.25335 32.5552 4.43304 32.7561 3.69643L32.8566 3.26116C32.8343 3.21652 32.8231 3.14397 32.8231 3.04353C32.8231 2.94308 32.8119 2.85938 32.7896 2.79241H27.5329C27.1981 2.92634 26.9302 3.12723 26.7294 3.39509L26.5285 4.03125C25.9704 5.57143 24.5084 7.94866 22.1423 11.1629C21.6735 11.6094 21.1267 11.8326 20.5017 11.8326Z" fill="white"/>
</svg>
