<svg width="24" height="24" viewBox="0 0 24 24" fill="none" xmlns="http://www.w3.org/2000/svg">
<path fill-rule="evenodd" clip-rule="evenodd" d="M20.0037 4.04124C18.9642 2.99485 17.7273 2.16514 16.3648 1.60018C15.0023 1.03522 13.5412 0.746241 12.0663 0.74999C5.88125 0.74999 0.84625 5.78374 0.84375 11.9712C0.84375 13.9487 1.36 15.8787 2.34125 17.5812L0.75 23.395L6.69875 21.8337C8.34424 22.7295 10.1877 23.1992 12.0612 23.2H12.0663C18.25 23.2 23.285 18.1662 23.2875 11.9787C23.2917 10.5043 23.0037 9.04373 22.4401 7.68132C21.8765 6.3189 21.0484 5.08171 20.0037 4.04124ZM12.0663 21.3062H12.0625C10.3919 21.3064 8.75204 20.8569 7.315 20.005L6.975 19.8025L3.445 20.7287L4.38625 17.2875L4.165 16.935C3.23098 15.448 2.73654 13.7272 2.73875 11.9712C2.74125 6.82874 6.925 2.64499 12.07 2.64499C13.2953 2.64227 14.509 2.88259 15.6408 3.35205C16.7726 3.82152 17.8001 4.51079 18.6637 5.37999C19.532 6.24504 20.2202 7.27361 20.6886 8.40624C21.157 9.53887 21.3962 10.7531 21.3925 11.9787C21.39 17.1212 17.2063 21.3062 12.0663 21.3062ZM17.1825 14.32C16.9013 14.1787 15.5238 13.5012 15.2662 13.4075C15.01 13.3137 14.8238 13.2675 14.6363 13.5475C14.4488 13.8275 13.9113 14.4587 13.7475 14.6462C13.5837 14.8337 13.42 14.8562 13.14 14.7162C12.86 14.5762 11.9563 14.28 10.885 13.325C10.0512 12.5812 9.48875 11.6637 9.325 11.3825C9.16125 11.1012 9.3075 10.95 9.44875 10.81C9.575 10.685 9.72875 10.4825 9.86875 10.3187C10.0087 10.155 10.055 10.0387 10.1488 9.85124C10.2425 9.66374 10.1962 9.49999 10.125 9.35999C10.055 9.21874 9.49375 7.83874 9.26 7.27749C9.03375 6.73374 8.8025 6.80624 8.63 6.79874C8.45135 6.79143 8.27255 6.7881 8.09375 6.78874C7.95157 6.79236 7.81167 6.82532 7.68283 6.88555C7.55398 6.94578 7.43897 7.03198 7.345 7.13874C7.0875 7.41999 6.36375 8.09749 6.36375 9.47749C6.36375 10.8575 7.36875 12.1912 7.50875 12.3787C7.64875 12.5662 9.48625 15.3975 12.2987 16.6125C12.9688 16.9012 13.4913 17.0737 13.8975 17.2037C14.5687 17.4175 15.18 17.3862 15.6637 17.315C16.2025 17.235 17.3225 16.6375 17.5562 15.9825C17.79 15.3275 17.79 14.7662 17.72 14.6487C17.65 14.5312 17.4613 14.46 17.1825 14.32Z" fill="#161616"/>
</svg>
