<svg width="33" height="39" viewBox="0 0 33 39" fill="none" xmlns="http://www.w3.org/2000/svg">
<g clip-path="url(#clip0)">
<path d="M31.5391 8.16406C31.9401 8.5651 32.2839 9.10938 32.5703 9.79688C32.8568 10.4844 33 11.1146 33 11.6875V36.4375C33 37.0104 32.7995 37.4974 32.3984 37.8984C31.9974 38.2995 31.5104 38.5 30.9375 38.5H2.0625C1.48958 38.5 1.0026 38.2995 0.601562 37.8984C0.200521 37.4974 0 37.0104 0 36.4375V2.0625C0 1.48958 0.200521 1.0026 0.601562 0.601562C1.0026 0.200521 1.48958 0 2.0625 0H21.3125C21.8854 0 22.5156 0.143229 23.2031 0.429688C23.8906 0.716146 24.4349 1.0599 24.8359 1.46094L31.5391 8.16406ZM22 2.92188V11H30.0781C29.9349 10.5846 29.7773 10.291 29.6055 10.1191L22.8809 3.39453C22.709 3.22266 22.4154 3.0651 22 2.92188ZM30.25 35.75V13.75H21.3125C20.7396 13.75 20.2526 13.5495 19.8516 13.1484C19.4505 12.7474 19.25 12.2604 19.25 11.6875V2.75H2.75V35.75H30.25ZM5.00586 16.5V18.7988H6.50977L10.0332 33H13.4492L16.1992 22.5801C16.2995 22.2936 16.3711 21.9642 16.4141 21.5918C16.4427 21.3626 16.457 21.1908 16.457 21.0762H16.543L16.6074 21.5918C16.6217 21.6348 16.6468 21.778 16.6826 22.0215C16.7184 22.265 16.7578 22.4512 16.8008 22.5801L19.5508 33H22.9668L26.4902 18.7988H27.9941V16.5H21.5488V18.7988H23.4824L21.3555 28.209C21.2839 28.4954 21.2337 28.8249 21.2051 29.1973L21.1621 29.6484H21.0762C21.0762 29.6055 21.0726 29.5589 21.0654 29.5088C21.0583 29.4587 21.0475 29.4014 21.0332 29.3369C21.0189 29.2725 21.0117 29.2259 21.0117 29.1973C20.9974 29.1257 20.9688 28.9753 20.9258 28.7461C20.8828 28.5169 20.847 28.3379 20.8184 28.209L17.7246 16.5H15.2754L12.1816 28.209C12.153 28.3379 12.1208 28.5133 12.085 28.7354C12.0492 28.9574 12.0241 29.1113 12.0098 29.1973L11.9238 29.6484H11.8379L11.7949 29.1973C11.7663 28.8249 11.7161 28.4954 11.6445 28.209L9.51758 18.7988H11.4512V16.5H5.00586Z" fill="black"/>
</g>
<defs>
<clipPath id="clip0">
<rect width="33" height="38.5" fill="white"/>
</clipPath>
</defs>
</svg>
