<svg width="291" height="92" fill="none" xmlns="http://www.w3.org/2000/svg"><path d="M38.656 0v89.6H17.92V16.64H0V0h38.656zm46.285 33.664c12.63 0 21.931 2.517 27.904 7.552 6.059 5.035 9.088 11.776 9.088 20.224 0 5.462-1.365 10.454-4.096 14.976-2.73 4.438-6.912 8.022-12.544 10.752-5.546 2.646-12.416 3.968-20.608 3.968-6.314 0-12.544-.81-18.688-2.432-6.059-1.706-11.221-4.096-15.488-7.168l8.192-15.872c3.413 2.56 7.339 4.566 11.776 6.016a46.31 46.31 0 0013.696 2.048c5.206 0 9.302-1.024 12.288-3.072 2.987-2.048 4.48-4.907 4.48-8.576 0-3.84-1.578-6.741-4.736-8.704-3.072-1.962-8.448-2.944-16.128-2.944H57.165L61.773 0h54.656v16.64H79.053l-1.408 17.024h7.296zm68.985-16.007v16.832h-2.272V19.673h-8.064l-.224 4.16c-.171 3.499-.576 6.187-1.216 8.064-.64 1.877-1.782 2.816-3.424 2.816-.448 0-.992-.085-1.632-.256l.16-1.952c.384.085.65.128.8.128.874 0 1.536-.405 1.984-1.216.448-.81.746-1.813.896-3.008.149-1.195.277-2.773.384-4.736l.288-6.016h12.32zm21.179 9.12h-14.08c.128 1.75.8 3.168 2.016 4.256 1.216 1.067 2.752 1.6 4.608 1.6 1.045 0 2.005-.181 2.88-.544a6.469 6.469 0 002.272-1.664l1.28 1.472c-.747.896-1.686 1.579-2.816 2.048-1.11.47-2.336.704-3.68.704-1.728 0-3.264-.363-4.608-1.088a8.096 8.096 0 01-3.104-3.072c-.747-1.301-1.12-2.773-1.12-4.416 0-1.643.352-3.115 1.056-4.416.725-1.301 1.706-2.315 2.944-3.04 1.258-.725 2.666-1.088 4.224-1.088 1.557 0 2.954.363 4.192 1.088 1.237.725 2.208 1.739 2.912 3.04.704 1.28 1.056 2.752 1.056 4.416l-.032.704zm-8.128-7.296c-1.622 0-2.987.523-4.096 1.568-1.088 1.024-1.707 2.368-1.856 4.032h11.936c-.15-1.664-.779-3.008-1.888-4.032-1.088-1.045-2.454-1.568-4.096-1.568zm24.279.192h-6.368v14.816h-2.272V19.673h-6.368v-2.016h15.008v2.016zm-51.09 37.095h2.272v7.456h10.592v-7.456h2.272V73.6h-2.272v-7.424h-10.592V73.6h-2.272V56.768zm27.386-.128c2.197 0 3.882.555 5.056 1.664 1.173 1.088 1.76 2.71 1.76 4.864V73.6h-2.176v-2.624c-.512.875-1.27 1.558-2.272 2.048-.982.49-2.155.736-3.52.736-1.878 0-3.371-.448-4.48-1.344-1.11-.896-1.664-2.08-1.664-3.552 0-1.43.512-2.581 1.536-3.456 1.045-.874 2.698-1.312 4.96-1.312h5.344v-1.024c0-1.45-.406-2.55-1.216-3.296-.811-.768-1.995-1.152-3.552-1.152a8.788 8.788 0 00-3.072.544c-.982.342-1.824.822-2.528 1.44l-1.024-1.696c.853-.725 1.877-1.28 3.072-1.664a11.666 11.666 0 013.776-.608zm-.8 15.328c1.28 0 2.378-.288 3.296-.864.917-.597 1.6-1.45 2.048-2.56v-2.752h-5.28c-2.88 0-4.32 1.003-4.32 3.008 0 .981.373 1.76 1.12 2.336.746.555 1.792.832 3.136.832zm30.711-15.328c1.579 0 3.008.363 4.288 1.088a7.555 7.555 0 013.008 3.008c.725 1.302 1.088 2.784 1.088 4.448 0 1.686-.363 3.179-1.088 4.48a7.774 7.774 0 01-3.008 3.04c-1.259.704-2.688 1.056-4.288 1.056-1.365 0-2.603-.277-3.712-.832-1.088-.576-1.984-1.408-2.688-2.496v9.376h-2.272v-23.04h2.176v3.328a7.035 7.035 0 012.688-2.56c1.131-.597 2.4-.896 3.808-.896zm-.16 15.104c1.173 0 2.24-.266 3.2-.8a5.763 5.763 0 002.24-2.336c.555-1.002.832-2.144.832-3.424 0-1.28-.277-2.41-.832-3.392a5.762 5.762 0 00-2.24-2.336c-.96-.555-2.027-.832-3.2-.832-1.195 0-2.272.277-3.232.832-.939.555-1.685 1.333-2.24 2.336-.533.981-.8 2.112-.8 3.392 0 1.28.267 2.422.8 3.424.555 1.003 1.301 1.781 2.24 2.336.96.534 2.037.8 3.232.8zM217.8 62.72c2.112.022 3.723.49 4.832 1.408 1.11.918 1.664 2.24 1.664 3.968 0 1.792-.597 3.168-1.792 4.128-1.194.96-2.901 1.43-5.12 1.408l-6.656-.032V56.768H213v5.888l4.8.064zm9.313-5.952h2.272V73.6h-2.272V56.768zm-9.857 15.136c1.558.022 2.731-.288 3.52-.928.811-.661 1.216-1.621 1.216-2.88 0-1.237-.394-2.154-1.184-2.752-.789-.597-1.973-.906-3.552-.928L213 64.352v7.488l4.256.064zm18.598-15.136h2.272v7.456h10.592v-7.456h2.272V73.6h-2.272v-7.424h-10.592V73.6h-2.272V56.768zm27.705 9.344h-3.84V73.6h-2.272V56.768h2.272v7.392h3.872l5.92-7.392h2.464l-6.624 8.16 7.104 8.672h-2.688l-6.208-7.488zm26.608-.224h-14.08c.128 1.75.8 3.168 2.016 4.256 1.216 1.067 2.752 1.6 4.608 1.6 1.046 0 2.006-.181 2.88-.544a6.46 6.46 0 002.272-1.664l1.28 1.472c-.746.896-1.685 1.579-2.816 2.048-1.109.47-2.336.704-3.68.704-1.728 0-3.264-.363-4.608-1.088a8.11 8.11 0 01-3.104-3.072c-.746-1.301-1.12-2.773-1.12-4.416 0-1.642.352-3.114 1.056-4.416.726-1.301 1.707-2.315 2.944-3.04 1.259-.725 2.667-1.088 4.224-1.088 1.558 0 2.955.363 4.192 1.088 1.238.725 2.208 1.739 2.912 3.04.704 1.28 1.056 2.752 1.056 4.416l-.032.704zm-8.128-7.296c-1.621 0-2.986.523-4.096 1.568-1.088 1.024-1.706 2.368-1.856 4.032h11.936c-.149-1.664-.778-3.008-1.888-4.032-1.088-1.045-2.453-1.568-4.096-1.568z" fill="#161616"/></svg>