<svg width="384" height="90" fill="none" xmlns="http://www.w3.org/2000/svg"><path d="M83.072 70.784H68.48V89.6H48.256V70.784H0V56.832L42.24 0H64L24.832 53.888h24.064V37.12H68.48v16.768h14.592v16.896zm27.588-42.222h-6.368v14.816h-2.272V28.562h-6.368v-2.016h15.008v2.016zm9.448 14.976c-1.621 0-3.083-.363-4.384-1.088a8.173 8.173 0 01-3.072-3.072c-.747-1.301-1.12-2.773-1.12-4.416 0-1.643.373-3.115 1.12-4.416a7.942 7.942 0 013.072-3.04c1.301-.726 2.763-1.088 4.384-1.088 1.621 0 3.083.363 4.384 1.088a7.71 7.71 0 013.04 3.04c.747 1.301 1.12 2.773 1.12 4.416 0 1.642-.373 3.114-1.12 4.416a7.93 7.93 0 01-3.04 3.072c-1.301.725-2.763 1.088-4.384 1.088zm0-2.016c1.195 0 2.262-.267 3.2-.8a5.763 5.763 0 002.24-2.336c.534-1.003.8-2.144.8-3.424 0-1.28-.266-2.422-.8-3.424a5.555 5.555 0 00-2.24-2.304c-.938-.555-2.005-.832-3.2-.832-1.195 0-2.272.277-3.232.832-.939.533-1.685 1.301-2.24 2.304-.533 1.003-.8 2.144-.8 3.424 0 1.28.267 2.421.8 3.424.555 1.003 1.301 1.781 2.24 2.336.96.533 2.037.8 3.232.8zm26.104-14.976v16.832h-2.272V36.37c-1.941.853-3.851 1.28-5.728 1.28-2.027 0-3.605-.459-4.736-1.376-1.131-.939-1.696-2.336-1.696-4.192v-5.536h2.272v5.408c0 1.258.405 2.218 1.216 2.88.811.64 1.931.96 3.36.96 1.579 0 3.349-.416 5.312-1.248v-8h2.272zm12.564 9.344h-3.84v7.488h-2.272V26.546h2.272v7.392h3.872l5.92-7.392h2.464l-6.624 8.16 7.104 8.672h-2.688l-6.208-7.488zm12.482-9.344h2.272v13.376l11.232-13.376h2.016v16.832h-2.272V30.002l-11.2 13.376h-2.048V26.546zm-57.334 39.111V82.49h-2.272V67.673h-10.56V82.49H98.82V65.657h15.104zm15.131-.127c1.579 0 3.008.362 4.288 1.087a7.555 7.555 0 013.008 3.008c.725 1.301 1.088 2.784 1.088 4.448 0 1.685-.363 3.179-1.088 4.48a7.774 7.774 0 01-3.008 3.04c-1.259.704-2.688 1.056-4.288 1.056-1.365 0-2.603-.277-3.712-.832-1.088-.576-1.984-1.408-2.688-2.496v9.376h-2.272v-23.04h2.176v3.328a7.035 7.035 0 012.688-2.56c1.131-.597 2.4-.896 3.808-.896zm-.16 15.103c1.173 0 2.24-.267 3.2-.8a5.763 5.763 0 002.24-2.336c.555-1.003.832-2.144.832-3.424 0-1.28-.277-2.41-.832-3.392a5.762 5.762 0 00-2.24-2.336c-.96-.555-2.027-.832-3.2-.832-1.195 0-2.272.277-3.232.832-.939.555-1.685 1.333-2.24 2.336-.533.981-.8 2.112-.8 3.392 0 1.28.267 2.421.8 3.424.555 1.003 1.301 1.781 2.24 2.336.96.533 2.037.8 3.232.8zm20.369 2.017c-1.621 0-3.082-.364-4.384-1.089a8.173 8.173 0 01-3.072-3.072c-.746-1.301-1.12-2.773-1.12-4.416 0-1.643.374-3.115 1.12-4.416a7.94 7.94 0 013.072-3.04c1.302-.725 2.763-1.088 4.384-1.088 1.622 0 3.083.363 4.385 1.088a7.722 7.722 0 013.04 3.04c.746 1.301 1.12 2.773 1.12 4.416 0 1.643-.374 3.115-1.12 4.416a7.944 7.944 0 01-3.04 3.072c-1.302.725-2.763 1.088-4.385 1.088zm0-2.017c1.195 0 2.262-.267 3.201-.8a5.77 5.77 0 002.24-2.336c.533-1.003.8-2.144.8-3.424 0-1.28-.267-2.421-.8-3.424-.534-1.003-1.28-1.77-2.24-2.304-.939-.555-2.006-.832-3.201-.832-1.194 0-2.272.277-3.232.832-.938.533-1.685 1.301-2.24 2.304-.533 1.003-.8 2.144-.8 3.424 0 1.28.267 2.421.8 3.424.555 1.003 1.302 1.781 2.24 2.336.96.533 2.038.8 3.232.8zm29.723-.128v6.048h-2.144V82.49h-15.072v4.064h-2.144v-6.048h.96c1.13-.064 1.898-.896 2.304-2.496.405-1.6.682-3.84.832-6.72l.224-5.632h12.416v14.848h2.624zm-13.184-9.088c-.107 2.39-.31 4.363-.608 5.92-.299 1.536-.832 2.592-1.6 3.168h10.496V67.673h-8.096l-.192 3.744zm23.403-5.887c2.198 0 3.883.554 5.056 1.663 1.174 1.088 1.76 2.71 1.76 4.864V82.49h-2.176v-2.624c-.512.875-1.269 1.557-2.272 2.048-.981.49-2.154.736-3.52.736-1.877 0-3.37-.448-4.48-1.344-1.109-.896-1.664-2.08-1.664-3.552 0-1.43.512-2.581 1.536-3.456 1.046-.875 2.699-1.312 4.96-1.312h5.344v-1.024c0-1.45-.405-2.55-1.216-3.296-.81-.768-1.994-1.152-3.552-1.152-1.066 0-2.09.181-3.072.544-.981.341-1.824.821-2.528 1.44l-1.024-1.696c.854-.725 1.878-1.28 3.072-1.664a11.675 11.675 0 013.776-.608zm-.8 15.327c1.28 0 2.379-.288 3.296-.864.918-.597 1.6-1.45 2.048-2.56v-2.752h-5.28c-2.88 0-4.32 1.003-4.32 3.008 0 .981.374 1.76 1.12 2.336.747.555 1.792.832 3.136.832zm28.417-5.856h-3.648v7.488h-2.272v-7.488h-3.648l-5.152 7.488h-2.72l6.048-8.672-5.568-8.16h2.464l4.928 7.392h3.648v-7.392h2.272v7.392h3.648l4.96-7.392h2.464l-5.568 8.192 6.048 8.64h-2.72l-5.184-7.488zm27.004 7.649c-1.621 0-3.082-.364-4.384-1.089a8.173 8.173 0 01-3.072-3.072c-.746-1.301-1.12-2.773-1.12-4.416 0-1.643.374-3.115 1.12-4.416a7.94 7.94 0 013.072-3.04c1.302-.725 2.763-1.088 4.384-1.088 1.622 0 3.083.363 4.384 1.088a7.71 7.71 0 013.04 3.04c.747 1.301 1.12 2.773 1.12 4.416 0 1.643-.373 3.115-1.12 4.416a7.93 7.93 0 01-3.04 3.072c-1.301.725-2.762 1.088-4.384 1.088zm0-2.017c1.195 0 2.262-.267 3.2-.8a5.763 5.763 0 002.24-2.336c.534-1.003.8-2.144.8-3.424 0-1.28-.266-2.421-.8-3.424a5.555 5.555 0 00-2.24-2.304c-.938-.555-2.005-.832-3.2-.832-1.194 0-2.272.277-3.232.832-.938.533-1.685 1.301-2.24 2.304-.533 1.003-.8 2.144-.8 3.424 0 1.28.267 2.421.8 3.424.555 1.003 1.302 1.781 2.24 2.336.96.533 2.038.8 3.232.8zm33.72-6.592c0 2.624-.864 4.683-2.592 6.176-1.728 1.493-4.171 2.304-7.328 2.432v6.048h-2.208v-6.016c-3.136-.128-5.568-.938-7.296-2.432-1.707-1.515-2.56-3.584-2.56-6.208 0-2.603.853-4.64 2.56-6.112 1.728-1.472 4.16-2.272 7.296-2.4v-6.784h2.208v6.784c3.157.15 5.6.96 7.328 2.432 1.728 1.472 2.592 3.499 2.592 6.08zm-19.744 0c0 2.005.64 3.573 1.92 4.704 1.301 1.13 3.2 1.77 5.696 1.92v-13.12c-2.475.128-4.363.757-5.664 1.888-1.301 1.11-1.952 2.645-1.952 4.608zm9.824 6.624c2.496-.128 4.395-.757 5.696-1.888 1.323-1.13 1.984-2.71 1.984-4.736 0-1.984-.661-3.53-1.984-4.64-1.301-1.11-3.2-1.728-5.696-1.856v13.12zm35.045-6.624c0 2.624-.864 4.683-2.592 6.176-1.728 1.493-4.171 2.304-7.328 2.432v6.048h-2.208v-6.016c-3.136-.128-5.568-.938-7.296-2.432-1.707-1.515-2.56-3.584-2.56-6.208 0-2.603.853-4.64 2.56-6.112 1.728-1.472 4.16-2.272 7.296-2.4v-6.784h2.208v6.784c3.157.15 5.6.96 7.328 2.432 1.728 1.472 2.592 3.499 2.592 6.08zm-19.744 0c0 2.005.64 3.573 1.92 4.704 1.301 1.13 3.2 1.77 5.696 1.92v-13.12c-2.475.128-4.363.757-5.664 1.888-1.301 1.11-1.952 2.645-1.952 4.608zm9.824 6.624c2.496-.128 4.395-.757 5.696-1.888 1.323-1.13 1.984-2.71 1.984-4.736 0-1.984-.661-3.53-1.984-4.64-1.301-1.11-3.2-1.728-5.696-1.856v13.12zm28.391-15.008V82.49h-2.272V67.673h-8.064l-.224 4.16c-.17 3.499-.576 6.187-1.216 8.064-.64 1.877-1.781 2.816-3.424 2.816-.448 0-.992-.085-1.632-.256l.16-1.952c.384.085.651.128.8.128.875 0 1.536-.405 1.984-1.216.448-.81.747-1.813.896-3.008.15-1.195.278-2.773.384-4.736l.288-6.016h12.32zm12.251-.127c2.198 0 3.883.554 5.056 1.663 1.174 1.088 1.76 2.71 1.76 4.864V82.49h-2.176v-2.624c-.512.875-1.269 1.557-2.272 2.048-.981.49-2.154.736-3.52.736-1.877 0-3.37-.448-4.48-1.344-1.109-.896-1.664-2.08-1.664-3.552 0-1.43.512-2.581 1.536-3.456 1.046-.875 2.699-1.312 4.96-1.312h5.344v-1.024c0-1.45-.405-2.55-1.216-3.296-.81-.768-1.994-1.152-3.552-1.152-1.066 0-2.09.181-3.072.544-.981.341-1.824.821-2.528 1.44l-1.024-1.696c.854-.725 1.878-1.28 3.072-1.664a11.675 11.675 0 013.776-.608zm-.8 15.327c1.28 0 2.379-.288 3.296-.864.918-.597 1.6-1.45 2.048-2.56v-2.752h-5.28c-2.88 0-4.32 1.003-4.32 3.008 0 .981.374 1.76 1.12 2.336.747.555 1.792.832 3.136.832zm13.665-15.2h2.272v13.376l11.232-13.376h2.016V82.49h-2.272V69.113l-11.2 13.376h-2.048V65.657zm7.648-2.432c-1.451 0-2.603-.363-3.456-1.088-.854-.725-1.291-1.75-1.312-3.072h1.632c.021.832.32 1.504.896 2.016.576.49 1.322.736 2.24.736.917 0 1.664-.245 2.24-.736.597-.512.906-1.184.928-2.016h1.632c-.022 1.323-.47 2.347-1.344 3.072-.854.725-2.006 1.088-3.456 1.088zm14.383 2.432h2.272v7.456h10.592v-7.456h2.272V82.49h-2.272v-7.424h-10.592v7.424h-2.272V65.657z" fill="#161616"/></svg>