<svg width="427" height="101" fill="none" xmlns="http://www.w3.org/2000/svg"><path d="M127.84 80.512h-14.592v18.816H93.024V80.512H44.768V66.56l42.24-56.832h21.76L69.6 63.616h24.064V46.848h19.584v16.768h14.592v16.896zm44.602 20.352c-7.424 0-14.037-1.835-19.84-5.504-5.803-3.67-10.368-8.96-13.696-15.872-3.243-6.997-4.864-15.317-4.864-24.96s1.621-17.92 4.864-24.832c3.328-6.997 7.893-12.33 13.696-16s12.416-5.504 19.84-5.504c7.424 0 14.037 1.835 19.84 5.504 5.803 3.67 10.325 9.003 13.568 16 3.328 6.912 4.992 15.19 4.992 24.832 0 9.643-1.664 17.963-4.992 24.96-3.243 6.912-7.765 12.203-13.568 15.872-5.803 3.67-12.416 5.504-19.84 5.504zm0-17.536c5.461 0 9.728-2.347 12.8-7.04 3.157-4.693 4.736-11.947 4.736-21.76 0-9.813-1.579-17.067-4.736-21.76-3.072-4.693-7.339-7.04-12.8-7.04-5.376 0-9.643 2.347-12.8 7.04-3.072 4.693-4.608 11.947-4.608 21.76 0 9.813 1.536 17.067 4.608 21.76 3.157 4.693 7.424 7.04 12.8 7.04zm86.875 17.536c-7.424 0-14.037-1.835-19.84-5.504-5.803-3.67-10.368-8.96-13.696-15.872-3.243-6.997-4.864-15.317-4.864-24.96s1.621-17.92 4.864-24.832c3.328-6.997 7.893-12.33 13.696-16s12.416-5.504 19.84-5.504c7.424 0 14.038 1.835 19.84 5.504 5.803 3.67 10.326 9.003 13.568 16 3.328 6.912 4.992 15.19 4.992 24.832 0 9.643-1.664 17.963-4.992 24.96-3.242 6.912-7.765 12.203-13.568 15.872-5.802 3.67-12.416 5.504-19.84 5.504zm0-17.536c5.462 0 9.728-2.347 12.8-7.04 3.158-4.693 4.736-11.947 4.736-21.76 0-9.813-1.578-17.067-4.736-21.76-3.072-4.693-7.338-7.04-12.8-7.04-5.376 0-9.643 2.347-12.8 7.04-3.072 4.693-4.608 11.947-4.608 21.76 0 9.813 1.536 17.067 4.608 21.76 3.157 4.693 7.424 7.04 12.8 7.04zm75.257-1.337c0 2.624-.864 4.683-2.592 6.176-1.728 1.493-4.171 2.304-7.328 2.432v6.048h-2.208v-6.016c-3.136-.128-5.568-.939-7.296-2.432-1.707-1.514-2.56-3.584-2.56-6.208 0-2.603.853-4.64 2.56-6.112 1.728-1.472 4.16-2.272 7.296-2.4v-6.784h2.208v6.784c3.157.15 5.6.96 7.328 2.432 1.728 1.472 2.592 3.499 2.592 6.08zm-19.744 0c0 2.005.64 3.573 1.92 4.704 1.301 1.13 3.2 1.77 5.696 1.92v-13.12c-2.475.128-4.363.757-5.664 1.888-1.301 1.11-1.952 2.645-1.952 4.608zm9.824 6.624c2.496-.128 4.395-.757 5.696-1.888 1.323-1.13 1.984-2.71 1.984-4.736 0-1.984-.661-3.53-1.984-4.64-1.301-1.11-3.2-1.728-5.696-1.856v13.12zm20.423-15.135c2.198 0 3.883.554 5.056 1.663 1.174 1.088 1.76 2.71 1.76 4.864V90.44h-2.176v-2.624c-.512.875-1.269 1.558-2.272 2.048-.981.49-2.154.736-3.52.736-1.877 0-3.37-.448-4.48-1.344-1.109-.896-1.664-2.08-1.664-3.552 0-1.43.512-2.581 1.536-3.456 1.046-.875 2.699-1.312 4.96-1.312h5.344v-1.024c0-1.45-.405-2.55-1.216-3.296-.81-.768-1.994-1.152-3.552-1.152-1.066 0-2.09.181-3.072.544-.981.341-1.824.821-2.528 1.44l-1.024-1.696c.854-.725 1.878-1.28 3.072-1.664a11.677 11.677 0 013.776-.608zm-.8 15.327c1.28 0 2.379-.288 3.296-.864.918-.597 1.6-1.45 2.048-2.56v-2.752h-5.28c-2.88 0-4.32 1.003-4.32 3.008 0 .982.374 1.76 1.12 2.336.747.555 1.792.832 3.136.832zm19.776-5.856h-3.84v7.488h-2.272V73.607h2.272V81h3.872l5.921-7.392h2.464l-6.625 8.16 7.105 8.672h-2.688l-6.209-7.488zm23.979-7.328h-6.368V90.44h-2.272V75.623h-6.368v-2.016h15.008v2.016zm17.651-2.016l-8.416 18.848c-.683 1.579-1.472 2.699-2.368 3.36-.896.662-1.973.992-3.232.992a6.597 6.597 0 01-2.272-.384 4.923 4.923 0 01-1.824-1.152l1.056-1.696c.853.853 1.877 1.28 3.072 1.28.768 0 1.419-.213 1.952-.64.555-.427 1.067-1.152 1.536-2.176l.736-1.632-7.52-16.8h2.368l6.336 14.304 6.336-14.304h2.24zm12.212-.127c1.579 0 3.008.362 4.288 1.087a7.556 7.556 0 013.008 3.008c.725 1.301 1.088 2.784 1.088 4.448 0 1.686-.363 3.179-1.088 4.48a7.773 7.773 0 01-3.008 3.04c-1.259.704-2.688 1.056-4.288 1.056-1.365 0-2.603-.277-3.712-.832-1.088-.576-1.984-1.408-2.688-2.496v9.376h-2.272v-23.04h2.176v3.328a7.035 7.035 0 012.688-2.56c1.131-.597 2.4-.896 3.808-.896zm-.16 15.103c1.173 0 2.24-.266 3.2-.8a5.762 5.762 0 002.24-2.336c.555-1.002.832-2.144.832-3.424 0-1.28-.277-2.41-.832-3.392a5.763 5.763 0 00-2.24-2.336c-.96-.555-2.027-.832-3.2-.832-1.195 0-2.272.277-3.232.832-.939.555-1.685 1.333-2.24 2.336-.533.981-.8 2.112-.8 3.392 0 1.28.267 2.422.8 3.424.555 1.003 1.301 1.781 2.24 2.336.96.534 2.037.8 3.232.8zM8.384 87.936c0-1.557.352-2.944 1.056-4.16a7.145 7.145 0 012.912-2.88c1.237-.683 2.656-1.024 4.256-1.024 1.643 0 3.104.363 4.384 1.088a7.457 7.457 0 012.944 2.976c.704 1.28 1.056 2.752 1.056 4.416 0 2.795-.981 4.96-2.944 6.496-1.963 1.536-4.672 2.304-8.128 2.304-3.605 0-6.368-.683-8.288-2.048-1.92-1.387-3.221-3.541-3.904-6.464L0 81.088l2.08-.384 1.632 7.104c.533 2.41 1.483 4.181 2.848 5.312 1.344 1.13 3.339 1.75 5.984 1.856-1.301-.683-2.315-1.632-3.04-2.848-.747-1.216-1.12-2.613-1.12-4.192zm14.72.352c0-1.173-.267-2.219-.8-3.136A5.664 5.664 0 0020 82.976c-.981-.533-2.09-.8-3.328-.8-1.237 0-2.325.256-3.264.768a5.345 5.345 0 00-2.176 2.176c-.533.917-.8 1.973-.8 3.168s.267 2.261.8 3.2a5.615 5.615 0 002.176 2.176c.939.512 2.027.768 3.264.768 1.237 0 2.347-.256 3.328-.768a5.886 5.886 0 002.304-2.208c.533-.939.8-1.995.8-3.168zm1.856-20.23c0 1.621-.363 3.083-1.088 4.384a8.169 8.169 0 01-3.072 3.072c-1.301.747-2.773 1.12-4.416 1.12-1.643 0-3.115-.373-4.416-1.12a7.937 7.937 0 01-3.04-3.072c-.725-1.301-1.088-2.762-1.088-4.384 0-1.621.363-3.083 1.088-4.384a7.717 7.717 0 013.04-3.04c1.301-.746 2.773-1.12 4.416-1.12 1.643 0 3.115.373 4.416 1.12a7.938 7.938 0 013.072 3.04c.725 1.301 1.088 2.763 1.088 4.384zm-2.016 0c0-1.195-.267-2.261-.8-3.2a5.766 5.766 0 00-2.336-2.24c-1.003-.533-2.144-.8-3.424-.8-1.28 0-2.421.267-3.424.8a5.555 5.555 0 00-2.304 2.24c-.555.939-.832 2.005-.832 3.2 0 1.195.277 2.272.832 3.232.533.939 1.301 1.685 2.304 2.24 1.003.534 2.144.8 3.424.8 1.28 0 2.421-.266 3.424-.8 1.003-.555 1.781-1.301 2.336-2.24.533-.96.8-2.037.8-3.232zM7.968 40.992H24.8v2.272H9.984v8.064l4.16.224c3.499.17 6.187.576 8.064 1.216 1.877.64 2.816 1.781 2.816 3.424 0 .448-.085.992-.256 1.632l-1.952-.16c.085-.384.128-.65.128-.8 0-.874-.405-1.536-1.216-1.984-.81-.448-1.813-.747-3.008-.896-1.195-.15-2.773-.277-4.736-.384l-6.016-.288v-12.32zm9.12-21.179v14.08c1.75-.128 3.168-.8 4.256-2.016 1.067-1.216 1.6-2.752 1.6-4.608 0-1.045-.181-2.005-.544-2.88a6.463 6.463 0 00-1.664-2.272l1.472-1.28c.896.747 1.579 1.686 2.048 2.816.47 1.11.704 2.336.704 3.68 0 1.728-.363 3.264-1.088 4.608a8.103 8.103 0 01-3.072 3.104c-1.301.747-2.773 1.12-4.416 1.12-1.643 0-3.115-.352-4.416-1.056-1.301-.725-2.315-1.706-3.04-2.944-.725-1.258-1.088-2.666-1.088-4.224 0-1.557.363-2.954 1.088-4.192.725-1.237 1.739-2.208 3.04-2.912 1.28-.704 2.752-1.056 4.416-1.056l.704.032zm-7.296 8.128c0 1.622.523 2.987 1.568 4.096 1.024 1.088 2.368 1.707 4.032 1.856V21.957c-1.664.15-3.008.779-4.032 1.888-1.045 1.088-1.568 2.454-1.568 4.096zM17.088.032v14.08c1.75-.128 3.168-.8 4.256-2.016 1.067-1.216 1.6-2.752 1.6-4.608 0-1.045-.181-2.005-.544-2.88a6.463 6.463 0 00-1.664-2.272l1.472-1.28c.896.747 1.579 1.685 2.048 2.816.47 1.11.704 2.336.704 3.68 0 1.728-.363 3.264-1.088 4.608a8.103 8.103 0 01-3.072 3.104c-1.301.747-2.773 1.12-4.416 1.12-1.643 0-3.115-.352-4.416-1.056-1.301-.725-2.315-1.707-3.04-2.944C8.203 11.125 7.84 9.717 7.84 8.16c0-1.557.363-2.955 1.088-4.192.725-1.237 1.739-2.208 3.04-2.912C13.248.352 14.72 0 16.384 0l.704.032zM9.792 8.16c0 1.621.523 2.987 1.568 4.096 1.024 1.088 2.368 1.707 4.032 1.856V2.176c-1.664.15-3.008.779-4.032 1.888-1.045 1.088-1.568 2.453-1.568 4.096z" fill="#161616"/></svg>