<svg width="24" height="24" fill="none" xmlns="http://www.w3.org/2000/svg"><path d="M21.73 9.183a.956.956 0 00-.946-.835h-2.33V6.975a6.466 6.466 0 00-6.46-6.46c-3.562 0-6.458 2.902-6.458 6.465v1.373h-2.33a.956.956 0 00-.947.835L.525 22.401c-.057.88.675 1.082.946 1.082h21.057c.53 0 .956-.426.956-.956 0-.094-1.753-13.345-1.753-13.345zM7.454 6.98a4.546 4.546 0 014.542-4.543 4.546 4.546 0 014.542 4.543v1.373H7.453V6.98zm-4.89 14.587l1.482-11.301h1.49v.923c0 .53.427.956.957.956s.956-.426.956-.956v-.923h9.09v.923c0 .53.426.956.955.956.53 0 .957-.426.957-.956v-.923h1.49l1.481 11.301H2.564z" fill="#161616"/></svg>