<svg width="33" height="39" fill="none" xmlns="http://www.w3.org/2000/svg"><g clip-path="url(#clip0)"><path d="M31.54 8.664c.4.401.744.945 1.03 1.633.287.687.43 1.318.43 1.89v24.75c0 .573-.2 1.06-.602 1.461a1.989 1.989 0 01-1.46.602H2.063c-.573 0-1.06-.2-1.461-.602A1.989 1.989 0 010 36.938V2.562c0-.572.2-1.06.602-1.46A1.989 1.989 0 012.062.5h19.25c.573 0 1.204.143 1.891.43.688.286 1.232.63 1.633 1.03l6.703 6.704zM22 3.422V11.5h8.078c-.143-.415-.3-.709-.473-.88l-6.724-6.725c-.172-.172-.466-.33-.881-.473zm8.25 32.828v-22h-8.938c-.572 0-1.06-.2-1.46-.602a1.989 1.989 0 01-.602-1.46V3.25H2.75v33h27.5zM9.217 31.223V33.5h6.037v-2.277h-1.611l2.212-3.46c.072-.1.144-.218.215-.354a5.88 5.88 0 01.161-.29c.036-.057.061-.086.076-.086h.043a.74.74 0 00.107.215c.029.057.06.111.097.161.036.05.079.108.129.172l.14.183 2.298 3.459h-1.633V33.5h6.252v-2.277h-1.46l-4.126-5.866 4.19-6.058h1.44V17h-5.995v2.299h1.59l-2.213 3.416a9.546 9.546 0 01-.408.644l-.043.065h-.043a.742.742 0 00-.108-.215 2.563 2.563 0 00-.365-.494l-2.277-3.416h1.633V17h-6.23v2.299h1.46l4.06 5.844-4.167 6.08H9.217z" fill="#000"/></g><defs><clipPath id="clip0"><path fill="#fff" transform="translate(0 .5)" d="M0 0h33v38.5H0z"/></clipPath></defs></svg>