<svg width="24" height="24" fill="none" xmlns="http://www.w3.org/2000/svg"><path d="M12 5.991A6 6 0 005.993 12a6 6 0 006.009 6.009A6 6 0 0018.01 12 6 6 0 0012 5.991zm0 9.914A3.914 3.914 0 018.097 12 3.914 3.914 0 0112 8.095 3.913 3.913 0 0115.906 12a3.913 3.913 0 01-3.905 3.905zm6.256-11.56a1.402 1.402 0 100 2.806 1.4 1.4 0 001.297-1.94 1.402 1.402 0 00-1.297-.866zM23.714 12c0-1.617.014-3.22-.076-4.834-.091-1.875-.519-3.539-1.89-4.91C20.374.882 18.713.457 16.838.366 15.22.276 13.618.29 12.004.29c-1.617 0-3.22-.015-4.834.076-1.875.091-3.54.519-4.91 1.89C.886 3.63.46 5.29.37 7.166.28 8.783.294 10.386.294 12c0 1.614-.015 3.22.076 4.834.09 1.875.519 3.54 1.89 4.91 1.374 1.374 3.035 1.799 4.91 1.89 1.617.09 3.22.076 4.834.076 1.617 0 3.22.015 4.834-.076 1.875-.091 3.539-.519 4.91-1.89 1.374-1.374 1.799-3.035 1.89-4.91.093-1.614.076-3.217.076-4.834zm-2.578 6.908a3.721 3.721 0 01-.885 1.342c-.413.413-.809.67-1.342.885-1.54.612-5.2.474-6.908.474-1.708 0-5.37.138-6.911-.471a3.723 3.723 0 01-1.342-.885 3.747 3.747 0 01-.885-1.342c-.61-1.544-.471-5.203-.471-6.911 0-1.708-.138-5.37.471-6.911.214-.533.472-.932.885-1.342.413-.41.809-.67 1.342-.885 1.54-.61 5.203-.471 6.91-.471 1.709 0 5.371-.138 6.912.471.533.214.932.472 1.342.885.413.413.67.809.885 1.342.609 1.54.471 5.203.471 6.911 0 1.708.138 5.367-.474 6.908z" fill="#161616"/></svg>