<svg width="30" height="30" fill="none" xmlns="http://www.w3.org/2000/svg"><path d="M15.275 7.489A7.5 7.5 0 007.765 15a7.5 7.5 0 007.51 7.511A7.5 7.5 0 0022.787 15a7.5 7.5 0 00-7.51-7.511zm0 12.393A4.892 4.892 0 0110.394 15a4.892 4.892 0 014.881-4.882A4.892 4.892 0 0120.157 15a4.892 4.892 0 01-4.882 4.882zm7.82-14.451c-.971 0-1.755.784-1.755 1.754s.784 1.754 1.754 1.754 1.754-.78 1.754-1.754a1.753 1.753 0 00-1.754-1.754zM29.916 15c0-2.021.018-4.025-.096-6.042-.113-2.344-.648-4.424-2.362-6.138C25.742 1.102 23.665.57 21.322.458 19.3.344 17.297.363 15.279.363c-2.021 0-4.024-.019-6.042.095-2.344.113-4.424.648-6.138 2.362C1.381 4.537.85 6.614.737 8.958.623 10.979.642 12.982.642 15s-.019 4.025.095 6.043c.113 2.343.648 4.423 2.362 6.137 1.718 1.718 3.794 2.249 6.138 2.362 2.021.114 4.024.095 6.042.095 2.022 0 4.025.019 6.043-.095 2.343-.113 4.424-.648 6.137-2.362 1.718-1.717 2.249-3.794 2.362-6.137.118-2.018.096-4.021.096-6.043zm-3.223 8.635a4.654 4.654 0 01-1.106 1.677 4.685 4.685 0 01-1.677 1.106c-1.927.766-6.5.594-8.636.594-2.135 0-6.712.172-8.638-.59a4.654 4.654 0 01-1.678-1.106 4.686 4.686 0 01-1.106-1.677c-.761-1.93-.59-6.504-.59-8.639s-.171-6.713.59-8.639A4.654 4.654 0 014.96 4.684a4.734 4.734 0 011.678-1.106c1.926-.762 6.503-.59 8.639-.59 2.134 0 6.712-.172 8.638.59.667.267 1.165.59 1.678 1.106a4.69 4.69 0 011.106 1.677c.761 1.926.59 6.504.59 8.639s.171 6.709-.594 8.635z" fill="#fff"/></svg>