<svg width="220" height="30" fill="none" xmlns="http://www.w3.org/2000/svg"><g opacity=".95"><path d="M105.982 29.997c-.524 0-1.077-.116-1.456-.407-.233-.203-.553-.61-.553-1.277V14.46h2.941v12.37c0 .175-.029.465.204.669.087.058.262.174.728.174h8.563v2.323h-10.427z" fill="#F9FAFA"/><path d="M121.186 16.025c.553-1.306 1.165-1.742 2.563-1.742 1.34 0 2.01.436 2.563 1.742l5.883 13.968h-3.087l-1.602-3.92h-7.514l-1.573 3.92h-3.087l5.854-13.968zm-.437 7.957h6l-2.534-6.33c-.087-.233-.233-.64-.437-.64s-.349.436-.437.64l-2.592 6.33zm21.931-9.521c.845 0 2.01.088 2.826.93.873.9.99 2.323.99 3.339 0 .842-.058 1.713-.728 2.526-.437.523-.903.755-1.457.813v.088a2.67 2.67 0 011.719.813c.728.813.728 1.916.728 2.787 0 1.016 0 2.265-.903 3.252-.903.988-1.893.988-2.854.988h-7.456c-.786 0-1.485.087-2.126-.61-.146-.174-.524-.697-.524-1.568V16.697c0-.58.145-1.19.495-1.597.466-.551 1.165-.639 1.66-.639h7.63zm-6.873 6.505h5.708c.583 0 1.195 0 1.602-.552.117-.145.321-.523.321-1.568 0-.435-.029-1.19-.525-1.655-.436-.406-.961-.406-1.456-.406h-4.805c-.233 0-.496-.03-.67.174-.175.203-.204.522-.204.697l.029 3.31zm0 5.546c0 .523.058.784.175.9.233.262.728.233.961.233h4.631c.466 0 1.281-.03 1.718-.552.32-.407.408-1.074.408-1.568 0-.436-.058-1.162-.321-1.568-.174-.232-.611-.639-1.572-.639h-5.971l-.029 3.194zm12.666 1.162h8.65c1.398 0 1.457-1.162 1.457-1.684 0-.61-.146-1.336-1.515-1.743l-6.145-1.945c-.233-.058-1.223-.407-1.835-1.162-.699-.842-.815-2.062-.815-2.933 0-.929.116-2.061.99-2.874.815-.755 1.805-.872 2.563-.872h8.97v2.324h-7.951c-.408 0-.874.029-1.223.348-.379.348-.408.9-.408 1.19 0 .697.204 1.365 1.456 1.743l5.709 1.8c1.048.32 1.747.668 2.213 1.104.932.9 1.02 2.265 1.02 2.99 0 .988-.146 2.062-.787 2.875-.786.988-1.747 1.104-2.796 1.104h-9.553v-2.265zm19.022-11.65c.553-1.306 1.165-1.742 2.563-1.742 1.339 0 2.009.436 2.563 1.742l5.883 13.968h-3.087l-1.602-3.92h-7.514l-1.573 3.92h-3.087l5.854-13.968zm-.437 7.957h5.999l-2.533-6.33c-.088-.233-.233-.64-.437-.64s-.35.436-.437.64l-2.592 6.33zm14.123 6.016c-.524 0-1.077-.116-1.456-.407-.233-.203-.553-.61-.553-1.277V14.46h2.941v12.37c0 .175-.029.465.204.669.088.058.262.174.728.174h8.563v2.323h-10.427zm13.69 0c-.67 0-1.282 0-1.777-.494-.524-.523-.582-1.22-.582-1.83V16.669c0-.61.204-1.249.524-1.626.524-.552 1.281-.61 1.864-.61h9.99v2.323h-8.417c-.262 0-.583.03-.816.233-.233.232-.233.522-.233.755v3.136h9.262v2.323h-9.233v3.63c0 .232.088.493.233.61.175.173.525.202.991.202h8.329v2.324h-10.135v.029zm11.678-2.323h8.621c1.398 0 1.457-1.162 1.457-1.684 0-.61-.146-1.336-1.515-1.743l-6.145-1.945c-.233-.058-1.223-.407-1.835-1.162-.699-.842-.816-2.062-.816-2.933 0-.929.117-2.061.991-2.874.815-.755 1.805-.872 2.563-.872h8.97v2.324h-7.98c-.408 0-.874.029-1.223.348-.379.348-.408.9-.408 1.19 0 .697.204 1.365 1.456 1.743l5.709 1.8c1.048.32 1.747.668 2.213 1.104.932.9 1.019 2.265 1.019 2.99 0 .988-.145 2.062-.786 2.875-.786.988-1.747 1.104-2.796 1.104h-9.582v-2.265h.087zm-108.633-14.2L92.79 1.162c-.175-.407-.32-.697-.495-.843C92.09.116 91.799 0 91.45 0c-.35 0-.64.116-.845.32-.174.145-.32.435-.495.842l-5.126 12.34v14.23c0 .754.146 1.277.466 1.625.32.349.787.494 1.398.494h9.233c.611 0 1.077-.174 1.398-.494.32-.348.466-.87.466-1.626l-.03-14.257zm-1.253 0v2.207a1.81 1.81 0 00-.699-.233 1.607 1.607 0 00-1.165.29l-2.388-2.497c.088-.174.146-.348.175-.522a1.677 1.677 0 00-1.456-1.888 1.68 1.68 0 00-1.893 1.452 1.778 1.778 0 00.524 1.452l-1.078 2.236c-.058 0-.116-.03-.175-.03a1.78 1.78 0 00-.786.088l-1.369-2.817 4.69-11.818c.116-.29.261-.436.407-.436.146 0 .262.145.408.436l4.805 12.08z" fill="#fff"/><path d="M96.665 18.528v9.292c0 .348-.058.58-.175.697-.116.116-.35.174-.67.174h-8.737c-.32 0-.553-.058-.67-.174-.117-.116-.175-.349-.175-.697V14.927l.758 1.568c-.204.232-.32.523-.38.871a1.676 1.676 0 001.457 1.888 1.68 1.68 0 001.893-1.452 1.757 1.757 0 00-.495-1.423l1.078-2.236c.058 0 .116.029.174.029.408.058.816-.058 1.136-.261l2.418 2.497c-.088.145-.117.32-.146.494a1.676 1.676 0 001.456 1.887c.379.03.757-.058 1.078-.261z" fill="#EA524E"/></g><path opacity=".95" d="M5.088 27.072c-.832 0-1.584-.184-2.256-.552a4.11 4.11 0 01-1.572-1.524A4.337 4.337 0 01.696 22.8c0-.808.188-1.536.564-2.184a4.061 4.061 0 011.584-1.536c.672-.368 1.424-.552 2.256-.552.624 0 1.2.104 1.728.312.528.208.976.512 1.344.912l-.564.564c-.656-.664-1.484-.996-2.484-.996a3.65 3.65 0 00-1.812.456c-.544.304-.972.72-1.284 1.248a3.495 3.495 0 00-.456 1.776c0 .656.152 1.248.456 1.776.312.528.74.944 1.284 1.248a3.65 3.65 0 001.812.456c1.008 0 1.836-.336 2.484-1.008l.564.564c-.368.4-.82.708-1.356.924a4.674 4.674 0 01-1.728.312zm10.565-.816v2.268h-.804V27H9.197v1.524h-.804v-2.268h.36c.424-.024.712-.336.864-.936.152-.6.256-1.44.312-2.52l.084-2.112h4.656v5.568h.984zm-4.944-3.408c-.04.896-.116 1.636-.228 2.22-.112.576-.312.972-.6 1.188h3.936v-4.812h-3.036l-.072 1.404zm12.125 1.26h-5.28c.048.656.3 1.188.756 1.596.456.4 1.032.6 1.728.6.392 0 .752-.068 1.08-.204.328-.144.612-.352.852-.624l.48.552c-.28.336-.632.592-1.056.768a3.507 3.507 0 01-1.38.264c-.648 0-1.224-.136-1.728-.408a3.038 3.038 0 01-1.164-1.152 3.267 3.267 0 01-.42-1.656c0-.616.132-1.168.396-1.656.272-.488.64-.868 1.104-1.14.472-.272 1-.408 1.584-.408a3.05 3.05 0 011.572.408c.464.272.828.652 1.092 1.14.264.48.396 1.032.396 1.656l-.012.264zm-3.048-2.736c-.608 0-1.12.196-1.536.588-.408.384-.64.888-.696 1.512h4.476c-.056-.624-.292-1.128-.708-1.512-.408-.392-.92-.588-1.536-.588zm9.977-.684V27h-.852v-5.556h-3.024l-.084 1.56c-.064 1.312-.216 2.32-.456 3.024-.24.704-.668 1.056-1.284 1.056-.168 0-.372-.032-.612-.096l.06-.732c.144.032.244.048.3.048.328 0 .576-.152.744-.456.168-.304.28-.68.336-1.128a26.6 26.6 0 00.144-1.776l.108-2.256h4.62zm4.594-.048c.824 0 1.456.208 1.896.624.44.408.66 1.016.66 1.824V27h-.816v-.984a1.947 1.947 0 01-.852.768c-.368.184-.808.276-1.32.276-.704 0-1.264-.168-1.68-.504-.416-.336-.624-.78-.624-1.332 0-.536.192-.968.576-1.296.392-.328 1.012-.492 1.86-.492h2.004v-.384c0-.544-.152-.956-.456-1.236-.304-.288-.748-.432-1.332-.432-.4 0-.784.068-1.152.204a2.822 2.822 0 00-.948.54l-.384-.636c.32-.272.704-.48 1.152-.624.448-.152.92-.228 1.416-.228zm-.3 5.748c.48 0 .892-.108 1.236-.324.344-.224.6-.544.768-.96v-1.032h-1.98c-1.08 0-1.62.376-1.62 1.128 0 .368.14.66.42.876.28.208.672.312 1.176.312zm5.124-5.7h.852v2.796h3.972v-2.796h.852V27h-.852v-2.784h-3.972V27h-.852v-6.312zm10.701 6.372a3.319 3.319 0 01-1.644-.408 3.063 3.063 0 01-1.152-1.152 3.267 3.267 0 01-.42-1.656c0-.616.14-1.168.42-1.656.28-.488.664-.868 1.152-1.14a3.319 3.319 0 011.644-.408c.608 0 1.156.136 1.644.408.488.272.868.652 1.14 1.14.28.488.42 1.04.42 1.656 0 .616-.14 1.168-.42 1.656a2.976 2.976 0 01-1.14 1.152 3.319 3.319 0 01-1.644.408zm0-.756c.448 0 .848-.1 1.2-.3.36-.208.64-.5.84-.876.2-.376.3-.804.3-1.284s-.1-.908-.3-1.284c-.2-.376-.48-.664-.84-.864a2.314 2.314 0 00-1.2-.312c-.448 0-.852.104-1.212.312-.352.2-.632.488-.84.864-.2.376-.3.804-.3 1.284s.1.908.3 1.284c.208.376.488.668.84.876.36.2.764.3 1.212.3zm12.186-2.568c.856.2 1.284.716 1.284 1.548 0 .552-.204.976-.612 1.272-.408.296-1.016.444-1.824.444h-2.868v-6.312h2.784c.72 0 1.284.14 1.692.42.408.28.612.68.612 1.2 0 .344-.096.64-.288.888-.184.24-.444.42-.78.54zm-3.192-.24h1.896c.488 0 .86-.092 1.116-.276.264-.184.396-.452.396-.804 0-.352-.132-.616-.396-.792-.256-.176-.628-.264-1.116-.264h-1.896v2.136zm2.004 2.832c.544 0 .952-.088 1.224-.264.272-.176.408-.452.408-.828 0-.376-.124-.652-.372-.828-.248-.184-.64-.276-1.176-.276h-2.088v2.196h2.004z" fill="#fff"/></svg>