<svg width="24" height="24" fill="none" xmlns="http://www.w3.org/2000/svg"><path d="M12 11.363a5.43 5.43 0 01-5.424-5.424A5.43 5.43 0 0112 .516a5.43 5.43 0 015.423 5.423A5.43 5.43 0 0112 11.363zm0-8.935A3.515 3.515 0 008.489 5.94a3.515 3.515 0 003.51 3.511 3.515 3.515 0 003.511-3.51A3.515 3.515 0 0012 2.427zm10.528 21.056H1.472a.954.954 0 01-.956-.956c0-3.126 1.218-6.056 3.426-8.25 1.425-1.415 3.436-2.226 5.513-2.226h5.09c2.082 0 4.088.81 5.513 2.226a11.548 11.548 0 013.426 8.25c0 .53-.426.956-.956.956zM2.475 21.572h19.05a9.609 9.609 0 00-2.817-5.934c-1.069-1.06-2.588-1.67-4.163-1.67h-5.09c-1.58 0-3.094.61-4.163 1.67a9.609 9.609 0 00-2.817 5.934z" fill="#161616"/></svg>