<svg width="229" height="102" fill="none" xmlns="http://www.w3.org/2000/svg"><path fill-rule="evenodd" clip-rule="evenodd" d="M34.204 7.68c1.32.527 3.634 1.863 8.314.073.312-1.067-3.012-2.06-4.468-1.9a7.147 7.147 0 00-3.448 1.508l-.398.294v.024zm-7.593 5.26v-.233.245-.012zm0-.834V9.69c0 .81 0 1.619.087 2.453l-.087-.037zm4.668 70.85l.087-1.913c-3.124-1.62-12.223 6.45-16.928 14.849-4.705 8.399 1.046-16.53 16.181-18.454l.647-2.943c-23.586 4.5-16.79 22.623-27.532 26.216a8.493 8.493 0 01-3.734 0 21.12 21.12 0 01.896-4.672c.41-1.435.884-2.845 1.32-4.267L5.95 79.51l1.83-5.15c.783-2.183 1.854-4.255 2.7-6.401.311-.776.669-1.534 1.07-2.268a47.9 47.9 0 01.971-1.705c.337-.564.51-.821.797-1.226a51.923 51.923 0 013.386-4.488l1.132-1.226a20.07 20.07 0 011.033-1.03 35.205 35.205 0 004.207-5.113c.272.059.521.19.722.38.284.277.607.512.959.699l.572.343 3.423 1.974.162.098 1.693.883.199.086 5.327 2.195a11.34 11.34 0 002.49.54c1.238.16 2.485.258 3.733.294 1.606 0 4.743 0 6.124-.81 1.892-1.226 2.353-3.74 2.004-5.652a16.65 16.65 0 00-.859-2.98 10.133 10.133 0 00-.883-1.852l-1.93-.502h-.248c-.461 0-.498.368-.411.674.023.1.052.198.087.294.087.356.187.7.274 1.055.585 2.367 1.58 3.679-.51 5.027-4.494 2.82-14.7-1.471-18.484-4.745-4.394-3.139 0-.662-.349-6.241 0-1.055-.174-2.097-.161-3.164a9.68 9.68 0 01.696-3.849 9.797 9.797 0 012.166-3.275l.909-.969c.09-.107.19-.205.299-.294l1.468-1.116a1.74 1.74 0 01.399-.208c2.414-1.227 5.153-1.95 7.468-3.335 4.319-2.563 5.526-8.706 4.53-13.256l-.136-.466h-.86c-4.567-1.226-10.081-.76-11.737.662a30.409 30.409 0 01-.435 6.131c-.424.859-3.983.859-4.494.736-.51-.122-1.107-.772-1.132-1.373.087.086.15.122.199.11-.386-.33-.697-.306-1.469-.294a70.04 70.04 0 01-9.559.306c12.136-.92-3.647-1.3 8.576-1.667-2.726.552-8.713-1.288-.797-1.006-.186 0-12.571-.735-.896-1.226-12.546.074-4.27-1.57 1.655-1.422-7.68-.38-15.87-2.048-.211-1.655-14.488-.552-8.439-1.828-.498-1.852-5.626.208-13.965-.773-1.842-1.226-4.207 0-11.7-1.153-.498-2.122-4.27-.588-12.048-1.802.834-1.729-5.24-.453-10.58-1.495 1.095-1.226-15.272-1.128.087-2.084-2.825-1.888.436 0 5.352-.331 5.252-.208-.908-1.423 5.813-2.833 5.813-.663.324.356.535 2.87.859 5.09a10.83 10.83 0 014.12-2.699l.485-.196a10.928 10.928 0 013.274-.502 12.87 12.87 0 014.912 1.083 12.709 12.709 0 014.1 2.877c2.364.2 4.675.814 6.82 1.815a.667.667 0 010 1.226c-.834.417-1.904.92-3.137 1.398a28.967 28.967 0 012.067 3.678 21.34 21.34 0 011.157 3.238c.448 1.557.374 6.486.66 8.89a27.44 27.44 0 01.224 3.188v.453l1.979-.306.187-.613c1.058-3.238 1.431-6.892 3.547-9.503 1.743 4.622 1.531 12.875-1.742 14.922l-2.067 2.772a27.901 27.901 0 00-3.51 11.268 100.372 100.372 0 00.473 17.4 98.648 98.648 0 002.988 16.124c1.07 3.826 2.688 8.473 5.103 11.698a20.43 20.43 0 001.32 2.244c.584.895 1.244 1.766 1.804 2.661.306.432.534.913.672 1.422-.386.613-2.265.761-2.9.797a35.834 35.834 0 01-5.738-.233 56.64 56.64 0 01-4.792-.711 22.589 22.589 0 01-3.274-.785 15.549 15.549 0 01-2.725-1.336c-1.034-.6-2.042-1.226-3.1-1.754a17.639 17.639 0 00-8.812-2.084 20.86 20.86 0 00-6.66 1.57c-2.426.895-4.791 1.95-7.218 2.856-12.16 4.55 2.49-7.761 13.243-10.324L35 86.389c-8.003.821-11.5 4.904-16.604 8.215-3.062 2.023 8.464-12.262 12.87-11.649h.013zM26.25 4.907c0-.87-.112-1.557-.162-1.974 0-.637-.136-1.336.287-1.226a8.14 8.14 0 003.174-.147c.348-.16.386 0 .734.16a25.5 25.5 0 01.834 5.456c-.15.208-.896.6-1.033.834a33.84 33.84 0 00-.647-5.42 6.882 6.882 0 00-1.108.098c-.747.123-.423 0-.846.086 0 0 0 .809.323 7.602 0 .625-.884 1.226-.871 1.741 0 0-.261-.895-.311-.895-.087-2.097-.075-3.678-.324-6.327l-.05.012zm5.079 7.627l-.063.22h-.858c0 1.386.062 2.748 0 4.023 0 .736.883.969.883.098V12.56l.038-.025zm-3.734.282c.112 3.409.236 5.248.161 5.788 0 .22-1.145.196-1.145.073.075-1.336.063-3.323 0-5.849h1.008l-.024-.012zm3.646 5.702c.113-.135 0-.772-.087-.638-.858.183-1.736.261-2.613.233-.498 0-.473.944-.175.92.847 0 2.49 0 2.875-.515zM50.61 9.936a1.64 1.64 0 001.468-.147 1.329 1.329 0 00-.186-1.3 1.678 1.678 0 00-1.444.098 1.331 1.331 0 00.187 1.3l-.025.049zm-8.713 22.623c-1.805-.969-4.518 2.023-4.307 2.832.324 1.227 2.975 3.495 4.407 2.772a10.082 10.082 0 01-.025-5.653l-.075.049z" fill="#fff"/><path fill-rule="evenodd" clip-rule="evenodd" d="M34.851 7.716c-.91.826-1.702 1.77-2.352 2.808a9.497 9.497 0 00-.735 2.318l-.087.38h-.386a1.978 1.978 0 01-.76-.184c-.173-.086-.26-.209-.397-.282a.667.667 0 00-.573 0c-.254.073-.497.18-.722.319-.16.103-.326.197-.498.282-.213.1-.451.134-.684.098a3.4 3.4 0 01-1.245-.368c-.261-.135-.585-.38-.622-.687a.335.335 0 010-.11.629.629 0 01.236-.478c.39-.291.834-.504 1.307-.626.286 0 .162-.22.41-.404.25-.184.287-.16.424-.393a43.445 43.445 0 013.572-5.69l.162 1.521 2.365 1.472.585.024z" fill="#fff"/><path fill-rule="evenodd" clip-rule="evenodd" d="M31.84 6.208a33.601 33.601 0 00-3.087 4.905c-.156.294-.378.55-.648.748a1.89 1.89 0 01-1.244.233 1.974 1.974 0 00-.66 0 .34.34 0 00-.062.171c0 .135.286.307.386.356.337.172.704.28 1.082.319a.807.807 0 00.448 0l.449-.258c.255-.159.531-.283.821-.367a1.108 1.108 0 01.946 0c.137.073.236.196.361.27.186.073.384.115.585.122.16-.846.423-1.67.784-2.452a10.76 10.76 0 012.153-2.637l-2.315-1.41zm-15 14.396l.175-.307s.087-.061.087-.135c0-.073 0-.086.1-.135 4.145 10.067.572 12.704-.909 11.71-1.48-.993-2.601-1.079.548-11.133zm7.22-1.901l-.225-.196s-.087 0-.1-.074c-.012-.073-.087-.037-.087-.037.187 1.852.536 6.56.747 8.02.51 3.678 2.639 2.832 2.988 1.287.348-1.545-3.062-7.394-3.324-9zm-1.557 2.869c2.19 4.672-2.49 5.874-2.626-.993v-.294l.212-1.668a6.665 6.665 0 012.414 2.955zm-.36 11.674c-1.345.233-1.68-2.097-1.618-3.164l.373-2.857c3.995 4.095 2.75 5.26 1.245 6.02zm-3.945-14.151c1.32.295 1.494-1.054 1.481-2.121l-.236-2.87c-.56 1.46-4.244 3.777-1.245 4.991zm3.745 24.806c3.348.92 3.05-2.66-.423-6.13-.361 1.949-.959 4.315.423 6.13zm3.523-5.885c-3.05 0-2.278-2.306-2.34-3.679 1.767-.6 4.63 1.704 2.34 3.678zM20.4 46.967c-.1-.564-1.244-2.857-1.369-3.434-4.231 9 3.934 7.97 1.37 3.434z" fill="#fff"/><path d="M96.38 81.197l-.374.248-.175.397-.175.272-.399.892-.224.297-.2.248-.15.273-.224.272-.225.248-.175.223-.224.199-.25.148-.274.1-.45.024-.424-.149-.224-.297-.1-.297-.05-.298-.025-.272-.1-.322v-.347l-.05-.322.05-.273v-.347l-.075-.297-.025-.298.075-.347-.025-.297v-.322l-.05-.644.05-.323-.025-.297.05-.347-.025-.594.025-.323-.025-.52-.2-.446-.224-.149-.4-.025-.299.124-.25.422-.15.47-.05.323-.074.297-.125.322-.05.372-.075.297-.124.322-.075.347-.1.322-.125.298-.05.322-.25.644-.099.322-.175.273-.124.297-.125.248-.225.248-.125.272-.274.15-.325.024-.349-.174-.2-.247-.124-.323-.05-.322-.1-.272-.05-.645-.075-.346-.025-.62v-.347l-.05-.297.05-.298-.025-.322v-.644l.075-.67-.025-.296.025-.347v-.471l-.125-.397-.274-.148h-.35l-.324.05-.25.37-.124.447-.125.347-.025.297v.322l-.075.322-.1.347-.1.645-.15.322v.297l-.074.322-.1.323-.125.322-.05.297-.15.347-.074.322-.1.322-.075.322-.15.273-.1.322-.124.297-.15.322-.1.298-.15.248-.174.223-.275.248-.25.173-.374.05-.4-.075-.199-.198-.175-.322-.1-.297-.1-.347-.024-.298.025-.347.05-.322v-.322l.05-.347-.025-.47-.075-.447-.3-.148-.399.024-.274.372-.125.446-.025.347-.05.322v.322l-.025.322v.322l.05.347v.298l.125.322.075.322.05.322.2.273.099.272.15.223.274.174.225.173.324.1.275.074.873-.05.3-.148.224-.15.325-.197.25-.174.199-.248.175-.247.2-.273.149-.297.1-.298.174-.272.125-.298.175-.57.15-.322.075-.322.05-.347.1-.297.024-.1.15.125v.322l.05.322.125.297.1.347.05.297.15.273.174.273.15.248.224.222.275.174.224.124.475.05.449-.05.25-.124.299-.223.274-.223.45-.496.2-.248.249-.594.2-.298.1-.322.124-.322.125-.47.075.173.05.966.024.644.05.323.125.297.075.62.1.297.125.297.174.273.125.297.25.223.25.174.224.099.474.099.599-.025.524-.149.3-.173.548-.347.15-.248.4-.347.524-.644.124-.272.325-.52.224-.298.175-.273.225-.595.15-.322.124-.446-.05-.421-.2-.173-.349-.075zm-5.315-3.618v-.099h.075v.075l-.075.024zm-5.041.199v.173h-.125l-.025-.173h.15zm5.515.123l-.1.05-.025-.149.125-.024v.123zm-.4.273l.025.149h-.174v-.149h.15zm-4.866.149v-.124l.1.025v.099h-.1zm-.45.297l.126-.025v.149h-.125v-.124zm5.566.1l.025-.125h.1l-.025.124h-.1zm-5.74.222v.149l-.15-.025v-.124h.15zm5.54.223l-.2-.025.026-.198.174.025v.198zm-5.215.347l-.15.025v-.149l.15-.025v.15zm4.741 0h-.124v-.148l.15.024-.026.124zm.45.397l-.225.05-.025-.174.2-.05.05.174zm-5.716-.025l.026-.1h.1l-.026.125-.1-.025zm4.942 0l-.1.025v-.124h.075l.025.099zm1.123.347h-.15v-.149l.15.025v.124zm-.774.025l-.15.074-.025-.174.175-.05v.15zm-4.866 0v-.1l.1-.024.025.124h-.125zm5.29.42l-.174.026v-.199l.174-.024v.198zm-5.615-.024h-.075l.025-.1.075.026-.025.074zm.824 0h-.125l.025-.1h.1v.1zm3.968-.05v.075h-.1l.025-.1.075.026zm-4.342.471l-.175.025-.025-.198.175-.025.025.198zm4.791 0l-.225.05-.025-.198.2-.05.05.198zm-5.565-.124v.15l-.15-.026v-.148l.15.024zm6.264-.024v.148h-.125v-.148h.125zm-5.84.545h-.2v-.223h.2v.223zm4.542 0l.025-.149.1.025v.149l-.125-.025zm.998.025l-.174.024-.025-.198h.15l.05.174zm.35.223v.148h-.15v-.124l.15-.024zm-6.314.123H85.1v-.099h.125v.1zm.774.075l-.125-.05.05-.124.124.05-.05.124zm.324.272h-.1v-.124l.1.025v.1zm4.742.05v-.05l.075-.024v.05l-.075.024zm.3.372v-.1h.099v.1h-.1zm-7.313 1.115l-.1.05V83.7l.075-.025.025.05zm4.242.446l-.074-.025v-.074l.1.024-.025.075zm-.748.05l-.125-.025.025-.075h.125l-.025.1zm4.367.297l-.1.025v-.1l.1.025v.05zm-7.96 0l.05.05-.1.024v-.05l.05-.024zm10.93.148l.075-.123.075.074-.125.074-.125.149-.125.074.075-.148.15-.1zm-11.305.323h-.1l.025-.1h.075v.1zm9.059.371l-.075-.074.05-.075.125.05-.1.1zm-9.459.025l-.1-.025v-.099h.126l-.025.124zm-2.32-.1v.1l-.075-.025v-.074h.075zm12.602 0l.025.1h-.1v-.074l.075-.025zm-12.228.472h-.15l.025-.174.15.025-.025.149zm12.678-.149v.149l-.125-.05-.025-.124.15.025zm-11.904.149h-.1v-.124l.1.025v.099zm10.306.05l-.124-.026.025-.148.1.025v.148zm-9.458 0l-.1-.026v-.099h.125l-.025.124zm10.132 0v-.125h.1v.124h-.1zm-.35.247v-.074l.126.024-.025.075-.1-.025zm-10.98.074h-.1v-.124l.1.025v.1zm.774.025l-.075-.025v-.05l.1.026-.025.05z" fill="#fff"/><path d="M98.973 86.6l.924-.1.349-.074.549-.248.25-.149.499-.396.274-.174.175-.248.25-.247.174-.273.175-.223.15-.124.174.174.225.917.15.247.174.248.35.297.374.224.275.074.474-.025.499-.099.674-.347.449-.273.2-.173.274-.273.175-.247.199-.223.2-.273.15-.272.175-.248.149-.273.175-.273.324-.594.125-.273.175-.272.1-.446-.05-.446-.25-.199-.324-.099-.275.248-.249.397-.225.322-.15.297-.124.273-.225.297-.125.297-.224.248-.2.297-.225.223-.374.52-.324.174-.225.124-.449.1-.424-.1-.25-.248-.075-.346-.075-.273-.05-.322-.025-.322.025-.347-.05-.347v-.471l.05-.446v-.347l-.025-.297.025-.347.1-.67.05-.941.05-.347.075-.669.025-.297-.025-.322-.025-.471-.125-.347-.474-.124-.474.025-.2.247-.274.273-.275-.025-.324-.148-.275-.075-.324-.124-.599-.074-.449-.025-.5.025-.324.05-.324.123-.325.1-.25.124-.698.446-.6.57-.224.272-.174.248-.175.297-.5.868-.124.297-.075.322-.1.273-.075.322-.05.322-.024.347-.1.297-.025.297.05.347-.025.347v.347l.075.298.075.322.124.297.025.347.15.273.125.297.449.545.224.223.25.174.275.148.3.149.323.1.3.049.374.05zm4.692-9.368l-.1-.024.025-.124.1.025-.025.123zm-3.743-.099v.149l-.15-.025v-.148l.15.024zm.723.174h-.149l.025-.124h.124v.124zm.724-.05l-.075.025v-.1h.075v.075zm-1.148.397l-.125.025-.025-.174.15-.025v.174zm3.145-.025h-.175l.025-.149h.15v.149zm.698.05l-.149-.025.025-.174.149.025-.025.174zm-2.271-.025l-.124.025-.025-.174h.149v.149zm.649 0l.025-.149h.15l-.05.174-.125-.025zm-2.92-.124v.124h-.124v-.124h.124zm1.498 0v.124h-.125v-.124h.125zm-1.248.446l-.025-.149h.15v.124l-.125.025zm3.194-.124v.198l-.174-.025v-.198l.174.025zm-.848 0h.1v.074h-.1v-.074zm1.522.198h-.175l.025-.173h.175l-.025.173zm-4.542-.124l.025.1h-.1l-.025-.1h.1zm.948 7.038l-.449.099-.474.074-.35-.05-.249-.123-.274-.198-.25-.224-.15-.272-.124-.322-.1-.298-.05-.322-.025-.644-.05-.322.125-.62.05-.322.2-.594.124-.298.424-.917.225-.223.175-.297.25-.198.249-.223.224-.174.325-.173.349-.124.474-.075.749.025.624.174.299.099.275.272.125.422-.05.297v.644l-.075.347-.025.298-.399 1.883-.125.322-.125.297-.524.818-.25.248-.199.248-.275.148-.299.15-.375.148zm-1.472-6.592l-.025-.148h.175v.148h-.15zm4.792.025h-.175l.025-.173h.175l-.025.173zm.698 0l-.149-.025.025-.148h.149l-.025.173zm-6.189-.025v-.099h.1v.1h-.1zm5.89.421l-.175.025-.05-.198.2-.025.025.198zm-6.24-.024v-.1l.076.025v.1l-.075-.025zm6.514.248l-.025.074-.074-.05.025-.05.074.026zm-6.064.099h-.125l-.025-.1h.125l.025.1zm5.241.025v-.075l.075-.025v.075l-.075.025zm.524.247l.075.1.05.099.149.148-.124.1-.275-.174-.125-.174.075-.148.175.05zm-6.19.1h-.05v-.05h.05v.05zm5.616.445l.025-.198h.175l-.025.174-.175.024zm-5.965-.024l-.124.024v-.148l.124-.025v.149zm6.539.322l-.15.025v-.124l.125-.025.025.124zm-6.938-.075l.025.1-.125.024v-.124h.1zm.749.124h-.1l.025-.124h.075v.124zm5.74.397l-.15-.025.05-.124.15.025-.05.124zm-6.09-.1l.025.05-.1.025-.024-.05.1-.024zm5.64.472l.025-.124h.1v.124h-.125zm.749 0v-.124l.125.024-.025.1h-.1zm-6.439.173v-.173l.15-.025v.173l-.15.025zm6.215.05v.148l-.15.025-.025-.149.175-.025zm-.375.57h-.15v-.174l.15.025v.148zm.724-.174l.025.149-.175.025v-.174h.15zm-.374.372l-.025.173-.175-.05v-.148l.2.025zm-6.14.124l-.1-.025.026-.075h.1l-.026.1zm5.566.446l.025-.223h.199l-.025.198-.199.025zm.973-.199l-.025.199h-.2l.025-.199h.2zm-.349.546l-.225.024-.025-.223h.225l.025.199zm-6.913-.025l-.15.025-.025-.15.15-.024.025.149zm6.114.025h-.15v-.174l.15.025v.149zm.399.371l-.199-.025v-.173l.174.025.025.173zm.724-.124l-.05.149h-.15l.05-.173.15.024zm-1.447.124l.149.1.1.049.1.074-.05.174-.175-.025-.075-.074-.074-.124-.05-.149.075-.025zm1.098.397h-.225v-.223h.225v.223zm-6.739-.124l-.124.05v-.1l.1-.025.025.075zm6.339.495l-.174.025v-.173l.174-.025v.173zm.549-.024l.025-.149.15.025-.025.148-.15-.024zm3.993-.025h-.1v-.1h.125l-.025.1zm-5.49.099v-.124l.125-.025v.124l-.125.025zm5.091.273l-.15-.025v-.174l.15.05v.149zm-3.743.148l-.075-.024-.15-.15.125-.123.125.124.049.099.125.124.15.074v.149h-.15l-.075-.198-.124-.075zm-1.573-.124l-.075-.05.025-.049.05.025v.074zm2.122 0l.025-.074.099.025-.025.05h-.099zm-6.614.323v-.15l.15-.024v.149l-.15.025zm-.449.074h-.125v-.149h.125v.149zm9.858 0l-.1-.05.025-.074.1.025-.025.099zm-5.391 0v-.1l.075.026-.05.074h-.025zm-3.344.421h-.2v-.198h.2v.198zm5.64.273l.075-.174.1-.074.075-.1.149-.123.1.074-.075.174-.05.074-.124.1-.075.049h-.175zm2.77-.471v.124l-.1.025v-.1l.1-.05zm-9.184.223h-.15l-.024-.174.15-.024.024.198zm3.819-.025l-.125-.025v-.124h.125v.15zm3.768.025h-.075v-.1l.1.025-.025.075zm-.474.347l-.025-.198.2-.025.025.198-.2.025zm-6.763-.075h-.1v-.099h.1v.1zm7.711.1l-.174-.025v-.174l.174.025v.174zm-5.34-.15l-.025.15-.125-.05v-.124l.15.025zm-1.523.15l-.2.024v-.173h.175l.025.149zm.7-.15v.075l-.05.025-.026-.1h.075zm1.521.075h-.099l.025-.074h.099l-.025.074zm-1.971.372l-.025-.149h.15v.149h-.125zm1.622.025l-.15-.025v-.149l.15.025v.149zm4.592-.025l-.175.05.025-.199h.175l-.025.149zm-6.888-.1v.1l-.1-.025.025-.099.075.025zm6.089.1h-.099l-.025-.124h.124v.124zm-4.567.05h-.174v-.124l.174-.025v.148z" fill="#fff"/><path d="M115.955 81.148l-.299.272-.475.644-.149.298-.175.272-.225.223-.349.546-.649.644-.773.545-.574.297-.574.199-.35.074-.748.05-.5-.05-.274-.1-.325-.148-.224-.148-.175-.224-.125-.322-.099-.297.024-.47.05-.447.25-.57.175-.272.249-.223.175-.223.274-.174.45-.223.399-.272.274-.15.275-.123.499-.397.25-.223.224-.223.2-.223.175-.272.074-.297.125-.323v-.966l-.1-.322-.149-.248-.2-.273-.25-.223-.274-.173-.3-.149-.973-.148-.524.074-.474.05-.624.222-.299.15-.3.197-.224.174-.25.248-.3.371-.074.422.174.223.275.148.324-.124.699-.446.349-.198.3-.099.324-.074.3-.025.324.025.275.124.274.272.075.397-.05.47-.199.248-.225.248-.25.198-.249.149-.549.248-.4.272-.424.248-.199.149-.275.173-.274.223-.175.223-.225.248-.125.248-.199.272-.15.323-.15.743.025.496-.075.322.025.322.075.297.25.62.15.248.399.495.299.248.25.149.299.124.375.099.299.099.774.05.823-.075.649-.1.325-.073.274-.1.25-.123.349-.15.799-.495.199-.198.275-.198.249-.223.225-.223.399-.545.35-.52.199-.273.15-.223.125-.298.2-.272.124-.323.15-.446-.05-.396-.224-.198-.325-.1zm-4.267-4.114l-.175-.05.025-.148.175.025-.025.173zm-.4.273h-.1l-.024-.1h.124v.1zm.749-.075l-.025.1-.075-.025.025-.1.075.025zm-.324.471l-.175.05-.025-.149.175-.05.025.15zm.748.025h-.125l-.024-.1.149-.024v.124zm-.499.421l.025-.124.125.025-.025.124-.125-.025zm.499.248v.1h-.1l.025-.1h.075zm-.424.347v.149h-.1v-.124l.1-.025zm-.324.372l.025.148-.175.025v-.148l.15-.025zm.374.52l-.125.025-.025-.124.125-.025.025.124zm-.874.025l.025-.1.075.025v.075h-.1zm-.723.768h-.075l.025-.074.075.024-.025.05zm-.449.397v-.1h.074v.1h-.074zm-1.198.42v-.148h.149v.124l-.149.025zm.474.323l-.1-.025.025-.099.1.025-.025.099zm-1.223.396v-.074h.1v.074h-.1zm.848-.024h-.049v-.05h.074l-.025.05zm-.374.346v.05l-.075.025v-.05l.075-.025zm-.823.843l-.05-.074.05-.1.074.124-.074.05zm.823-.173v.124l-.125.024v-.148h.125zm-.424.594l-.075-.025.025-.074h.075l-.025.1zm6.239.744l-.1-.025v-.1l.1.026v.099zm-6.489.248v.173h-.174v-.198l.174.025zm6.115.024v.1h-.1v-.1h.1zm-5.84.471l-.125.025-.05-.149.175-.025v.15zm5.415.05h-.125l.025-.124h.125l-.025.124zm-4.916.223v.173l-.175.025-.025-.198h.2zm4.592.124h-.125l-.025-.124h.125l.025.124zm-1.597.024l-.05-.05.05-.049.05.05-.05.05zm.798.025l-.075-.025.05-.074.025.05v.05zm-3.469.322h-.199v-.148l.174-.025.025.173zm.799.025l-.175.025v-.198h.15l.025.173zm2.271 0h-.125l.025-.173.125.024-.025.149zm-1.672-.149h.175l.025.174-.175.025-.025-.199zm.798.149l-.049-.149h.149l.05.149h-.15zm1.573-.025l.025-.099.075.025v.074h-.1zm-3.394.397l-.15-.025.025-.124.125.025v.124zm.748-.124l-.025.149-.124-.025v-.149l.149.025zm.874.173l-.2-.024-.05-.15.2-.024.05.198zm.574-.173l.15.025v.099h-.125l-.025-.124z" fill="#fff"/><path d="M118.543 86.6l.924-.1.349-.074.549-.248.25-.149.499-.396.274-.174.175-.248.25-.247.174-.273.175-.223.15-.124.174.174.225.917.15.247.174.248.35.297.374.224.275.074.474-.025.499-.099.674-.347.449-.273.2-.173.274-.273.175-.247.199-.223.2-.273.15-.272.174-.248.15-.273.175-.273.324-.594.125-.273.175-.272.1-.446-.05-.446-.25-.199-.324-.099-.275.248-.249.397-.225.322-.15.297-.124.273-.225.297-.125.297-.224.248-.2.297-.225.223-.374.52-.324.174-.225.124-.449.1-.425-.1-.249-.248-.075-.346-.075-.273-.05-.322-.025-.322.025-.347-.05-.347v-.471l.05-.446v-.347l-.025-.297.025-.347.1-.67.05-.941.05-.347.075-.669.025-.297-.025-.322-.025-.471-.125-.347-.474-.124-.474.025-.2.247-.274.273-.275-.025-.324-.148-.275-.075-.324-.124-.599-.074-.449-.025-.5.025-.324.05-.324.123-.325.1-.249.124-.699.446-.599.57-.225.272-.174.248-.175.297-.499.868-.125.297-.075.322-.1.273-.075.322-.05.322-.024.347-.1.297-.025.297.05.347-.025.347v.347l.075.298.074.322.125.297.025.347.15.273.125.297.449.545.225.223.249.174.275.148.299.149.324.1.3.049.374.05zm4.692-9.368l-.1-.024.025-.124.1.025-.025.123zm-3.743-.099v.149l-.15-.025v-.148l.15.024zm.723.174h-.149l.025-.124h.124v.124zm.724-.05l-.075.025v-.1h.075v.075zm-1.148.397l-.125.025-.025-.174.15-.025v.174zm3.145-.025h-.175l.025-.149h.15v.149zm.698.05l-.149-.025.025-.174.149.025-.025.174zm-2.271-.025l-.124.025-.025-.174h.149v.149zm.649 0l.025-.149h.15l-.05.174-.125-.025zm-2.92-.124v.124h-.124v-.124h.124zm1.498 0v.124h-.125v-.124h.125zm-1.248.446l-.025-.149h.15v.124l-.125.025zm3.194-.124v.198l-.174-.025v-.198l.174.025zm-.848 0h.1v.074h-.1v-.074zm1.522.198h-.175l.025-.173h.175l-.025.173zm-4.542-.124l.025.1h-.1l-.025-.1h.1zm.948 7.038l-.449.099-.474.074-.349-.05-.25-.123-.274-.198-.25-.224-.15-.272-.125-.322-.099-.298-.05-.322-.025-.644-.05-.322.125-.62.05-.322.199-.594.125-.298.424-.917.225-.223.175-.297.249-.198.25-.223.224-.174.325-.173.349-.124.474-.075.749.025.624.174.299.099.275.272.125.422-.05.297v.644l-.075.347-.025.298-.399 1.883-.125.322-.125.297-.524.818-.25.248-.199.248-.275.148-.299.15-.375.148zm-1.472-6.592l-.025-.148h.175v.148h-.15zm4.792.025h-.175l.025-.173h.175l-.025.173zm.698 0l-.149-.025.025-.148h.149l-.025.173zm-6.189-.025v-.099h.1v.1h-.1zm5.89.421l-.175.025-.05-.198.2-.025.025.198zm-6.239-.024v-.1l.075.025v.1l-.075-.025zm6.513.248l-.025.074-.074-.05.024-.05.075.026zm-6.064.099h-.125l-.025-.1h.125l.025.1zm5.241.025v-.075l.075-.025v.075l-.075.025zm.524.247l.075.1.05.099.149.148-.124.1-.275-.174-.125-.174.075-.148.175.05zm-6.189.1h-.05v-.05h.05v.05zm5.615.445l.025-.198h.175l-.025.174-.175.024zm-5.965-.024l-.124.024v-.148l.124-.025v.149zm6.539.322l-.15.025v-.124l.125-.025.025.124zm-6.938-.075l.025.1-.125.024v-.124h.1zm.749.124h-.1l.025-.124h.075v.124zm5.74.397l-.15-.025.05-.124.15.025-.05.124zm-6.09-.1l.025.05-.099.025-.025-.05.099-.024zm5.64.472l.025-.124h.1v.124h-.125zm.749 0v-.124l.125.024-.025.1h-.1zm-6.438.173v-.173l.149-.025v.173l-.149.025zm6.214.05v.148l-.15.025-.025-.149.175-.025zm-.375.57h-.15v-.174l.15.025v.148zm.724-.174l.025.149-.175.025v-.174h.15zm-.374.372l-.025.173-.175-.05v-.148l.2.025zm-6.14.124l-.099-.025.025-.075h.099l-.025.1zm5.566.446l.025-.223h.199l-.025.198-.199.025zm.973-.199l-.025.199h-.2l.025-.199h.2zm-.349.546l-.225.024-.025-.223h.225l.025.199zm-6.913-.025l-.15.025-.025-.15.15-.024.025.149zm6.114.025h-.15v-.174l.15.025v.149zm.399.371l-.199-.025v-.173l.174.025.025.173zm.724-.124l-.05.149h-.15l.05-.173.15.024zm-1.448.124l.15.1.1.049.1.074-.05.174-.175-.025-.075-.074-.074-.124-.05-.149.074-.025zm1.099.397h-.225v-.223h.225v.223zm-6.739-.124l-.124.05v-.1l.099-.025.025.075zm6.339.495l-.174.025v-.173l.174-.025v.173zm.549-.024l.025-.149.15.025-.025.148-.15-.024zm3.993-.025h-.1v-.1h.125l-.025.1zm-5.49.099v-.124l.125-.025v.124l-.125.025zm5.091.273l-.15-.025v-.174l.15.05v.149zm-3.743.148l-.075-.024-.15-.15.125-.123.125.124.049.099.125.124.15.074v.149h-.15l-.075-.198-.124-.075zm-1.573-.124l-.075-.05.025-.049.05.025v.074zm2.122 0l.025-.074.099.025-.025.05h-.099zm-6.614.323v-.15l.15-.024v.149l-.15.025zm-.449.074h-.125v-.149h.125v.149zm9.858 0l-.1-.05.025-.074.1.025-.025.099zm-5.391 0v-.1l.075.026-.05.074h-.025zm-3.344.421h-.2v-.198h.2v.198zm5.64.273l.075-.174.1-.074.075-.1.149-.123.1.074-.075.174-.05.074-.124.1-.075.049h-.175zm2.77-.471v.124l-.1.025v-.1l.1-.05zm-9.184.223h-.149l-.025-.174.149-.024.025.198zm3.819-.025l-.125-.025v-.124h.125v.15zm3.768.025h-.075v-.1l.1.025-.025.075zm-.474.347l-.025-.198.2-.025.025.198-.2.025zm-6.763-.075h-.1v-.099h.1v.1zm7.711.1l-.174-.025v-.174l.174.025v.174zm-5.34-.15l-.025.15-.125-.05v-.124l.15.025zm-1.523.15l-.199.024v-.173h.174l.025.149zm.699-.15v.075l-.05.025-.025-.1h.075zm1.522.075h-.099l.025-.074h.099l-.025.074zm-1.971.372l-.025-.149h.15v.149h-.125zm1.622.025l-.15-.025v-.149l.15.025v.149zm4.592-.025l-.175.05.025-.199h.175l-.025.149zm-6.888-.1v.1l-.1-.025.025-.099.075.025zm6.089.1h-.1l-.024-.124h.124v.124zm-4.567.05h-.174v-.124l.174-.025v.148z" fill="#fff"/><path d="M131.058 82.932l-.699.421-.249.297.025.298.049.297.25.174.449.024.375-.05.449-.024.649.198.274.174.225.272.15.273.049.297.1.347.075.347-.15.397-.274.297-.325.173-.299.199-.3.148-.224.174-.275.124-.624.371-.249.199-.275.173-.249.223-.2.248-.249.223-.2.273-.225.396-.224.446-.025.322-.025.297-.025.347.075.298.374.545.175.223.274.173.275.15.299.098h.924l.349-.074.324-.075.25-.148.225-.174.324-.148.225-.223.274-.223.2-.223.274-.57.15-.248.15-.297.075-.323.199-.644.05-.297.125-.322.075-.298.1-.62.174-.396.225-.347.275-.223.424-.42.224-.249.225-.198.424-.496.175-.272.225-.223.149-.273.225-.248.125-.247.224-.298.125-.248.2-.272.299-.595.1-.248.15-.272.149-.471-.074-.421-.175-.174-.275-.099-.399.174-.274.42-.275.546-.175.297-.149.298-.2.248-.125.272-.274.273-.125.272-.175.248-.249.273-.15.272-.25.248-.424.47-.274.05-.125-.223-.05-.272-.225-.57-.199-.273-.175-.223-.499-.396-.3-.149-.249-.099-.175-.173.1-.174.2-.223.299-.198.374-.496.5-.817.249-.62.075-.322.15-.595.05-.991-.125-.322-.05-.273-.125-.322-.1-.272-.174-.273-.5-.421-.274-.149-.299-.124-.325-.099-.299-.025h-.475l-.549.05-.599.148-.249.15-.225.173-.274.198-.225.223-.175.223-.249.248-.349.545-.475.867-.149.297-.1.298-.275.57-.174.297-.075.297-.125.273-.15.446.05.421.2.199.324.123.325-.198.299-.396.125-.297.125-.323.124-.297.15-.322.2-.298.125-.322.449-.867.15-.273.174-.247.25-.248.249-.223.25-.149.274-.099.525-.05.424.05.249.174.25.247.1.248.075.322.074.347.025.347-.124.322-.025.298-.15.297-.075.297-.274.471-.175.421-.2.248-.199.297-.475.447-.299.198zm1.148-5.799l.025-.173h.15l-.025.149-.15.024zm-.624 0h-.15l.025-.148h.15l-.025.148zm1.547.025h-.124v-.149h.124v.15zm-.424.322l-.1-.05.075-.099.075.075-.05.074zm-1.547 0l-.1-.025.025-.099.1.025-.025.1zm.699-.099l.074-.025.025.05-.075.05-.024-.075zm1.622 0l.025.1-.125.024v-.1l.1-.024zm.274.496v-.149l.15-.025v.149l-.15.025zm-.599.025h-.149l-.025-.124.149-.025.025.148zm.325.346l-.175-.024.075-.199.175.075-.075.148zm.723 0h-.074v-.074h.074v.074zm-.299.347h-.125v-.124h.15l-.025.124zm-.374.298v.173l-.175-.025.025-.173.15.025zm.698.173l-.124-.025.025-.124h.124l-.025.15zm-.474.322v-.124h.125v.124h-.125zm-.299.372l-.075-.025.025-.074.075.025-.025.074zm.424.396l-.15-.024.025-.149.125.025v.148zm-.424.372l-.1.025v-.124l.1-.025v.124zm-.325.397l-.1-.025v-.1l.1.026v.099zm-.299.941l-.05.124-.15.025.025-.174.1-.05.175-.148.249-.248.075-.099.1-.148.125.074-.1.149-.075.074-.075.1-.05.073-.1.075-.099.05-.15.123zm-.574.545l.025-.05.075.026-.05.05-.05-.026zm-.3.471h-.099v-.124l.099.025v.1zm-.399.347l-.125-.025.025-.123.125.024-.025.124zm.724-.148l.025.099h-.1v-.1h.075zm-1.073.52h-.125v-.149l.125.025v.124zm.748-.149l.1.124.1.1.125.049.174.099-.099.173-.175-.124-.15-.05-.1-.073-.124-.174.05-.124h.099zm.724.124l-.075-.025.025-.074.075.025-.025.074zm-1.098.248l.025.124h-.125l-.025-.124h.125zm1.173.545l-.1-.025.025-.099.1.05-.025.074zm.699-.074l-.025.074-.05-.025.025-.05h.05zm-.449.396l.024-.099.1.025-.025.074h-.099zm.748.05v-.075l.05-.024.025.074-.075.025zm-.249.396l-.125-.025.025-.123.125.024-.025.124zm.698-.05l-.149.199-.075.074-.05.1-.175.074.025-.199.075-.099.1-.074.075-.074h.174zm-.074.843l-.025-.149.149-.074.025.174-.149.05zm.798-.074v-.1h.1v.1h-.1zm-1.522.025v-.075h.1v.075h-.1zm.499.42l-.2.026v-.223h.2v.198zm.749-.024h-.125v-.149l.15.025-.025.124zm.773-.05l-.1.025-.025-.099.1-.025.025.1zm-1.896.422l-.15-.025.025-.149.125.05v.124zm.723.124l-.1-.05-.074-.074.025-.174h.149l.075.1.025.099.075.099.125.025.075.049v.149h-.15l-.1-.075-.125-.148zm.724-.124h-.1v-.1l.1-.024v.124zm-1.048.396l-.2-.025v-.198l.2.025v.198zm-.424.421h-.175l.025-.222.175.049-.025.173zm.748-.05l-.124-.024.024-.148.125.074-.025.099zm-1.247.373v-.149l.124-.025.025.149-.149.025zm.698.024v-.198h.175l-.025.198h-.15zm-.973.323l-.125.024-.025-.173h.125l.025.149zm.774.05h-.15l.025-.174h.15l-.025.173zm.748-.026h-.124v-.099l.099-.05.025.15zm-.324.223l-.025.124h-.125l.025-.148.125.024zm-2.621 2.95l-.399.073-.424-.123-.125-.273v-.347l.1-.322.2-.273.524-.62.923-.693.424-.248.4-.074.099.248-.124.297-.075.347-.075.297-.125.298-.15.297-.149.322-.674.67-.35.123zm2.197-2.38h-.125v-.124h.125v.124zm-2.721.322h-.099v-.099h.099v.1zm2.97-.024l.025-.075h.075v.075h-.1zm-3.294.396l-.15.025-.025-.149.15-.05.025.174zm3.045 0l-.15-.025.05-.148h.125l-.025.173zm-3.444.248l.025.124h-.15v-.124h.125zm-.4.372l.025.148h-.124l-.025-.148h.124zm3.794 0l.025.124h-.1v-.124h.075zm-3.444.495l-.1-.05.025-.049h.075v.1zm3.119.025l-.124.025v-.124l.099-.025.025.124zm-3.419.396l-.174.1-.075.05-.175.173-.075-.05.075-.124.075-.074.05-.1.075-.098.174-.124.05.247zm2.92.05v-.1h.1v.1h-.1zm-2.545.223l-.025.173-.175-.049.025-.149.175.025zm2.221.025l.025.099h-.125l.025-.074.075-.025zm-2.77.421l.025-.173.124.024v.15h-.149zm1.522-.05l.125-.024v.148h-.1l-.025-.123zm-.799.05l.125-.05.025.174-.15.025v-.149zm.524.248l.05.173-.174-.05-.05-.173.174.05zm-.673.149l-.125-.025.025-.1h.1v.125z" fill="#fff"/><path d="M139.6 86.525l.973-.025.324-.05.3-.099.324-.148.524-.298.574-.396.225-.198.175-.248.449-.52.299-.496.175-.124.05.198.025.322.1.347.05.322.249.595.225.297.249.224.25.173.524.1.649-.05.449-.124.3-.1.299-.173.225-.223.299-.198.25-.248.199-.223.175-.273.225-.223.174-.272.175-.298.225-.272.149-.322.1-.273.225-.297.1-.273.174-.297.15-.471-.05-.446-.249-.198-.3-.05-.374.248-.3.372-.075.248-.199.297-.325.595-.124.272-.225.273-.1.297-.324.347-.35.322-.199.248-.275.149-.274.099-.475.025-.374-.15-.15-.296-.075-.298-.124-.62v-.668l.025-.372v-.322l-.025-.298.075-.322.049-.322v-.347l.05-.322-.025-.297.075-.67.075-.322v-.322l.125-.644v-.347l.05-.297-.025-.471-.2-.372-.299-.124-.225-.024-.349.024-.275.323-.1.396-.049.322-.075.347.05.273-.025.346-.075.298-.05.297-.075.67-.1.47-.025.471-.125.322-.049.297-.075.323-.175.322-.125.297-.1.297-.174.273-.15.273-.175.247-.199.298-.45.446-.224.173-.3.174-.349.124-.25.124-.524.024h-.474l-.274-.124-.175-.173-.2-.297-.1-.347.025-.446-.025-.496v-.372l-.024-.322.024-.272.15-.868.025-.495.05-.322.125-.347.075-.298.075-.495v-.496l.074-.322.025-.47-.025-.447-.124-.322-.175-.248-.25-.248-.299-.148-.3-.124h-.374l-.324.05-.325.074-.249.148-.3.347-.149.422.099.297.45.025.449-.05.274.124.1.446-.05.496-.1.322v.297l-.199.967v.297l-.125.273-.1.322v.322l-.075.297-.025.297.025.323-.1.322v.47l.05.496v.347l.1.347.05.322.3.595.249.248.15.223.274.223.3.148.324.1.3.074zm-1.398-9.416l-.075-.025.025-.075.1.025-.05.075zm1.073.396l-.075.05-.049-.124-.125-.174v-.173l.125.099.074.074.05.1v.148zm-.649.074l-.149-.024v-.174h.149v.198zm-.723 0l-.15-.024v-.15l.15.026v.148zm1.148.323h-.2l.025-.174h.175v.174zm6.089.049h-.1l-.05-.124h.15v.124zm-.349.174v.148h-.15v-.148h.15zm-6.264.198l-.05-.149.149-.025.025.149-.124.025zm.374.322l.025-.149.175-.173.099-.124h.15l-.1.173-.05.124-.099.075-.2.074zm6.139-.124l.1.025-.025.099-.125-.025.05-.099zm-6.538.52v-.124l.149.05-.025.1-.124-.026zm.499.298v.099h-.15l.025-.149.125.05zm5.315.099v-.075l.1.05-.025.025h-.075zm.849-.025l-.075.025v-.075h.05l.025.05zm-.374.273v.123l-.15-.024v-.149l.15.05zm-6.165.123h-.124v-.074h.124v.075zm.25.372v-.124h.125v.124h-.125zm5.39.05v-.174h.15l-.025.174h-.125zm.5.347h-.125l.025-.124h.125l-.025.124zm-6.165-.1l.025.05-.074.05-.05-.075.099-.024zm-.324.348l-.025.123h-.1v-.123h.125zm6.014 0h.125v.123h-.125v-.123zm-5.29.05l-.075.123-.075-.025.025-.099h.125zm-.3.346l.05.124.125.173-.075.075-.2-.124-.149-.149.075-.149.174.05zm6.065.173l-.175-.024.025-.174.15.025v.173zm-6.489.323h-.15v-.15h.15v.15zm5.989.05v-.174h.175l-.025.148-.15.025zm-.374.173l.15.024-.025.124h-.15l.025-.148zm-5.415.198l.05-.174.149.05-.025.124h-.174zm5.964.347l-.199.05-.025-.224.224-.025v.199zm-6.314 0l-.025-.1.1-.024.05.124h-.125zm5.74.446l.025-.223.175.025v.198h-.2zm.749-.075v-.148h.15v.148h-.15zm-6.713-.123l.025.123-.175.05-.025-.173h.175zm.574.123v-.123h.124v.123h-.124zm-.275.422h-.1l-.025-.149h.175l-.05.149zm6.214-.149l-.025.174h-.199l.05-.174h.174zm-.898.149l-.025-.124h.1v.099l-.075.025zm.374.347v-.174l.175-.025v.199h-.175zm.774 0l-.025-.124.15-.025v.149h-.125zm-1.548-.025v-.1h.125l-.05.125-.075-.025zm-5.315.05l-.075-.025.025-.1.1.025-.05.1zm.848-.124v.123h-.149v-.124h.149zm-.374.47h-.15v-.148h.15v.148zm.599-.025l-.05-.049v-.05h.075l-.025.1zm5.515-.099v.15h-.149l-.025-.15h.174zm-6.014.62l.075-.1.05-.173.149.025v.124l-.149.074-.125.05-.05.149-.025.099-.15.025.025-.15.1-.073.1-.05zm6.339-.1l-.05-.073h.125l-.025.074h-.05zm-5.715.348l-.125.025v-.124h.125v.099zm6.164-.025l-.025.05-.05-.025.025-.025h.05zm-6.638.273h.149v.173l-.174-.025.025-.148zm6.214 0l-.025.099h-.075v-.1h.1zm2.944.123l.05-.123.1.05v.073h-.15zm-2.246.124l-.074.075-.15.198-.225.025.1-.149.075-.1.05-.073.1-.075.149-.074-.025.173zm.574.174l-.074.124h-.2l.075-.149.125-.074.074.099zm-6.189.05l-.1.049-.024-.1.099-.074.025.124zm-.798.049h-.125v-.1l.1-.024.025.124zm1.522.025l-.125.05-.025-.15.1-.024.05.124zm.749 0l-.075-.025.025-.074.075.024-.025.075zm5.34.05l-.05-.075.025-.074.1.024-.075.124zm-1.073.272h-.1v-.1h.1v.1zm-6.189.025h-.05l-.05-.05.1-.025v.075zm.774.05l-.075-.075.05-.05.1.05-.075.074zm.748-.1l.05.05-.075.05-.024-.075.049-.025z" fill="#fff"/><path d="M160.761 81.172l-.375.199-.249.42-.2.249-.125.322-.124.272-.225.273-.15.297-.149.273-.774.966-.25.199-.299.173-.225.149-.499.05-.324-.125-.175-.297-.15-.272-.05-.347-.024-.323.024-.322-.049-.347.025-.297.049-.347v-.297l-.025-.347.1-.644.075-.323-.025-.347.05-.322.075-.322v-.272l.125-.645-.025-.347.05-.322.1-.297-.05-.47-.1-.472-.35-.148-.349-.025-.299.074-.3.372-.1.47-.025.323-.075.297-.074.347.025.297-.075.323-.025.347-.05.297-.05.322-.175.322-.524.174h-.474l-.449.024-.849-.024-.324.024h-.325l-.648.075-.325-.174-.15-.322.075-.322v-.644l.025-.372.05-.297.05-.347-.05-.322.075-.347v-.471l-.2-.347-.324-.124h-.325l-.249.124-.3.322-.174.446-.025.322.025.347-.075.297-.075 1.339-.075.272v.322l.025.347v.347l-.05.322-.025.298-.025.322-.05.347v.297l-.025.322.025.347v.694l-.05.62-.049.297.099 1.115.25.322.324.124.375-.05.274-.05.2-.396.1-.47v-.298l-.05-.347.05-.694-.025-.669.025-.297.05-.372v-.297l.199-.372.275-.173.349-.05 1.023-.05.475.025.648-.024h.499l.3-.025.324.173.125.347v1.016l.025.347v.322l.1.298.025.371.075.298.199.47.3.397.224.174.3.173.274.1.325.024.499-.05.524-.099.449-.173.375-.223.249-.174.474-.47.4-.496.174-.248.15-.272.225-.298.274-.57.15-.248.324-.594.15-.273.125-.446-.025-.396-.25-.199-.249-.124zm-4.542-3.37l.075.1.075.074.074.148-.149-.05-.1-.098-.1-.075v-.173l.125.074zm-6.289.793h-.1l-.025-.124h.125v.124zm6.189.025l-.1.025v-.124h.075l.025.1zm-5.815.248v.074h-.075v-.099l.075.025zm6.09.099v-.124l.124.05v.099l-.124-.025zm-.624-.05l-.05.075-.075-.05.025-.074.1.05zm-5.84.447l-.125-.025v-.124h.125v.148zm5.84.42h-.125l-.025-.123.15.025v.099zm.399.348h-.175v-.199l.15.025.025.174zm-.774-.1v.124h-.1v-.124h.1zm-5.166.347l.125-.024v.173h-.125v-.149zm5.541.15l-.175-.026v-.148l.15.024.025.15zm.224.173l.175.024-.025.174-.15-.025v-.173zm-5.34.173l-.05-.05.025-.074.075.05-.05.074zm-.824.025v-.124l.15.025-.025.124-.125-.025zm5.441-.025l-.05-.1h.124l.025.075-.099.025zm-4.942.248v.223l-.174-.025.024-.223.15.025zm5.416.124h-.075l-.025-.1.1-.024v.124zm-2.321 0l-.05.025v-.075l.05-.025v.075zm1.597.099l-.175-.025v-.149l.175.025v.149zm-5.49-.075l-.1-.024.025-.05h.075v.075zm1.497-.024v-.05l.05.025-.025.05-.025-.025zm-.324.52l-.225-.05.075-.222.199.05-.049.222zm.748-.124h-.075v-.124h.1l-.025.124zm3.868.05l-.149-.025.05-.149.149.05-.05.124zm-5.39-.05h-.075l.025-.099.05.025v.074zm6.214 0h-.1l-.025-.099h.125v.1zm-2.346-.05l-.025.075-.075-.025v-.074l.1.025zm-3.469.471h-.1l.025-.148.125.05-.05.099zm5.241 0l.025-.148h.175l-.025.173-.175-.025zm-6.064 0h-.1v-.123h.1v.123zm5.765.347v-.148l.124-.025.025.149-.149.024zm-5.466.025v-.149l.15-.024v.173h-.15zm6.264 0l-.075-.05v-.074h.1l-.025.124zm-6.464.421l-.174-.024.025-.149.149.025v.148zm6.015 0l-.025-.123.125-.025v.124l-.1.024zm-5.69.273l-.125.025v-.124h.125v.099zm5.465-.05v.124h-.124v-.148l.124.025zm.35.347l.025.124h-.125l-.025-.124h.125zm-5.466.05v.1h-.05l-.025-.1h.075zm-.399.47l-.025-.049.075-.05.025.1h-.075zm6.214 0h-.1v-.098h.1v.099zm-.699.025l-.124-.024.049-.075h.1l-.025.1zm-5.839.348l-.075-.025v-.075l.075.025v.075zm6.438.371v-.099l.125.025-.025.124-.1-.05zm-.224.273l-.025.148h-.15l.025-.123.15-.025zm1.148.396l.025.124h-.125v-.124h.1zm-.724.149h-.125l-.025-.1h.15v.1zm2.246 0l-.1-.025.025-.05.1.025-.025.05zm-1.897.372l-.149.024-.025-.148.149-.025.025.149zm-6.987-.124v.124h-.1v-.124h.1zm7.761.148l-.1-.024v-.1h.1v.124zm.649-.024v-.1h.1v.1h-.1zm13.002.669l.45.024.474-.05.274-.073.325-.124.274-.174.225-.198.274-.149.275-.223.15-.223.224-.272.449-.52.325-.521.299-.545.2-.298.15-.272.1-.322.174-.273.075-.446.025-.446-.299-.198-.3-.05-.324.248-.3.372-.249.62-.15.272-.2.272-.125.298-.199.297-.225.248-.199.297-.2.223-.25.199-.224.222-.225.199-.274.148-.45.05-.424-.05-.274-.148-.25-.248-.175-.223-.174-.297-.2-.248-.05-.298-.15-.297-.099-.297-.15-.273-.2-.62-.15-.594-.024-.347-.125-.273v-.346l-.025-.447.199-.347.175-.222.474-.496.499-.372.275-.248.274-.173.25-.124 1.098-.396.399-.174.125-.347-.075-.347-.174-.248-.5-.099-.723.1-.425.148-.324.149-.274.149-.3.148-.799.57-.424.446-.249.223-.2.273-.225.223-.848 1.065-.125.273-.249.273-.175.247-.15.273-.125.148-.124-.198v-.322l.025-.322v-.595l.024-.322-.024-.347v-.322l.049-.322.025-.297.05-.323.025-.322.05-.322v-.297l.05-.347.175-.297.374-.199.3-.025.274-.074.325-.05.349-.049.274-.124.3-.124.299-.099.3-.124.299-.173.574-.471.45-.446.549-.595.149-.272.225-.298.15-.322.124-.297.05-.273.05-.371.025-.323.05-.297-.025-.322-.1-.297-.274-.57-.15-.298-.175-.223-.299-.223-.3-.124-.299-.099-.474-.074h-.474l-1.024.223-.274.124-.225.173-.324.174-.225.223-.249.223-.699.892-.524 1.04-.125.323-.15.297-.074.322-.05.297-.125.323-.1.347-.1.297-.224.272-.35.1-.449-.075-.349.124-.2.298v.272l.299.322.425.248.324.223.125.397-.025.272v.322l-.125.992-.05.297.025.966-.025.322-.075.645.025.297v.67l.075.321-.075.322.1.62-.05.322v.297l.05.323v.346l-.025.298.025.347.075.322-.05.297.025.298.075.768.249.322.3.099.299-.05.35-.148.125-.397.074-.52-.025-.347.05-.297-.05-.545.05-.645.2-.47.175-.323.174-.248.2-.272.125-.297.175-.323.249-.099.175.174.075.371.149.298.125.644.175.347.1.322.149.273.125.347.275.594.199.273.225.248.15.247.224.199.225.223.249.148.325.124.299.075zm-.723-17.049l-.15.025v-.149l.125-.025.025.15zm-.949 0l.025-.124.1.025-.025.1h-.1zm1.622-.025h-.074v-.074h.074v.074zm-2.37.645l.099-.174.075-.099.15-.223.15.1-.075.148-.225.223-.174.025zm2.071-.273l-.175.025v-.174h.15l.025.149zm-.799 0h-.124v-.1h.149l-.025.1zm1.548.05h-.15v-.15l.15.026v.124zm-1.148.297l-.15-.025v-.148h.175l-.025.173zm.798.074l-.199.025-.025-.198h.199l.025.173zm.599.05l-.05.099-.174.173-.075.05-.15.025.05-.174.15-.198.1-.074.174-.05-.025.149zm-3.593.099h.174l.05.198h-.174l-.05-.198zm-.649 4.46l-.325-.148-.1-.273.15-.347.075-.347.075-.297.1-.297.199-.323.1-.322.175-.297.2-.446.324-.397.2-.297.199-.198.25-.198.274-.124.524-.025.45.148.224.174.15.273.075.297v.297l-.1.298-.025.347-.175.272-.124.297-.175.224-.275.396-.349.372-.299.173-.275.198-.549.298-.349.099-.275.124-.349.05zm.524-4.064v.15l-.15.024v-.149l.15-.025zm3.544.422l-.025.148-.2.05v-.223l.1-.074.15-.174.224-.149.1.174-.225.099-.124.149zm-.5-.223l-.074-.075.049-.05.075.025-.05.1zm-3.419.247l-.024.124h-.125l.025-.148.124.024zm4.193.496l-.175-.025.025-.198.175.05-.025.173zm-4.592.025l-.15-.05.025-.148.125.05v.148zm4.093.347l-.025-.149.175-.05v.174l-.15.025zm-4.517.025l-.15-.05.025-.149.15.05-.025.148zm.274.322l.05-.075.075.025-.025.075-.1-.025zm4.393.42h-.15v-.148h.15v.149zm-4.667.05l-.125-.024.025-.124.1.025v.123zm-.325.199v.148l-.149.025-.025-.173h.174zm4.692.198l-.174-.025-.025-.148.174-.025.1.148.025.1-.1-.05zm-4.467.297l-.025-.148.15.024.025.15-.15-.026zm3.943 0l-.299.347-.125-.124.175-.173.049-.074.125-.124.075.05v.098zm-4.567 0l-.05.05v-.074l.05-.025v.05zm.375.397l-.125-.025v-.124l.125.025v.124zm3.419.223v.074l-.075-.025v-.05h.075zm-3.794.05v.198h-.199v-.199h.199zm.724.123l-.075-.025.025-.074.075.025-.025.074zm-1.023.397l-.225.05-.025-.199.225-.05.025.199zm.698 0l-.174.124-.1.099-.125.198-.075.025-.149-.149.174-.173.075-.1.075-.074.15-.124.125.05.024.124zm2.471.074l.15.1-.025.148-.15-.025v-.198l-.075-.1.1.075zm-2.046.273l-.2.05-.05-.224.225-.025.025.199zm-1.572.025l-.2.024-.025-.198.2-.025.025.199zm2.246-.1l.025.149-.15-.025v-.148l.125.024zm-2.646.57l-.1-.025-.074-.173.149-.1.1.2.125.173.125.024v.174l-.175-.025-.025-.124-.125-.124zm.574-.074v-.223l.2.025v.223l-.2-.025zm.924-.05l-.15.025-.025-.148.125-.025.05.148zm.798-.074v.149l-.15-.025.025-.173.125.049zm.749.1h-.1l.025-.125.1.025-.025.1zm-1.897.445l-.199-.05.025-.222.199.05-.025.222zm.674-.074v-.1h.1v.1h-.1zm-1.048.223l.025.223-.225.025v-.223l.2-.025zm.699.198l-.05.1-.25.247-.199.05-.05-.075.099-.173.1-.075.075-.099.1-.074.175-.074v.173zm-.699.57v.174h-.175v-.174h.175zm.674.074v.124h-.075v-.099l.075-.025zm-.275.298v.173l-.199.025v-.173l.199-.025zm5.341.173h-.125v-.124h.15l-.025.124zm-5.94.174l.125.025.075.148-.175.025-.05-.074-.249-.298.025-.099.099.05.05.173.1.05zm5.59.148l-.149.025.025-.148h.149l-.025.123zm-.798.1l-.1-.025v-.1l.125.025-.025.1zm-4.218.198l-.025.148h-.125v-.124l.15-.024zm4.542.099l-.075-.025.025-.074.05.025v.074zm-.549.223l.125.025.025.099-.1.024-.075-.123-.125-.075-.099-.05V78.2l.124.025.025.099.1.099zm-.649.223v-.174l.175.05-.025.149-.15-.025zm-3.893-.025v-.099h.1v.1h-.1zm-.349.397l.025-.15.149.026v.148l-.174-.024zm.873 0h-.125v-.124l.125.024v.1zm3.095-.1v.1h-.1v-.1h.1zm-3.469.52l-.175-.024.025-.173.175.024-.025.174zm2.92-.197l.149.024.025.149-.174-.025v-.148zm-2.521.371l.025.149-.15.025-.025-.174h.15zm-.848.124l-.05-.05.05-.049.05.05-.05.05zm3.868-.05l-.075.025-.025-.074h.075l.025.05zm-.749.1l-.1-.05.05-.074.075.025-.025.099zm-2.67.198l.025.198-.175.025-.025-.174.175-.049zm3.119.198l-.149.025v-.149h.124l.025.124zm-.898.025v-.124h.125v.124h-.125zm-2.57.322h-.15l.025-.173.149.024-.024.15zm.623-.173l.175.024-.05.15-.125-.026v-.148zm2.446.223h-.2v-.199l.175.025.025.174zm-.823.025l-.1-.05.025-.1h.1l-.025.15zm-1.972.272l-.1.025v-.124l.075-.025.025.124zm2.92.05l.05-.124.174-.05v.174l-.099.074-.175.149-.05.124-.075.074h-.1l-.099-.075-.175-.148-.2-.174.15-.173.175.149.075.074.124.025.1.025.125-.124zm-2.995.743l-.025-.149.2-.198.1-.074.199-.1.075.05v.174l-.075.099-.099.074-.075.05-.1.074h-.2zm-.224-.347h-.125v-.149h.15l-.025.15zm2.296 0l-.125-.025.025-.124h.124l-.024.15zm1.172.248v.149h-.174v-.15h.174zm-2.72.52l-.174-.025.025-.148h.174l-.025.173zm-.748-.05l-.125.025v-.123h.1l.025.099zm3.793-.098l.025.074h-.1v-.074h.075zm-2.645.495h-.15v-.173l.174.024-.024.15zm2.32-.124v.1h-.099v-.1h.099zm-3.094.198l-.175-.024v-.149l.2.025-.025.148zm.249.323l-.024-.199h.174l.025.174-.175.025zm-.648-.124v.099h-.1v-.1h.1zm.374.495l-.15-.05.05-.148.15.05-.05.148zm.724.025l-.075-.05.025-.099.1.025-.05.124zm-.275.347l-.125.025-.025-.124.125-.05.025.15zm-.399.421l-.15.025-.05-.173h.175l.025.148zm.349.223l.025.174h-.15l-.024-.149.149-.025zm3.444.446h-.05v-.074l.075.025-.025.05zm-3.993.1v-.15h.15v.125l-.15.025zm4.717-.025h-.05l.025-.05h.05l-.025.05zm-4.168.347l-.1-.025.05-.124.1.05-.05.099zm3.769-.1l.124-.024v.124h-.099l-.025-.1zm.823.67l.2-.15.15-.024-.075.124-.075.074-.1.075-.125.05.025-.15zm.824.272l-.15.025-.025-.174h.175v.15zm.649-.074l-.025-.075h.124v.075h-.099zm-.35.272l-.025.075-.075-.025.025-.074.075.024z" fill="#fff"/><path d="M185.752 81.197l-.349.248-.425.694-.174.272-.125.298-.175.297-.199.297-.475.52-.249.249-.325.272-.648.223-.524.05-.2-.198.025-.323.1-.297.149-.273.175-.272.499-1.289.075-.297.1-.297.05-.372.05-.273.025-.322-.025-.842-.075-.52-.125-.273-.05-.322-.174-.323-.175-.247-.175-.273-.2-.223-.574-.347-.224-.173-.3-.124-.374-.075-.274-.074-.375-.025-.449.075-.848.198-.824.47-.499.373-.275.247-.249.248-.15.273-.274.247-.15.124-.15-.173-.05-.347-.025-.917-.15-.446-.249-.372-.35-.05-.324.05-.274.1-.175.396.05 1.115.1.347-.025.322.05.322-.025.322v.323l.074.346v.347l.025.298.025.322-.05.322.025.372-.025.62.05.668v.347l-.075.297.025.347-.049.67-.075.297v.372l-.05.322.025.347-.025.297-.075.297.025.347-.125.322-.025.322-.025.372.025.298-.05.347-.075.322.025.297-.05.322-.099.322-.1.992-.1.272.025.322-.025.273v.47l.1.323.274.074.275.05.299-.1.35-.322.149-.743.125-.991.025-.298.075-.346.15-.645-.025-.347.05-.322v-.297l.05-.298.049-.322.05-.347v-.347l.2-.247.374-.124.3.074.299.025.375-.025h.274l.474-.074.824-.174.574-.247.274-.174.3-.198.424-.124.349.025.325.099.374.025.325.05h.474l.499-.1.274-.074.3-.124.599-.372.225-.173.224-.248.2-.248.449-.496.1-.272.224-.297.175-.273.15-.297.175-.273.149-.297.125-.471v-.421l-.225-.224-.374-.074zm-5.865-4.237l.125-.1.075.075-.025.124h-.15l-.099.1-.05.123-.15.149-.125-.075.1-.198.125-.074.174-.124zm.624.396l-.199.025-.05-.173h.199l.05.148zm.749.05h-.175v-.174h.175v.174zm-2.321 0h-.125l.025-.149.1.025v.124zm1.922.173l.025.149h-.175v-.173l.15.024zm-1.523.05l-.05.074-.049-.025v-.074l.099.025zm-3.768 0l-.025.099-.1.025v-.124h.125zm2.945.099h-.1l.025-.1h.075v.1zm1.497.025l-.1-.05.05-.074.075.025-.025.099zm1.547-.124l.025.149-.124-.025-.025-.1.124-.024zm-6.413.47l-.1-.024.025-.074h.1l-.025.099zm5.964-.098l.1.024-.025.075h-.075V78zm.724.148l.025-.148.15.024-.025.15-.15-.026zm-5.241 7.063l-.249-.224-.125-.371v-.322l.05-.323-.025-.322.025-.347.025-.297-.025-.694.025-.47.125-.471.124-.347.3-.62.174-.272.2-.273.175-.272.224-.298.225-.223.275-.223.199-.248.325-.148.249-.149.325-.124.324-.1.424-.049.45.075.274.099.499.446.125.272.075.273.075.47.05.496v.323l-.05.322-.05.347-.15.594-.025.322-.175.298-.099.322-.3.273-.374.198-.3.198-.224.248-.15.347-.075.421-.225.347-.623.322-.2.1-.3.073-.374.05-.299.05-.649-.05-.275-.05zm1.498-7.137l.05-.05.074.025-.05.05-.074-.025zm3.743.818l-.05-.124.125-.124.1-.075.075-.099.099-.124.125.05-.075.173-.075.075-.049.099-.175.173-.1-.024zm-6.264-.372l-.15-.025v-.124h.15v.149zm5.94-.025v-.124h.124v.124h-.124zm-5.591.273l-.025.148-.174-.05.05-.148.149.05zm-.723-.025v.124h-.125l-.025-.124h.15zm2.246.124h-.125l.025-.124h.125l-.025.124zm4.941.223v.173l-.175.025-.025-.198h.2zm-6.788.198l-.175.025-.025-.198h.2v.173zm.724-.148v.148h-.175v-.173l.175.025zm5.665.297l.1.074.074.174.125.074.1.074-.025.223-.1.075-.299.297-.125-.124.15-.173.075-.1.05-.099-.05-.099-.075-.099-.15-.124.025-.148.125-.025zm-6.04.223h-.199l-.025-.174.199-.024.025.198zm.574.025v-.223h.2l.025.198-.225.025zm-1.347-.05h-.15v-.149h.125l.025.15zm7.512 0l-.1-.025v-.124l.124.025-.024.124zm-7.138.174l.025.173-.2.05-.025-.199.2-.025zm.774.222l-.2-.024v-.174l.2.025v.174zm-.35.124l.025.174-.05.074-.199.025.025-.198.199-.075zm-.773.223h-.15v-.148h.125l.025.148zm1.447-.024l-.1.024-.05-.123.125-.025.025.124zm6.089.024l-.124-.024v-.124l.149.025-.025.123zm-7.137.447h-.225v-.199l.075-.074.175.025-.025.248zm6.788-.025l-.225-.025v-.198l.2.025.025.198zm-6.089 0l-.175-.025.05-.173.175.024-.05.174zm-.35.446l-.099-.025-.125-.1.025-.173.199-.024.1.148v.075l.025.124.1.024.025.1-.1-.025-.025-.075-.125-.05zm-.723-.273v.149l-.15-.025.025-.124h.125zm6.738 0l.15.124.224.223-.125.149-.174-.149-.1-.074-.125-.174.15-.099zm.724.149h-.1v-.1h.1v.1zm-7.113.223l.025.124-.15.025v-.15h.125zm-.424.372l.025.123h-.125v-.099l.1-.024zm.773.148h-.099v-.124h.124l-.025.124zm6.065.025h-.15l.025-.149.15.05-.025.099zm-6.389.396l-.225.025v-.223l.225-.025v.224zm6.014-.049h-.174l.025-.174.149.025v.149zm.699 0h-.1v-.1h.1v.1zm-6.414.421h-.174l.05-.173.149.024-.025.15zm-.823-.074v-.075l.1.025v.05h-.1zm6.888.05l-.125.024-.025-.124.125-.025.025.124zm-6.539.396l-.025-.223h.225v.223h-.2zm6.189-.025h-.174l.025-.173h.174l-.025.173zm-6.538.322l.025-.074h.1l-.025.074h-.1zm.699.05v-.124h.149v.124h-.149zm5.465-.1l-.025.15-.125-.05.025-.124.125.025zm-.873.1l.025-.075h.074v.075h-.099zm.324.371v-.173l.175.05-.025.173-.15-.05zm.749-.024v-.149l.174.025-.025.148-.149-.024zm-5.865-.05v.124h-.15l.025-.124h.125zm5.44.421l-.025-.148h.2l.025.148h-.2zm-5.839-.099v.05l-.075.025-.025-.05.1-.025zm.723 0l.025.124-.174.05-.025-.149.174-.025zm4.418.124v-.124l.174.025v.124l-.174-.025zm-4.942.422v-.199l.075-.05h.175l-.025.224-.225.025zm5.516.024h-.2v-.223l.2.025v.198zm.698-.05l-.149-.024.05-.149h.149l-.05.174zm-1.497.026h-.125v-.15l.15.026-.025.124zm1.098.297h-.15v-.149l.175.025-.025.124zm-5.266-.124v.149l-.174.024v-.148l.174-.025zm3.644.025l.15-.025.025.124-.175.025v-.124zm.898.124l-.149-.025.05-.124.149.025-.05.124zm-5.29.024l-.15-.024.025-.124h.15l-.025.148zm6.763-.024h-.125v-.1h.125v.1zm-6.888.545h.125l.125-.149.099-.223h.2l.025.174-.175.173-.149.074-.025.149-.225.05-.1-.199.1-.05zm5.041-.124l-.175.05v-.224l.2-.05-.025.224zm.749-.025l-.15.05-.025-.199.15-.024.025.173zm.723 0l-.124-.025.025-.148.124.024-.025.15zm-5.265-.05h-.1v-.099h.1v.1zm3.019-.099l.025.15-.149.024-.025-.149.149-.025zm3.02.124l-.1.025v-.074l.075-.025.025.074zm-6.439.397h-.174l.025-.174h.149v.174zm.824.025h-.175v-.199l.175.025v.174zm1.323-.025l.025-.174.149.025-.025.149h-.149zm.898-.025l-.175.025v-.174h.175v.149zm.799-.149v.149h-.175v-.149h.175zm-1.947.57l-.15-.099-.074-.074-.075-.1-.1-.074-.1-.099.075-.074.125.05.199.148.075.075.075.099-.05.148zm-2.221 0l-.2-.025.025-.223.2.05-.025.198zm.774-.198l-.05.198-.2-.025.05-.198.2.025zm2.271-.025v.174l-.175.05v-.199l.175-.025zm-1.198.496l-.175-.05-.1-.05-.075-.049-.199-.198.075-.124.149.074.1.075.075.074.2.149-.05.099zm1.871-.298l-.099-.024v-.124h.124l-.025.148zm-4.067 1.165l-.175.025-.15-.149v-.124l-.025-.099v-.248l.025-.148v-.1l.175-.148.175.124v.099l-.25.248v.099l.075.099.125.124.05.074-.025.124zm.698-.793h-.174l.025-.198.174.025-.025.173zm.774 0l-.2-.025.05-.173.175.025-.025.173zm1.373-.074v-.1h.099v.075l-.099.025zm-2.496.446h-.15v-.174l.15.025v.149zm-.05.768l-.15-.05.025-.148.15.025-.025.173zm-.474.124l.125.05v.198l-.175-.025-.05-.124-.1-.149-.1-.05v-.148l.125.025.025.1.15.123zm.499.57h-.075v-.074h.05l.025.074zm-.075.719l-.05.024-.124-.099-.1-.074-.1-.1-.025-.173.175.025.074.124.075.1.1.123-.025.05zm-.649.099l-.149-.025.025-.124.124.025v.124zm.35.322l-.175.025-.025-.15.15-.024.05.149zm-.275.322l.075.074.1.075.075.099.025.148-.075.05-.2-.198-.1-.075-.124-.099.05-.099.174.025zm-.249.842v-.148h.174v.124l-.174.024zm.449.273l-.025.074-.075-.024.025-.075.075.025zm-.3.446l-.099-.025.049-.099.075.075-.025.049z" fill="#fff"/><path d="M188.318 86.6l.923-.1.349-.074.549-.248.25-.149.499-.396.275-.174.174-.248.25-.247.175-.273.174-.223.15-.124.175.174.224.917.15.247.175.248.349.297.374.224.275.074.474-.025.499-.099.674-.347.449-.273.2-.173.274-.273.175-.247.2-.223.199-.273.15-.272.175-.248.15-.273.174-.273.325-.594.125-.273.174-.272.1-.446-.05-.446-.249-.199-.325-.099-.274.248-.25.397-.225.322-.149.297-.125.273-.225.297-.124.297-.225.248-.2.297-.224.223-.375.52-.324.174-.225.124-.449.1-.424-.1-.25-.248-.075-.346-.074-.273-.05-.322-.025-.322.025-.347-.05-.347v-.471l.05-.446v-.347l-.025-.297.025-.347.099-.67.05-.941.05-.347.075-.669.025-.297-.025-.322-.025-.471-.125-.347-.474-.124-.474.025-.2.247-.274.273-.275-.025-.324-.148-.275-.075-.324-.124-.599-.074-.449-.025-.499.025-.325.05-.324.123-.324.1-.25.124-.699.446-.599.57-.224.272-.175.248-.175.297-.499.868-.125.297-.075.322-.099.273-.075.322-.05.322-.025.347-.1.297-.025.297.05.347-.025.347v.347l.075.298.075.322.125.297.025.347.149.273.125.297.449.545.225.223.249.174.275.148.299.149.325.1.299.049.375.05zm4.691-9.368l-.099-.024.025-.124.099.025-.025.123zm-3.743-.099v.149l-.15-.025v-.148l.15.024zm.724.174h-.15l.025-.124h.125v.124zm.723-.05l-.074.025v-.1h.074v.075zm-1.148.397l-.124.025-.025-.174.149-.025v.174zm3.145-.025h-.175l.025-.149h.15v.149zm.699.05l-.15-.025.025-.174.15.025-.025.174zm-2.271-.025l-.125.025-.025-.174h.15v.149zm.649 0l.025-.149h.149l-.05.174-.124-.025zm-2.92-.124v.124h-.125v-.124h.125zm1.497 0v.124h-.125v-.124h.125zm-1.248.446l-.025-.149h.15v.124l-.125.025zm3.195-.124v.198l-.175-.025v-.198l.175.025zm-.849 0h.1v.074h-.1v-.074zm1.522.198h-.174l.025-.173h.174l-.025.173zm-4.542-.124l.025.1h-.099l-.025-.1h.099zm.949 7.038l-.449.099-.475.074-.349-.05-.25-.123-.274-.198-.25-.224-.149-.272-.125-.322-.1-.298-.05-.322-.025-.644-.05-.322.125-.62.05-.322.2-.594.124-.298.425-.917.224-.223.175-.297.25-.198.249-.223.225-.174.324-.173.349-.124.475-.075.748.025.624.174.3.099.274.272.125.422-.05.297v.644l-.075.347-.025.298-.399 1.883-.125.322-.125.297-.524.818-.249.248-.2.248-.274.148-.3.15-.374.148zm-1.473-6.592l-.025-.148h.175v.148h-.15zm4.792.025h-.175l.025-.173h.175l-.025.173zm.699 0l-.15-.025.025-.148h.15l-.025.173zm-6.189-.025v-.099h.099v.1h-.099zm5.889.421l-.174.025-.05-.198.199-.025.025.198zm-6.239-.024v-.1l.075.025v.1l-.075-.025zm6.514.248l-.025.074-.075-.05.025-.05.075.026zm-6.065.099h-.124l-.025-.1h.124l.025.1zm5.241.025v-.075l.075-.025v.075l-.075.025zm.524.247l.075.1.05.099.15.148-.125.1-.275-.174-.124-.174.075-.148.174.05zm-6.189.1h-.05v-.05h.05v.05zm5.615.445l.025-.198h.175l-.025.174-.175.024zm-5.964-.024l-.125.024v-.148l.125-.025v.149zm6.538.322l-.149.025v-.124l.124-.025.025.124zm-6.937-.075l.024.1-.124.024v-.124h.1zm.748.124h-.1l.025-.124h.075v.124zm5.74.397l-.15-.025.05-.124.15.025-.05.124zm-6.089-.1l.025.05-.1.025-.025-.05.1-.024zm5.64.472l.025-.124h.1v.124h-.125zm.749 0v-.124l.124.024-.025.1h-.099zm-6.439.173v-.173l.15-.025v.173l-.15.025zm6.214.05v.148l-.15.025-.025-.149.175-.025zm-.374.57h-.15v-.174l.15.025v.148zm.723-.174l.025.149-.174.025v-.174h.149zm-.374.372l-.025.173-.175-.05v-.148l.2.025zm-6.139.124l-.1-.025.025-.075h.1l-.025.1zm5.565.446l.025-.223h.2l-.025.198-.2.025zm.973-.199l-.025.199h-.199l.025-.199h.199zm-.349.546l-.225.024-.025-.223h.225l.025.199zm-6.913-.025l-.15.025-.025-.15.15-.024.025.149zm6.114.025h-.149v-.174l.149.025v.149zm.4.371l-.2-.025v-.173l.175.025.025.173zm.723-.124l-.05.149h-.149l.05-.173.149.024zm-1.447.124l.15.1.099.049.1.074-.05.174-.174-.025-.075-.074-.075-.124-.05-.149.075-.025zm1.098.397h-.225v-.223h.225v.223zm-6.738-.124l-.125.05v-.1l.1-.025.025.075zm6.339.495l-.175.025v-.173l.175-.025v.173zm.549-.024l.025-.149.149.025-.025.148-.149-.024zm3.993-.025h-.1v-.1h.125l-.025.1zm-5.491.099v-.124l.125-.025v.124l-.125.025zm5.091.273l-.149-.025v-.174l.149.05v.149zm-3.743.148l-.075-.024-.15-.15.125-.123.125.124.05.099.125.124.149.074v.149h-.149l-.075-.198-.125-.075zm-1.572-.124l-.075-.05.025-.049.05.025v.074zm2.121 0l.025-.074.1.025-.025.05h-.1zm-6.613.323v-.15l.149-.024v.149l-.149.025zm-.45.074h-.124v-.149h.124v.149zm9.858 0l-.1-.05.025-.074.1.025-.025.099zm-5.39 0v-.1l.074.026-.05.074h-.024zm-3.345.421h-.199v-.198h.199v.198zm5.64.273l.075-.174.1-.074.075-.1.15-.123.1.074-.075.174-.05.074-.125.1-.075.049h-.175zm2.771-.471v.124l-.1.025v-.1l.1-.05zm-9.184.223h-.15l-.025-.174.15-.024.025.198zm3.818-.025l-.125-.025v-.124h.125v.15zm3.768.025h-.074v-.1l.099.025-.025.075zm-.474.347l-.025-.198.2-.025.025.198-.2.025zm-6.763-.075h-.1v-.099h.1v.1zm7.712.1l-.175-.025v-.174l.175.025v.174zm-5.341-.15l-.025.15-.125-.05v-.124l.15.025zm-1.522.15l-.2.024v-.173h.175l.025.149zm.698-.15v.075l-.049.025-.025-.1h.074zm1.523.075h-.1l.025-.074h.1l-.025.074zm-1.972.372l-.025-.149h.15v.149h-.125zm1.622.025l-.149-.025v-.149l.149.025v.149zm4.592-.025l-.174.05.025-.199h.174l-.025.149zm-6.888-.1v.1l-.099-.025.025-.099.074.025zm6.09.1h-.1l-.025-.124h.125v.124zm-4.567.05h-.175v-.124l.175-.025v.148z" fill="#fff"/><path d="M207.296 81.197l-.349.223-.574.917-.15.297-.225.323-.174.247-.5.496-.249.173-.474.471-.275.174-.249.148-.325.124-.249.149-.4.1-.274.073-.649.1-.474.024-.699-.074-.449-.174-.275-.148-.249-.174-.25-.223-.175-.297-.174-.223-.125-.297-.175-.347-.025-.273-.099-.347-.025-.842.025-.446.099-.347.075-.62.125-.347.1-.272.15-.298.124-.272.2-.298.499-.446.225-.198.299-.148.3-.1.274-.074.499.074.474.1.3.173.125.248.1.322.049.322.075.47.1.348.3.099.324-.05.3-.05.274-.346.1-.471.025-.297-.05-.372-.05-.322-.1-.297-.125-.273-.349-.496-.25-.198-.324-.149-.324-.124-.325-.099-.424-.074-1.173.074-.225.1-.299.099-.349.123-.25.124-.324.174-.2.198-.275.174-.224.223-.225.247-.15.248-.199.273-.175.297-.299.57-.25.57v.297l-.15.62-.025.297-.075.322v.991l.025.323.1.371.05.298.025.347.15.297.125.273.149.322.15.248.175.272.224.297.225.223.225.174.324.198.574.248.649.198.324.075.774.024.848-.024.325-.05.274-.074.35-.1.324-.074.624-.272.275-.15.249-.172.3-.15.199-.197.549-.447.225-.198.2-.297.249-.248.2-.248.449-.644.225-.446.174-.273.1-.297.175-.421-.025-.446-.3-.223-.299-.05zm-5.316-4.361v.1h-.075l-.025-.075.1-.025zm-.624.669l-.05.149-.174.025.025-.15.149-.074.05-.148-.074-.223-.025-.174.149.124.2.149.05.148-.2.075-.1.099zm1.398-.47l-.05-.026v-.074l.075.025-.025.074zm-.349.148v.148l-.15.025-.025-.173h.175zm-1.523.148l-.125-.024.025-.1h.125l-.025.125zm2.271-.024h-.1l-.025-.075h.125v.075zm-2.97-.05l-.024.124-.1-.025.025-.099h.099zm3.37.52l-.2-.049.025-.223.199.025-.024.248zm-3.045-.198v.149l-.15-.025v-.124h.15zm1.497 0v.124h-.125v-.124h.125zm.824 0l-.025.199-.175-.025.05-.174h.15zm.374.496l-.15.025v-.174l.15-.025v.174zm-3.843.025l-.1-.05v-.099h.1v.149zm.649-.05v-.099h.075v.1h-.075zm3.918.025l-.125.025v-.124l.125-.025v.124zm-4.168.347h-.174l.024-.174h.175l-.025.174zm3.669.074v-.148l.1-.025.025.148-.125.025zm-4.442 0l-.125-.025v-.099l.125.025v.1zm4.916.273l-.125.05-.05-.15.175-.049v.149zm-4.642.05l.025-.125.05.075-.075.05zm-.798.074l.049-.149h.125l-.075.124-.099.025zm.499.272h-.15l-.025-.124.15-.024.025.148zm-.724.818h-.15v-.174h.175l-.025.174zm.649-.05v-.099h.1v.1h-.1zm-.674.818l-.175-.025.05-.148.15.025-.025.148zm.424.397h-.15v-.174l.15.025v.149zm-.748.495l.024.174-.174.05-.025-.174.175-.05zm.723.124l-.025.149-.124-.025v-.149l.149.025zm-.1 1.363v.198l-.224-.025v-.198l.224.025zm-.698.496l-.075-.075.05-.074.075.05-.05.099zm1.148.099l-.125-.025.025-.124.1.025v.124zm-.3.272v.174l-.175-.025-.024-.149h.199zm.2.52l-.05-.148h.15l.025.124-.125.025zm.524.372h-.175l-.025-.173h.175l.025.173zm-.774 0l-.125-.024.025-.1h.15l-.05.124zm1.123.323h-.149l-.025-.15h.149l.025.15zm-.723.099l-.15-.025.05-.174.124.075-.024.124zm5.265-.075h-.075v-.074h.075v.074zm-4.941.347l-.125-.025.025-.123h.125l-.025.148zm.824.05h-.175v-.198h.15l.025.198zm3.793-.124l-.025.124-.1-.025v-.124l.125.025zm-3.095.124h-.1v-.075l.075-.024.025.099zm2.221.025l-.025-.124h.125v.099l-.1.025zm-2.545.346h-.15v-.148h.15v.148zm.749.025h-.175l.025-.173.174.025-.024.148zm.773-.148v.173l-.15-.025-.025-.173.175.025zm.699.123l-.075-.024.025-.075h.075l-.025.1zm-1.098.248v.1l-.125.024.025-.124h.1zm.749.025l-.025.1-.075-.026v-.074h.1z" fill="#fff"/><path d="M218.172 81.52l-.2-.224-.299-.099-.399.223-.325.421-.1.298-.124.297-.2.273-.3.545-.224.248-.175.297-.249.198-.275.199-.399.198-.524.05-.2-.15.025-.322.125-.272.15-.322.049-.322.325-.967.025-.322.075-.495.05-.496.025-.347-.05-.322-.025-.347.025-.297-.275-.967-.125-.322-.174-.273-.175-.247-.225-.248-.274-.223-.275-.149-.574-.297-.673-.1-.5-.049-.673.05-.499.074-.3.1-.324.073-.325.124-.524.323-.299.223-.45.446-.149.272-.2.273-.225.272-.099.298-.225.272-.1.322-.15.347-.049.273-.1.347-.05.297-.025.347-.125.991-.05.322.075.323-.05.347.1.297.075.347.025.322.174.322.1.273.2.272.175.298.224.247.275.174.224.248.3.148.649.273.299.025.449.05.524-.026.3-.024.274-.075.325-.099.399-.173.724-.422.374-.123h.4l.374.074.274.05.949-.025.299-.075.25-.148.324-.149.25-.174.249-.222.225-.199.299-.347.25-.371.324-.595.225-.248.1-.297.125-.273.224-.297.1-.421-.05-.422zm-7.062-4.635l.074.025-.05.075-.049-.05.025-.05zm1.497.05l.075.025-.025.074-.05-.025v-.074zm-2.72.297h.099v.1h-.099v-.1zm.798.025l.1-.025v.1h-.1v-.075zm2.296 0h.075v.075h-.075v-.075zm-1.422.05v.074l-.125.025-.025-.1h.15zm.649 0l.124.025v.099l-.149-.025.025-.1zm-2.571.297l.025.174h-.175l-.025-.15.175-.024zm.624.025l.125.025-.025.148h-.125l.025-.173zm2.346 0h.1v.124l-.1.025v-.15zm.699.025h.149v.124l-.149.024v-.148zm-.175.297l-.025.149h-.075v-.124l.1-.025zm-4.018.05l.125-.025-.025.148-.1-.024V78zm4.567.024l.2-.024v.223h-.2v-.199zm-.524 4.262l-.1.298-.299.272-.375.248-.224.248-.15.273-.2.743-.199.372-.425.223-.499.148-.923-.024-.325-.149-.249-.173-.225-.248-.149-.223-.2-.323-.1-.346-.125-.645.05-.322-.025-.297.05-.496.2-.817.025-.323.249-.594.05-.273.35-.595.149-.247.475-.447.274-.173.3-.173.399-.15.624-.049.549.075.274.099.275.148.249.199.2.247.125.323.075.297.075.67.074.346-.025.322-.049.471-.125.743-.1.322zm.798-3.568l-.024.075-.1.173-.125-.05v-.173l.125-.1.149-.173.025-.099h.2l-.05.198-.1.025-.1.124zm-5.215-.297l.1-.025.024.124-.124.025v-.124zm4.741.124h-.099v-.124h.149l-.05.124zm-3.993-.05l.075.025-.025.05h-.075l.025-.075zm-.249.273l-.025.074h-.075l.025-.074h.075zm-.724.024l.025.15-.15.049-.025-.174.15-.025zm.3.323l.025.074-.1.025-.025-.075.1-.024zm-.824.05h.1l.025.074h-.125v-.075zm6.264.024l-.025.1h-.125v-.125l.15.025zm-5.89.372l.05-.025.025.1-.075.024v-.1zm6.09.025l.124-.025.025.148-.149.025v-.148zm-.774.024h.1l-.025.1-.1-.025.025-.075zm-5.59.322l.025.15-.125.024-.025-.149.125-.025zm6.039.15l.025-.125.1.025v.124l-.125-.025zm.325.148h.099l.05.173h-.149v-.173zm-6.888.05h.174l-.025.173h-.149v-.174zm.798 0l.15.024-.025.174h-.125v-.199zm5.366.198v-.15l.1-.024.025.149-.125.025zm-5.615.173l.025.149-.125.025-.05-.15.15-.024zm6.114.074l-.025.1-.1-.025v-.124l.125.05zm-6.663.323h.125v.099h-.125v-.1zm.574.47h-.175l.05-.148h.15l-.025.148zm6.064-.05l.025.15h-.175v-.15h.15zm-7.013.026h.125v.074l-.125.025v-.1zm.574.47h-.199l.025-.198.174.025v.173zm6.065-.05h-.075v-.098l.1.025-.025.074zm.723.05l-.049-.024.024-.075.025.025v.074zm-.299.397l-.2-.05.05-.198.175.05-.025.198zm-6.913-.198v.123h-.125v-.123h.125zm.649.223l-.025-.124.1-.025.025.149h-.1zm-.424.148l.1-.025.025.124-.125.025v-.124zm6.289.1l-.025.148-.1-.025v-.148l.125.024zm-6.514.445h-.125v-.148h.15l-.025.148zm.599-.099l.1-.024.025.148-.125.025v-.149zm5.54 0v.124l-.149.025.025-.149h.124zm.724.1h-.1v-.1h.1v.1zm-6.688.47v-.223l.224-.05.025.224-.249.05zm6.339-.05h-.2l.075-.173.175.025-.05.149zm-.899.05v-.173h.15v.173h-.15zm-4.891.273h-.125l.025-.124.125.025-.025.099zm-.799 0h-.075l.025-.075.075.025-.025.05zm6.264.074h-.199l.025-.148h.174v.148zm-.923 0l-.025-.074.1-.025.025.074-.1.025zm-5.066.347v-.149l.125-.024.025.148-.15.025zm5.54-.124l-.025.174h-.15v-.199l.175.025zm-4.692.025l.05.025-.025.074-.025-.025v-.074zm3.844.149l-.075-.124.149-.025.05.149h-.124zm1.472-.025l.025-.124.125.025-.025.124-.125-.025zm-.374.372l-.025-.223h.199l.025.198-.199.025zm-5.266 0l-.075-.025.025-.1.05.026v.099zm4.517 0v-.1h.1v.124l-.1-.024zm1.622.074l-.15-.025.025-.148.15.024-.025.149zm-1.922.322l-.149-.074.05-.174.174.05-.075.198zm-3.943-.198l.075-.025.05.1-.1.024-.025-.1zm4.617.223l-.025-.223.175-.025.025.223-.175.025zm-5.265-.149h-.075v-.074h.075v.074zm6.214.198l-.2-.024-.025-.248.225.025v.247zm.673-.024h-.124l.025-.199.124.025-.025.174zm.824-.025l-.1-.025.025-.124.075.025v.124zm-6.539.322l-.149-.025.025-.148.149.024-.025.149zm-.798-.025h-.075v-.124l.075.025v.1zm4.542 0v-.124h.075l.025.075-.1.05zm.823.025l-.074-.05.025-.074.074.025-.025.099zm-2.395.025l-.025-.124h.149l.025.149-.149-.025zm.873-.05h-.075l-.025-.074h.1v.074zm-1.223.397l-.025.05-.025-.075v-.1l.125-.074.05.15-.125.049zm-1.597 0l-.025-.149h.2l.025.149h-.2zm2.471-.05h-.125v-.099h.125v.1zm-3.07.025l-.1-.025v-.074h.1v.099zm1.448.05h-.1l.025-.075h.1l-.025.075zm-.275.371h-.15v-.149l.15.025v.124zm.724 0h-.125v-.124l.125-.025v.15z" fill="#fff"/><path d="M223.537 86.55l.449.024.474-.05.275-.073.324-.124.275-.174.224-.198.275-.149.274-.223.15-.223.225-.272.449-.52.324-.521.3-.545.199-.298.15-.272.1-.322.175-.273.074-.446.025-.446-.299-.198-.299-.05-.325.248-.299.372-.25.62-.15.272-.199.272-.125.298-.2.297-.224.248-.2.297-.2.223-.249.199-.225.222-.224.199-.275.148-.449.05-.424-.05-.275-.148-.249-.248-.175-.223-.175-.297-.2-.248-.049-.298-.15-.297-.1-.297-.15-.273-.199-.62-.15-.594-.025-.347-.125-.273v-.346l-.025-.447.2-.347.175-.222.474-.496.499-.372.274-.248.275-.173.249-.124 1.098-.396.4-.174.125-.347-.075-.347-.175-.248-.499-.099-.724.1-.424.148-.325.149-.274.149-.3.148-.798.57-.424.446-.25.223-.2.273-.224.223-.849 1.065-.124.273-.25.273-.175.247-.149.273-.125.148-.125-.198v-.322l.025-.322v-.595l.025-.322-.025-.347v-.322l.05-.322.025-.297.05-.323.025-.322.05-.322v-.297l.05-.347.174-.297.375-.199.299-.025.275-.074.324-.05.349-.049.275-.124.299-.124.3-.099.299-.124.3-.173.574-.471.449-.446.549-.595.15-.272.224-.298.15-.322.125-.297.05-.273.05-.371.025-.323.05-.297-.025-.322-.1-.297-.275-.57-.15-.298-.174-.223-.3-.223-.299-.124-.3-.099-.474-.074h-.474l-1.023.223-.275.124-.224.173-.325.174-.224.223-.25.223-.699.892-.524 1.04-.124.323-.15.297-.075.322-.05.297-.125.323-.1.347-.099.297-.225.272-.349.1-.45-.075-.349.124-.2.298v.272l.3.322.424.248.325.223.124.397-.025.272v.322l-.124.992-.05.297.025.966-.025.322-.075.645.025.297v.67l.075.321-.075.322.1.62-.05.322v.297l.05.323v.346l-.025.298.025.347.074.322-.049.297.024.298.075.768.25.322.299.099.3-.05.349-.148.125-.397.075-.52-.025-.347.05-.297-.05-.545.05-.645.199-.47.175-.323.175-.248.199-.272.125-.297.175-.323.25-.099.174.174.075.371.15.298.125.644.174.347.1.322.15.273.125.347.274.594.2.273.224.248.15.247.225.199.224.223.25.148.324.124.3.075zm-.724-17.049l-.15.025v-.149l.125-.025.025.15zm-.948 0l.025-.124.1.025-.025.1h-.1zm1.622-.025h-.075v-.074h.075v.074zm-2.371.645l.1-.174.075-.099.15-.223.149.1-.075.148-.224.223-.175.025zm2.071-.273l-.174.025v-.174h.149l.025.149zm-.798 0h-.125v-.1h.15l-.025.1zm1.547.05h-.15v-.15l.15.026v.124zm-1.148.297l-.15-.025v-.148h.175l-.025.173zm.799.074l-.2.025-.025-.198h.2l.025.173zm.599.05l-.05.099-.175.173-.075.05-.15.025.05-.174.15-.198.1-.074.175-.05-.025.149zm-3.594.099h.175l.05.198h-.175l-.05-.198zm-.649 4.46l-.324-.148-.1-.273.15-.347.074-.347.075-.297.1-.297.2-.323.1-.322.174-.297.2-.446.324-.397.2-.297.2-.198.249-.198.275-.124.524-.025.449.148.225.174.149.273.075.297v.297l-.1.298-.024.347-.175.272-.125.297-.175.224-.274.396-.35.372-.299.173-.275.198-.549.298-.349.099-.274.124-.35.05zm.524-4.064v.15l-.15.024v-.149l.15-.025zm3.544.422l-.025.148-.2.05v-.223l.1-.074.15-.174.225-.149.099.174-.224.099-.125.149zm-.499-.223l-.075-.075.05-.05.075.025-.05.1zm-3.419.247l-.025.124h-.125l.025-.148.125.024zm4.192.496l-.174-.025.025-.198.174.05-.025.173zm-4.591.025l-.15-.05.025-.148.125.05v.148zm4.092.347l-.025-.149.175-.05v.174l-.15.025zm-4.517.025l-.149-.05.025-.149.149.05-.025.148zm.275.322l.05-.075.075.025-.025.075-.1-.025zm4.392.42h-.15v-.148h.15v.149zm-4.667.05l-.124-.024.025-.124.099.025v.123zm-.324.199v.148l-.15.025-.025-.173h.175zm4.692.198l-.175-.025-.025-.148.175-.025.1.148.024.1-.099-.05zm-4.467.297l-.025-.148.149.024.025.15-.149-.026zm3.943 0l-.3.347-.125-.124.175-.173.05-.074.125-.124.075.05v.098zm-4.567 0l-.05.05v-.074l.05-.025v.05zm.374.397l-.125-.025v-.124l.125.025v.124zm3.419.223v.074l-.075-.025v-.05h.075zm-3.793.05v.198h-.2v-.199h.2zm.723.123l-.075-.025.025-.074.075.025-.025.074zm-1.023.397l-.224.05-.025-.199.224-.05.025.199zm.699 0l-.175.124-.1.099-.124.198-.075.025-.15-.149.175-.173.075-.1.074-.074.15-.124.125.05.025.124zm2.471.074l.149.1-.025.148-.149-.025v-.198l-.075-.1.1.075zm-2.047.273l-.199.05-.05-.224.224-.025.025.199zm-1.572.025l-.2.024-.025-.198.2-.025.025.199zm2.246-.1l.025.149-.15-.025v-.148l.125.024zm-2.645.57l-.1-.025-.075-.173.15-.1.1.2.124.173.125.024v.174l-.175-.025-.025-.124-.124-.124zm.574-.074v-.223l.199.025v.223l-.199-.025zm.923-.05l-.15.025-.025-.148.125-.025.05.148zm.799-.074v.149l-.15-.025.025-.173.125.049zm.748.1h-.1l.025-.125.1.025-.025.1zm-1.896.445l-.2-.05.025-.222.2.05-.025.222zm.673-.074v-.1h.1v.1h-.1zm-1.048.223l.025.223-.224.025v-.223l.199-.025zm.699.198l-.05.1-.249.247-.2.05-.05-.075.1-.173.1-.075.075-.099.099-.074.175-.074v.173zm-.699.57v.174h-.174v-.174h.174zm.674.074v.124h-.075v-.099l.075-.025zm-.274.298v.173l-.2.025v-.173l.2-.025zm5.34.173h-.125v-.124h.15l-.025.124zm-5.939.174l.124.025.075.148-.174.025-.05-.074-.25-.298.025-.099.1.05.05.173.1.05zm5.59.148l-.15.025.025-.148h.15l-.025.123zm-.799.1l-.1-.025v-.1l.125.025-.025.1zm-4.217.198l-.025.148h-.125v-.124l.15-.024zm4.542.099l-.075-.025.025-.074.05.025v.074zm-.549.223l.124.025.025.099-.1.024-.074-.123-.125-.075-.1-.05V78.2l.125.025.025.099.1.099zm-.649.223v-.174l.174.05-.025.149-.149-.025zm-3.893-.025v-.099h.099v.1h-.099zm-.35.397l.025-.15.15.026v.148l-.175-.024zm.874 0h-.125v-.124l.125.024v.1zm3.094-.1v.1h-.1v-.1h.1zm-3.469.52l-.174-.024.025-.173.174.024-.025.174zm2.92-.197l.15.024.025.149-.175-.025v-.148zm-2.52.371l.025.149-.15.025-.025-.174h.15zm-.849.124l-.05-.05.05-.049.05.05-.05.05zm3.868-.05l-.075.025-.025-.074h.075l.025.05zm-.748.1l-.1-.05.05-.074.075.025-.025.099zm-2.671.198l.025.198-.174.025-.025-.174.174-.049zm3.12.198l-.15.025v-.149h.125l.025.124zm-.899.025v-.124h.125v.124h-.125zm-2.57.322h-.15l.025-.173.15.024-.025.15zm.624-.173l.175.024-.05.15-.125-.026v-.148zm2.446.223h-.2v-.199l.175.025.025.174zm-.824.025l-.1-.05.025-.1h.1l-.025.15zm-1.972.272l-.099.025v-.124l.074-.025.025.124zm2.92.05l.05-.124.175-.05v.174l-.1.074-.175.149-.05.124-.074.074h-.1l-.1-.075-.175-.148-.199-.174.149-.173.175.149.075.074.125.025.1.025.124-.124zm-2.994.743l-.025-.149.199-.198.1-.074.2-.1.075.05v.174l-.075.099-.1.074-.075.05-.1.074h-.199zm-.225-.347h-.125v-.149h.15l-.025.15zm2.296 0l-.125-.025.025-.124h.125l-.025.15zm1.173.248v.149h-.175v-.15h.175zm-2.72.52l-.175-.025.025-.148h.175l-.025.173zm-.749-.05l-.125.025v-.123h.1l.025.099zm3.793-.098l.025.074h-.1v-.074h.075zm-2.645.495h-.15v-.173l.175.024-.025.15zm2.321-.124v.1h-.1v-.1h.1zm-3.095.198l-.174-.024v-.149l.199.025-.025.148zm.25.323l-.025-.199h.175l.025.174-.175.025zm-.649-.124v.099h-.1v-.1h.1zm.374.495l-.149-.05.05-.148.149.05-.05.148zm.724.025l-.075-.05.025-.099.1.025-.05.124zm-.274.347l-.125.025-.025-.124.125-.05.025.15zm-.4.421l-.149.025-.05-.173h.174l.025.148zm.35.223l.025.174h-.15l-.025-.149.15-.025zm3.444.446h-.05v-.074l.075.025-.025.05zm-3.993.1v-.15h.149v.125l-.149.025zm4.716-.025h-.05l.025-.05h.05l-.025.05zm-4.167.347l-.1-.025.05-.124.1.05-.05.099zm3.768-.1l.125-.024v.124h-.1l-.025-.1zm.824.67l.199-.15.15-.024-.075.124-.075.074-.1.075-.124.05.025-.15zm.823.272l-.15.025-.025-.174h.175v.15zm.649-.074l-.025-.075h.125v.075h-.1zm-.349.272l-.025.075-.075-.025.025-.074.075.024zM80.363 48.456c0-3.594.713-6.69 2.137-9.288 1.439-2.612 3.423-4.597 5.952-5.954 2.544-1.356 5.444-2.035 8.7-2.035 1.206 0 2.376.058 3.51.174 1.134.115 2.493.274 4.077.476.64.086 1.25.166 1.832.238.581.058 1.032.087 1.352.087l-.589 10.867h-5.647l-1.7-7.425c-.582-.606-1.65-.91-3.206-.91-1.977 0-3.51 1.09-4.6 3.27-1.09 2.164-1.636 5.433-1.636 9.807 0 2.785.24 5.203.72 7.252.48 2.035 1.192 3.616 2.137 4.742.959 1.11 2.13 1.666 3.51 1.666 1.032 0 1.81-.108 2.333-.324a4.09 4.09 0 001.352-.953l2.136-4.98 5.102.434-.719 7.664c-.523.057-1.025.137-1.505.238-.465.1-1.053.245-1.766.433-1.25.332-2.42.584-3.51.757-1.076.188-2.413.282-4.012.282-3.546 0-6.512-.671-8.895-2.013-2.37-1.357-4.143-3.27-5.32-5.737-1.163-2.468-1.745-5.391-1.745-8.768zm59.043 12.231l4.252.498v3.291h-17.879v-3.29l4.732-.52-.022-24.962h-7.609v2.771c0 4.893-.233 9.396-.698 13.51-.451 4.113-1.185 7.194-2.202 9.244-1.192 2.381-2.987 3.572-5.386 3.572-1.526 0-2.798-.101-3.815-.303l-.567-4.547c.131.015.538.044 1.221.087.698.043 1.475.065 2.333.065.625 0 1.148-.13 1.57-.39.421-.274.806-.8 1.155-1.58.756-1.675 1.352-4.12 1.788-7.34.451-3.232.676-7.786.676-13.66v-1.429l-5.734-.671v-3.507h30.263v3.507l-4.078.671v24.983zM145.032 48c0-3.42.617-6.4 1.853-8.94 1.25-2.555 3.038-4.525 5.364-5.91 2.34-1.386 5.101-2.079 8.285-2.079 5.32 0 9.186 1.407 11.599 4.222 2.427 2.8 3.641 6.826 3.641 12.08 0 3.435-.632 6.48-1.897 9.136-1.25 2.656-3.045 4.727-5.385 6.213-2.34 1.487-5.095 2.238-8.264 2.252-5.276.014-9.128-1.465-11.555-4.438-2.428-2.988-3.641-7.166-3.641-12.535zm9.92-.042c0 4.878.458 8.392 1.374 10.543.93 2.136 2.275 3.204 4.033 3.204 1.759 0 3.111-1.227 4.056-3.68.945-2.454 1.417-5.997 1.417-10.63 0-3.277-.218-5.875-.654-7.794-.422-1.92-1.025-3.276-1.81-4.07-.785-.794-1.766-1.19-2.943-1.19-1.788 0-3.147 1.125-4.077 3.376-.931 2.252-1.396 5.665-1.396 10.24zm26.426 12.729V35.661l-3.031-.628v-3.507h15.611v3.507l-3.554.628v9.98h10.531v-9.959l-3.27-.65v-3.506h15.48v3.507l-3.183.628v25.026l3.183.498v3.291h-15.459v-3.29l3.249-.52V49.884h-10.531v10.803l3.554.498v3.291h-15.655v-3.29l3.075-.499z" fill="#fff"/></svg>