<svg width="34" height="40" fill="none" xmlns="http://www.w3.org/2000/svg"><path fill-rule="evenodd" clip-rule="evenodd" d="M33.087 10.21l-9.02-9.075-.962-.385H1.875L.5 2.125V17.25h2.75V3.5h16.5v9.625l1.375 1.375h9.625v2.75h2.75V11.2l-.413-.99zM22.5 11.75V3.5l8.25 8.25H22.5zM1.875 20L.5 21.375v16.5l1.375 1.375h30.25l1.375-1.375v-16.5L32.125 20H1.875zM30.75 33.75v2.75H3.25V22.75h27.5v11zM8.75 31h-.88v2.75H6V25.5h2.915c2.063 0 3.108.99 3.108 2.75a2.586 2.586 0 01-.88 1.98A3.658 3.658 0 018.75 31zm-.165-3.988H7.87v2.558h.715c.99 0 1.485-.44 1.485-1.293 0-.852-.495-1.265-1.485-1.265zm11.165 5.583a4.071 4.071 0 001.21-3.08c0-2.75-1.457-4.015-4.4-4.015h-2.915v8.25h2.915a4.399 4.399 0 003.19-1.155zm-4.262-.358v-5.225h.907a2.584 2.584 0 011.925.688 2.501 2.501 0 01.688 1.843 2.75 2.75 0 01-.688 1.98 2.586 2.586 0 01-1.898.714h-.934zm12.237-1.677h-2.668v3.19h-1.87V25.5h4.785v1.512h-2.915v2.035h2.668v1.513z" fill="#161616"/></svg>