<svg width="20" height="20" fill="none" xmlns="http://www.w3.org/2000/svg"><path d="M19.722 16.63l-2.82 2.798c-.416.427-.968.572-1.505.572-2.376-.071-4.622-1.238-6.466-2.437-3.027-2.202-5.805-4.932-7.548-8.232C.715 7.947-.07 6.18.005 4.637c.007-.581.163-1.151.572-1.526L3.397.293c.586-.498 1.152-.326 1.527.254L7.192 4.85c.239.51.102 1.056-.254 1.42l-1.04 1.038a.51.51 0 00-.105.297c.398 1.542 1.605 2.963 2.671 3.941 1.066.978 2.212 2.303 3.7 2.617.184.051.409.07.54-.053l1.209-1.229c.417-.316 1.018-.47 1.463-.212h.021l4.092 2.416c.6.377.663 1.104.233 1.547z" fill="#161616"/></svg>