<svg width="224" height="224" fill="none" xmlns="http://www.w3.org/2000/svg"><g opacity=".1" filter="url(#filter0_f)" fill="#222"><path d="M140 119h41.23A63.004 63.004 0 01154 161.98l-12.53 8.4 7.7 11.62 12.53-8.4a77 77 0 0034.3-64.05V63a13.998 13.998 0 00-14-14h-42a13.998 13.998 0 00-14 14v42c0 3.713 1.475 7.274 4.101 9.899A13.996 13.996 0 00140 119zm-98 0h41.23A62.995 62.995 0 0156 161.98l-12.53 8.4L51.1 182l12.6-8.4A77.005 77.005 0 0098 109.55V63a14 14 0 00-14-14H42a14 14 0 00-14 14v42a13.998 13.998 0 0014 14z"/></g><defs><filter id="filter0_f" x="-2" y="-2" width="228" height="228" filterUnits="userSpaceOnUse" color-interpolation-filters="sRGB"><feFlood flood-opacity="0" result="BackgroundImageFix"/><feBlend in="SourceGraphic" in2="BackgroundImageFix" result="shape"/><feGaussianBlur stdDeviation="1" result="effect1_foregroundBlur"/></filter></defs></svg>