<svg width="24" height="24" fill="none" xmlns="http://www.w3.org/2000/svg"><path d="M23.203 21.848l-5.16-5.16a9.82 9.82 0 002.25-6.282 9.817 9.817 0 00-2.898-6.994A9.807 9.807 0 0010.406.516a9.825 9.825 0 00-6.994 2.897 9.81 9.81 0 00-2.896 6.993A9.825 9.825 0 003.413 17.4a9.829 9.829 0 006.993 2.897 9.8 9.8 0 006.281-2.25l5.161 5.156a.956.956 0 001.355 0 .956.956 0 000-1.355zM4.767 16.041a7.903 7.903 0 01-2.339-5.635c0-2.128.83-4.134 2.335-5.639a7.92 7.92 0 015.639-2.334c2.128 0 4.134.83 5.639 2.334a7.92 7.92 0 012.334 5.64 7.93 7.93 0 01-2.334 5.638 7.928 7.928 0 01-5.64 2.335 7.9 7.9 0 01-5.634-2.34z" fill="#161616"/></svg>