<svg width="24" height="19" fill="none" xmlns="http://www.w3.org/2000/svg"><path fill-rule="evenodd" clip-rule="evenodd" d="M10.874 5a4.01 4.01 0 000-2H24v2H10.874zM3.126 5H0V3h3.126a4.007 4.007 0 000 2z" fill="#161616"/><path fill-rule="evenodd" clip-rule="evenodd" d="M7 8a4 4 0 100-8 4 4 0 000 8zm0-2a2 2 0 100-4 2 2 0 000 4zm6.126 10a4.01 4.01 0 010-2H0v2h13.126zm7.748 0H24v-2h-3.126a4.01 4.01 0 010 2z" fill="#161616"/><path fill-rule="evenodd" clip-rule="evenodd" d="M17 19a4 4 0 110-8 4 4 0 010 8zm0-2a2 2 0 110-4 2 2 0 010 4z" fill="#161616"/></svg>