<svg width="35" height="23" fill="none" xmlns="http://www.w3.org/2000/svg"><path d="M.379 3.16c0-1.138.647-1.752 1.942-1.84l4.989.033c.335 0 .558.167.67.502.513 1.674 1.088 3.12 1.724 4.336.636 1.216 1.467 2.617 2.494 4.202.09.2.234.301.435.301.157 0 .28-.078.369-.234l.1-.369.034-5.792c0-.402-.095-.67-.285-.803-.19-.134-.541-.235-1.055-.302-.401-.067-.602-.312-.602-.736 0-.09.01-.157.033-.201C11.696.806 13.035.08 15.245.08L17.12.047c.848 0 1.551.212 2.11.636.557.424.836 1.094.836 2.009v7.6c.157.112.302.168.436.168.335 0 .625-.201.87-.603 2.456-3.437 3.784-5.736 3.985-6.897 0-.022.022-.078.067-.168.156-.334.413-.625.77-.87.357-.246.67-.413.937-.502a.665.665 0 01.302-.067h5.19l.334.033c.447 0 .792.212 1.038.636.09.134.15.28.184.436.034.156.056.312.067.468.011.157.017.246.017.268v.235c-.156.915-.553 1.891-1.189 2.93-.636 1.037-1.445 2.159-2.427 3.364-.982 1.206-1.596 1.998-1.842 2.377-.2.268-.301.514-.301.737 0 .179.09.38.268.603l4.888 6.16c.268.358.402.748.402 1.172 0 .514-.201.938-.603 1.273a2.5 2.5 0 01-1.44.569l-.569.033h-5.089c-.022 0-.067.006-.134.017a1.035 1.035 0 01-.134.017c-.49 0-.948-.212-1.373-.636-.156-.179-1.205-1.496-3.147-3.951a1.777 1.777 0 00-.469-.436c-.089.358-.206.871-.351 1.54-.145.67-.251 1.15-.318 1.44l-.1.57c-.224.78-.693 1.25-1.407 1.406l-.469.033h-3.281c-1.853 0-3.7-.848-5.541-2.544-1.842-1.697-3.5-3.89-4.972-6.58-1.474-2.69-2.846-5.82-4.119-9.391A2.686 2.686 0 01.38 3.16zm20.123 8.673a2.22 2.22 0 01-1.273-.386c-.38-.256-.569-.608-.569-1.054V2.692c0-.446-.111-.765-.335-.954-.223-.19-.613-.285-1.171-.285l-1.909.067c-.96 0-1.685.167-2.176.502.982.47 1.473 1.228 1.473 2.277v5.893a2.038 2.038 0 01-.67 1.39c-.402.368-.848.552-1.34.552-.669 0-1.182-.324-1.54-.971-1.74-2.634-3.035-5.134-3.883-7.5l-.302-.87-4.453-.034c-.29 0-.452.017-.485.05-.034.034-.05.128-.05.285 0 .2.022.413.067.636l.703 1.875c1.875 4.844 3.912 8.66 6.11 11.45 2.199 2.791 4.358 4.186 6.479 4.186h3.348c.134 0 .235-.039.302-.117.067-.078.122-.229.167-.452l.067-.335.636-2.946c.179-.402.335-.67.469-.804a1.19 1.19 0 01.87-.368c.536 0 1.083.323 1.641.97l2.846 3.617c.179.29.368.435.57.435h5.524c.67 0 1.004-.167 1.004-.502a.646.646 0 00-.1-.335l-4.855-6.06c-.38-.469-.57-.971-.57-1.507 0-.536.18-1.05.536-1.54.29-.447.854-1.189 1.691-2.227a49.756 49.756 0 002.193-2.913c.625-.904 1.038-1.724 1.24-2.46l.1-.436a.519.519 0 01-.034-.217c0-.1-.011-.185-.033-.252h-5.257a1.828 1.828 0 00-.804.603l-.2.636c-.559 1.54-2.02 3.918-4.387 7.132-.468.446-1.015.67-1.64.67z" fill="#fff"/></svg>