<svg width="24" height="24" fill="none" xmlns="http://www.w3.org/2000/svg"><path fill-rule="evenodd" clip-rule="evenodd" d="M20.004 4.041A11.148 11.148 0 0012.066.75C5.881.75.846 5.784.844 11.971c0 1.978.516 3.908 1.497 5.61L.75 23.395l5.949-1.561A11.225 11.225 0 0012.06 23.2h.005c6.184 0 11.219-5.034 11.222-11.221a11.159 11.159 0 00-3.284-7.938zm-7.938 17.265h-.004c-1.67 0-3.31-.45-4.747-1.301l-.34-.203-3.53.927.941-3.441-.221-.353a9.31 9.31 0 01-1.426-4.964C2.74 6.83 6.925 2.645 12.07 2.645a9.266 9.266 0 016.594 2.735 9.275 9.275 0 012.728 6.599c-.002 5.142-4.186 9.327-9.326 9.327zm5.117-6.986c-.282-.141-1.66-.819-1.917-.912-.256-.094-.442-.14-.63.14-.187.28-.725.91-.888 1.098-.164.188-.328.21-.608.07-.28-.14-1.184-.436-2.255-1.391-.834-.744-1.396-1.661-1.56-1.942-.164-.282-.018-.433.124-.573.126-.125.28-.328.42-.491.14-.164.186-.28.28-.468.094-.187.047-.351-.024-.491-.07-.141-.631-1.521-.865-2.083-.226-.543-.457-.47-.63-.478a12.06 12.06 0 00-.536-.01 1.032 1.032 0 00-.749.35c-.257.281-.981.958-.981 2.338 0 1.38 1.005 2.714 1.145 2.902.14.187 1.977 3.019 4.79 4.234.67.288 1.192.46 1.599.59.67.215 1.282.183 1.766.112.539-.08 1.659-.678 1.892-1.333.234-.654.234-1.216.164-1.333-.07-.118-.259-.189-.537-.329z" fill="#161616"/></svg>