<svg width="33" height="39" fill="none" xmlns="http://www.w3.org/2000/svg"><g clip-path="url(#clip0)"><path d="M31.54 8.164c.4.401.744.945 1.03 1.633.287.687.43 1.318.43 1.89v24.75c0 .573-.2 1.06-.602 1.461a1.989 1.989 0 01-1.46.602H2.063c-.573 0-1.06-.2-1.461-.602A1.989 1.989 0 010 36.438V2.062c0-.572.2-1.06.602-1.46A1.989 1.989 0 012.062 0h19.25c.573 0 1.204.143 1.891.43.688.286 1.232.63 1.633 1.03l6.703 6.704zM22 2.922V11h8.078c-.143-.415-.3-.709-.473-.88l-6.724-6.725c-.172-.172-.466-.33-.881-.473zm8.25 32.828v-22h-8.938c-.572 0-1.06-.2-1.46-.602a1.989 1.989 0 01-.602-1.46V2.75H2.75v33h27.5zM5.006 16.5v2.299H6.51L10.033 33h3.416l2.75-10.42c.1-.286.172-.616.215-.988a4.49 4.49 0 00.043-.516h.086l.064.516c.015.043.04.186.076.43.035.243.075.43.118.558L19.55 33h3.416l3.523-14.201h1.504V16.5H21.55v2.299h1.933l-2.127 9.41a5.997 5.997 0 00-.15.988l-.043.451h-.086a.986.986 0 00-.01-.14 2.294 2.294 0 00-.033-.171.737.737 0 01-.021-.14 51.136 51.136 0 01-.086-.45c-.043-.23-.079-.41-.108-.538L17.725 16.5h-2.45l-3.093 11.709a9.394 9.394 0 00-.097.526c-.036.222-.06.376-.075.462l-.086.451h-.086l-.043-.45a5.997 5.997 0 00-.15-.989l-2.127-9.41h1.933V16.5H5.006z" fill="#000"/></g><defs><clipPath id="clip0"><path fill="#fff" d="M0 0h33v38.5H0z"/></clipPath></defs></svg>