<svg width="768" height="278" viewBox="0 0 768 278" fill="none" xmlns="http://www.w3.org/2000/svg">
<path d="M249.595 216.948H205.752V273.392H144.988V216.948H0V175.094L126.913 4.60772H192.292L74.6092 166.262H146.911V115.961H205.752V166.262H249.595V216.948Z" fill="#161616"/>
<path d="M383.604 278C361.298 278 341.428 272.496 323.994 261.489C306.559 250.482 292.842 234.61 282.843 213.876C273.1 192.885 268.229 167.926 268.229 139C268.229 110.074 273.1 85.2431 282.843 64.5083C292.842 43.5175 306.559 27.5184 323.994 16.511C341.428 5.50367 361.298 0 383.604 0C405.91 0 425.78 5.50367 443.214 16.511C460.649 27.5184 474.237 43.5175 483.98 64.5083C493.979 85.2431 498.979 110.074 498.979 139C498.979 167.926 493.979 192.885 483.98 213.876C474.237 234.61 460.649 250.482 443.214 261.489C425.78 272.496 405.91 278 383.604 278ZM383.604 225.395C400.013 225.395 412.832 218.355 422.062 204.276C431.549 190.197 436.292 168.438 436.292 139C436.292 109.562 431.549 87.8029 422.062 73.7237C412.832 59.6446 400.013 52.605 383.604 52.605C367.451 52.605 354.632 59.6446 345.146 73.7237C335.916 87.8029 331.301 109.562 331.301 139C331.301 168.438 335.916 190.197 345.146 204.276C354.632 218.355 367.451 225.395 383.604 225.395Z" fill="#161616"/>
<path d="M767.595 216.948H723.752V273.392H662.988V216.948H518V175.094L644.913 4.60771H710.292L592.609 166.262H664.911V115.961H723.752V166.262H767.595V216.948Z" fill="#161616"/>
</svg>
